{"glyphs":{"0":{"ha":1154,"x_min":-4,"x_max":1108,"o":"m 64 457 q 112 623 86 536 q 154 760 138 710 q 172 813 171 811 q 399 842 179 821 q 794 854 575 860 q 923 849 917 851 q 953 789 929 846 q 1099 215 1063 525 q 1107 124 1107 139 q 1097 86 1107 108 q 1017 -40 1069 29 q 917 -149 964 -108 l 901 -162 l 781 -168 q 489 -172 578 -179 q 376 -167 475 -171 q 293 -161 310 -164 q 268 -151 276 -158 q 195 -90 247 -136 q 121 -19 143 -43 q 3 108 11 92 q 32 289 -4 122 q 48 375 36 310 q 64 457 60 440 m 778 83 q 314 385 635 138 q 288 93 293 207 q 290 33 285 38 q 531 28 296 28 q 772 33 765 28 q 778 83 776 38 m 769 369 q 736 635 760 519 l 731 664 l 614 664 q 442 657 521 664 q 356 642 363 650 q 342 575 350 636 q 335 536 339 557 q 769 369 476 490 z "},"1":{"ha":632,"x_min":-8,"x_max":607,"o":"m -8 554 q 139 735 81 656 q 247 879 244 878 q 283 881 261 879 q 358 883 304 882 q 447 883 411 883 q 523 879 483 882 q 585 874 563 876 l 606 872 q 576 117 588 319 q 567 -48 572 28 q 558 -157 561 -124 q 556 -192 556 -190 q 540 -195 556 -194 q 483 -194 524 -196 q 421 -193 443 -193 q 357 -192 390 -193 q 307 -189 324 -190 l 289 -187 q 263 307 278 -22 q 258 421 260 369 q 212 365 246 406 q 157 297 178 324 q 123 351 143 319 q 79 421 103 383 q -8 554 39 485 z "},"2":{"ha":1154,"x_min":17,"x_max":1124,"o":"m 901 -162 l 781 -168 q 54 -168 678 -190 q 45 -166 50 -167 q 31 -158 40 -165 q 22 -140 22 -151 q 20 -69 24 -137 q 17 80 17 0 q 24 208 17 160 q 53 306 29 247 q 105 329 53 307 q 250 385 157 351 q 425 439 343 418 q 758 496 549 471 q 736 635 749 571 l 731 664 l 614 664 q 442 657 521 664 q 356 642 363 650 q 342 575 350 636 q 335 538 339 557 q 79 511 160 514 q 121 656 99 582 q 157 770 143 729 q 172 813 171 811 q 399 842 179 821 q 794 854 575 860 q 923 849 917 851 q 953 789 929 846 q 1068 406 1025 615 q 1067 406 1067 406 q 1068 406 1067 406 q 886 333 1040 378 q 613 242 843 321 q 286 136 382 163 q 285 100 286 124 q 283 72 283 76 q 283 53 283 60 q 283 42 282 46 q 285 36 285 38 q 288 34 285 35 q 290 32 290 33 q 531 28 296 28 q 772 33 765 28 q 778 165 778 38 q 776 219 776 193 q 1097 225 896 251 q 1099 215 1099 219 q 1124 -61 1122 17 q 1123 -108 1124 -93 q 1121 -135 1122 -122 q 1118 -160 1119 -147 l 901 -162 m 1068 406 m 1068 406 z "},"3":{"ha":1154,"x_min":0,"x_max":983,"o":"m 311 211 q 343 217 331 215 q 499 249 417 232 q 532 256 500 250 l 553 260 l 550 238 q 546 197 549 215 q 539 157 543 182 q 519 40 535 128 q 515 23 517 26 q 506 18 513 19 q 400 15 492 15 q 306 15 308 14 q 301 114 304 18 l 301 131 q 31 122 117 133 q 0 39 0 43 q 86 -78 51 -36 q 188 -181 121 -119 q 311 -189 231 -185 q 763 -181 431 -194 l 828 -178 l 851 -135 q 936 45 889 -67 q 983 179 983 157 q 951 207 983 186 q 849 272 856 272 q 804 297 847 272 q 721 346 761 324 q 700 357 710 351 q 685 367 690 363 q 682 371 681 371 q 738 401 686 375 q 831 456 789 428 q 874 493 864 479 q 906 557 885 507 q 933 632 917 585 q 949 685 949 679 q 870 761 949 696 q 708 885 792 826 l 653 922 l 569 922 q 408 917 514 922 q 272 907 301 911 l 219 901 q 58 697 104 757 q 160 622 75 650 q 292 596 246 593 q 350 608 326 608 q 358 726 356 722 q 379 728 361 731 q 432 721 396 725 q 572 699 496 713 q 651 682 647 686 q 650 661 654 679 q 642 592 649 644 q 632 536 635 540 q 500 501 628 531 q 190 431 271 446 q 228 304 196 357 q 263 258 242 281 q 297 222 283 235 l 311 211 z "},"4":{"ha":1111,"x_min":44,"x_max":1013,"o":"m 44 339 q 63 426 44 342 q 102 608 81 510 q 132 738 124 706 q 221 1040 213 1038 q 368 1033 233 1044 q 554 1013 503 1022 l 579 1008 l 572 994 q 435 633 533 911 q 417 540 431 619 q 397 439 404 461 q 679 442 529 439 q 665 702 675 554 q 653 969 656 850 q 832 968 740 971 q 919 965 874 968 q 988 958 964 961 l 1013 956 q 996 129 1008 372 q 984 -69 990 21 q 974 -200 978 -160 q 971 -242 971 -240 q 953 -245 971 -244 q 889 -244 935 -246 q 818 -243 843 -243 q 756 -240 782 -243 q 724 -233 731 -236 l 715 -229 q 686 278 703 -118 q 419 272 528 272 q 365 271 414 272 q 240 267 315 269 q 122 264 165 264 q 86 282 104 263 q 57 320 68 301 q 44 339 46 339 z "},"5":{"ha":1154,"x_min":-3,"x_max":1101,"o":"m 1097 86 q 917 -149 981 -96 l 901 -162 l 781 -168 q 489 -172 578 -179 q 376 -167 475 -171 q 293 -161 310 -164 q 268 -151 276 -158 q 195 -90 247 -136 q 121 -19 143 -43 q 3 108 11 92 q 35 303 -3 121 q 47 300 40 301 q 199 260 99 292 q 346 207 300 229 q 338 149 344 197 q 331 93 331 101 q 333 33 328 38 q 524 27 339 29 q 715 29 710 25 q 721 178 722 35 q 721 194 721 185 q 528 261 688 206 q 224 366 368 317 q 58 419 81 415 q 72 493 69 478 q 117 651 93 572 q 156 769 142 729 q 172 813 169 810 q 399 842 179 821 q 794 854 575 860 q 923 849 917 851 q 953 789 929 846 q 969 722 958 778 q 983 654 979 665 l 614 640 q 399 619 408 632 q 383 575 389 608 q 383 570 383 574 q 382 565 382 567 l 1071 357 q 1094 233 1088 300 q 1099 125 1101 165 l 1097 86 z "},"6":{"ha":1154,"x_min":-4,"x_max":1108,"o":"m 772 33 q 778 165 778 38 q 776 214 776 190 q 303 279 603 240 q 288 93 290 161 q 290 33 285 38 q 531 28 296 28 q 772 33 765 28 m 1083 325 q 1099 215 1092 269 q 1107 124 1107 139 q 1097 86 1107 108 q 1017 -40 1069 29 q 917 -149 964 -108 l 901 -162 l 781 -168 q 489 -172 578 -179 q 376 -167 475 -171 q 293 -161 310 -164 q 268 -151 276 -158 q 195 -90 247 -136 q 121 -19 143 -43 q 3 108 11 92 q 32 289 -4 122 q 48 375 36 310 q 64 457 60 440 q 112 623 86 536 q 154 760 138 710 q 172 813 171 811 q 399 842 179 821 q 794 854 575 860 q 923 849 917 851 q 953 789 929 846 q 1039 531 1003 669 q 1029 529 1035 529 q 756 515 960 521 q 736 635 747 579 l 731 664 l 614 664 q 442 657 521 664 q 356 642 363 650 q 342 575 350 636 q 328 489 332 518 q 322 447 325 471 q 590 407 400 438 q 931 351 779 376 q 1083 325 1083 325 z "},"7":{"ha":868,"x_min":0,"x_max":839,"o":"m 561 -172 l 253 -175 q 439 292 319 -36 q 553 621 526 528 l 561 650 l 517 650 q 220 630 435 649 q 0 603 6 611 q 58 799 56 796 q 92 804 60 801 q 197 813 125 807 q 333 826 268 819 q 669 839 483 844 q 778 833 772 836 q 795 800 781 832 q 824 728 810 768 q 836 675 838 689 q 726 275 829 571 q 668 115 700 200 q 604 -57 636 29 q 561 -172 572 -143 z "},"8":{"ha":992,"x_min":-4,"x_max":983,"o":"m 219 901 q 272 907 264 906 q 408 917 301 911 q 569 922 514 922 l 653 922 l 708 885 q 870 761 792 826 q 949 685 949 696 q 933 632 949 679 q 906 557 917 585 q 874 493 885 507 q 831 456 864 479 q 738 401 789 428 q 682 371 686 375 q 685 367 681 371 q 700 357 690 363 q 721 346 710 351 q 804 297 761 324 q 849 272 847 272 q 951 207 856 272 q 983 179 983 186 q 936 45 983 157 q 851 -135 889 -67 l 828 -178 l 763 -181 q 311 -189 431 -194 l 188 -181 q 86 -78 121 -119 l 0 39 q 94 258 56 197 l 179 392 q 89 472 122 442 l 0 553 q -3 560 0 553 q 17 624 -3 578 q 81 724 31 656 q 175 847 132 793 l 219 901 m 519 40 q 539 157 535 128 q 546 197 543 182 q 550 238 549 215 l 553 260 l 532 256 q 499 249 500 250 q 343 217 417 232 q 311 211 322 213 l 300 210 l 301 114 q 306 15 304 18 q 400 15 308 14 q 506 18 492 15 q 515 23 513 19 q 519 40 517 26 m 382 475 q 500 501 449 489 q 632 536 628 531 q 642 592 635 540 q 650 661 649 644 q 651 682 654 679 q 572 699 647 686 q 432 721 496 713 q 379 728 396 725 q 358 726 361 731 q 349 600 356 722 q 346 474 343 478 q 382 475 349 469 z "},"9":{"ha":1154,"x_min":-4,"x_max":1108,"o":"m 772 33 q 774 35 774 33 q 769 113 771 51 q 769 149 769 131 q 622 185 715 160 q 432 238 528 210 q 248 292 336 265 q 103 335 160 318 q 47 351 47 351 q 47 354 47 353 q 48 359 47 356 q 50 368 49 363 q 57 403 54 392 q 172 813 164 803 q 399 842 179 821 q 794 854 575 860 q 923 849 917 851 q 953 789 929 846 q 1099 215 1063 525 q 1107 124 1107 139 q 1097 86 1107 108 q 1017 -40 1069 29 q 917 -149 964 -108 l 901 -162 l 781 -168 q 489 -172 578 -179 q 376 -167 475 -171 q 293 -161 310 -164 q 268 -151 276 -158 q 195 -90 247 -136 q 121 -19 143 -43 q 3 108 11 92 q 25 254 -3 121 q 292 163 83 222 q 288 93 289 121 q 290 33 285 38 q 531 28 296 28 q 772 33 765 28 m 761 342 q 755 435 758 367 q 747 553 751 503 q 736 635 743 603 l 731 664 l 614 664 q 442 657 521 664 q 356 642 363 650 q 342 575 350 635 q 330 499 339 557 q 321 436 321 442 q 321 435 321 435 q 761 342 485 401 z "},"\u0000":{"ha":1389,"x_min":0,"x_max":0,"o":""}," ":{"ha":722,"x_min":0,"x_max":0,"o":""},"!":{"ha":433,"x_min":-15,"x_max":406,"o":"m -3 1056 q 93 1059 15 1056 q 225 1061 171 1063 q 294 1058 267 1060 q 351 1052 321 1056 q 404 1047 382 1049 q 400 822 401 957 q 396 589 399 688 q 387 414 393 490 q 374 274 381 338 q 363 183 367 211 q 360 154 360 154 q 340 151 360 151 q 270 151 321 150 q 192 151 219 151 q 92 154 140 151 q 26 157 44 157 q 14 299 24 189 q -7 575 4 410 q -15 782 -15 735 q -8 910 -14 829 q -3 1056 -3 990 m 6 -275 q 88 -281 33 -281 q 203 -278 143 -281 q 342 -278 263 -275 q 353 64 356 -32 l 353 82 l 329 82 q 1 86 8 88 q 6 -275 -7 82 z "},"\"":{"ha":417,"x_min":-7,"x_max":372,"o":"m 317 -185 q 279 -190 313 -185 q 206 -201 260 -193 q 142 -212 160 -208 q 100 -218 124 -215 l 76 -222 l 74 -206 l 67 -150 q 55 -19 65 -139 q 33 236 44 100 q 19 386 21 372 q 17 461 19 389 q 10 620 14 533 q 7 738 7 707 q 3 1106 -6 1103 q 152 1099 14 1110 q 344 1078 290 1088 l 371 1074 l 369 1060 q 340 633 363 1019 q 315 21 315 150 l 317 -185 z "},"#":{"ha":1425,"x_min":-7,"x_max":1357,"o":"m 153 1056 q 193 1057 168 1056 q 278 1060 218 1058 q 380 1060 339 1061 q 466 1056 421 1060 q 536 1050 511 1053 l 560 1047 q 549 671 556 872 q 865 675 738 672 q 865 689 865 683 q 861 1057 853 1054 q 1010 1050 872 1061 q 1203 1029 1149 1039 l 1229 1025 l 1228 1011 q 1206 685 1222 981 q 1344 686 1344 686 q 1348 670 1346 681 q 1353 635 1350 660 q 1356 593 1357 610 q 1344 494 1344 494 q 1194 493 1286 494 q 1182 213 1188 358 q 1322 206 1317 211 q 1341 137 1328 200 q 1350 71 1354 74 q 1176 63 1343 65 q 1174 -28 1174 -7 l 1175 -233 q 1138 -239 1171 -233 q 1064 -250 1118 -242 q 1000 -261 1018 -257 q 958 -267 982 -264 l 935 -271 l 932 -254 l 925 -199 q 901 64 922 -182 q 896 64 897 64 q 525 82 743 68 q 514 -83 519 -7 q 506 -194 508 -160 q 503 -228 503 -228 q 485 -233 503 -232 q 421 -232 467 -233 q 350 -231 375 -231 q 278 -229 315 -231 q 219 -225 240 -228 l 200 -224 q 182 108 193 -112 q 89 117 132 113 q 11 126 29 122 q -7 135 -7 129 q 16 203 -7 146 q 46 265 39 260 q 72 269 53 272 q 175 260 97 265 q 171 369 172 313 q 165 506 167 443 q 80 517 118 511 q 28 526 42 522 l 13 529 q 19 604 15 568 q 24 639 22 624 q 28 664 26 654 q 160 665 79 664 q 156 852 157 738 q 153 1056 154 967 m 888 218 q 878 338 879 322 q 871 493 876 346 q 542 493 682 493 q 532 235 536 338 q 888 218 729 224 z "},"$":{"ha":1249,"x_min":99,"x_max":1099,"o":"m 735 614 l 606 608 q 450 597 463 601 q 449 584 450 593 q 449 570 449 575 q 449 564 449 565 q 501 538 468 553 q 587 497 533 522 q 679 454 640 472 q 1092 250 1025 290 q 1090 138 1099 154 q 1004 15 1069 88 q 881 -110 939 -57 l 867 -122 l 757 -129 q 725 -131 743 -129 l 726 -244 q 689 -250 722 -244 q 615 -261 669 -253 q 551 -271 569 -268 q 510 -278 533 -275 l 486 -281 l 483 -264 l 476 -210 q 469 -137 475 -201 q 399 -136 418 -137 q 323 -131 339 -133 q 299 -122 307 -129 q 206 -33 250 -82 q 103 143 164 11 q 113 231 99 153 q 240 235 150 231 q 373 242 329 240 q 435 240 417 243 q 436 238 436 240 q 432 193 433 211 q 432 164 432 174 l 431 154 q 432 154 431 154 q 435 149 433 150 q 599 144 440 144 q 763 146 757 143 l 764 146 q 763 204 764 164 q 651 255 746 214 q 499 324 556 296 q 160 490 249 442 q 203 651 179 567 q 241 785 226 736 q 257 835 256 833 q 411 858 263 842 q 413 1046 408 1044 q 562 1039 424 1050 q 754 1018 700 1028 l 781 1014 l 778 1000 q 768 876 776 986 q 826 876 800 876 q 944 871 938 874 q 972 811 950 868 q 1057 532 1029 664 q 1039 528 1049 529 q 890 513 1018 522 q 749 503 761 503 q 749 506 749 504 q 750 539 750 528 l 735 614 z "},"%":{"ha":1004,"x_min":-90,"x_max":1133,"o":"m 618 14 q 656 114 649 108 q 732 124 657 117 q 868 126 793 128 q 912 124 910 125 q 922 108 914 124 q 971 -54 958 33 q 971 -90 975 -82 q 950 -117 965 -100 q 922 -145 935 -133 q 910 -157 910 -157 l 904 -161 l 863 -162 q 764 -164 793 -165 q 725 -162 758 -164 q 688 -158 693 -161 q 638 -121 664 -143 q 597 -85 600 -89 q 608 -33 596 -81 q 613 -9 610 -28 q 618 14 617 10 m 783 -75 q 811 -75 783 -75 q 841 -74 839 -75 q 842 -49 843 -72 q 832 36 842 1 l 831 42 l 803 42 q 740 39 744 42 q 738 26 739 38 q 733 10 735 15 q 724 -62 726 -25 q 725 -74 724 -72 q 783 -75 726 -75 m 126 728 q 163 829 157 822 q 240 838 165 831 q 375 840 300 842 q 419 839 417 840 q 429 822 421 838 q 479 660 467 747 q 478 624 483 632 q 417 557 456 585 l 411 553 l 371 551 q 271 550 301 549 q 232 551 267 550 q 196 557 200 553 q 146 593 172 571 q 106 629 108 625 q 115 681 103 633 q 121 705 117 686 q 126 728 125 724 m 290 640 q 319 640 290 640 q 349 641 347 640 q 350 665 350 642 q 340 751 350 715 l 339 756 l 311 756 q 249 753 253 756 q 244 740 247 751 q 242 724 243 729 q 232 651 235 689 q 232 641 231 642 q 290 640 233 640 m 951 942 q 982 931 965 936 q 1014 920 999 926 q 1049 903 1029 914 q 1090 867 1068 892 q 1122 824 1111 843 q 1132 806 1133 806 l 1054 708 q 863 478 976 613 q 676 267 749 343 q 90 -317 513 94 q 0 -244 43 -283 q -42 -199 -19 -228 q -78 -150 -64 -171 l -90 -131 q 324 333 76 83 q 590 597 433 444 q 850 844 747 749 l 951 942 z "},"&":{"ha":1071,"x_min":17,"x_max":1029,"o":"m 956 265 q 924 271 935 268 q 867 282 917 272 q 901 56 901 56 q 815 -61 850 -19 q 714 -164 781 -103 q 590 -172 671 -168 q 238 -162 538 -175 l 172 -160 l 149 -115 q 65 63 111 -49 q 18 197 18 175 q 49 226 18 204 q 153 292 144 292 q 196 317 154 292 q 281 364 239 342 q 301 376 292 371 q 315 385 310 382 q 318 390 319 389 q 264 419 315 393 q 171 475 213 447 q 126 511 136 497 q 96 575 115 525 q 67 651 83 604 q 51 703 51 697 q 130 781 51 715 q 293 903 208 846 l 349 940 l 431 940 q 592 935 486 940 q 728 926 699 931 l 782 919 q 942 715 896 776 q 840 640 925 668 q 710 614 754 613 q 650 626 675 626 q 642 746 644 742 q 622 746 640 749 q 569 739 604 743 q 429 718 506 732 q 350 700 353 704 q 350 681 347 699 q 360 611 353 664 q 369 556 365 560 q 500 519 374 550 q 763 460 526 513 q 1021 403 999 407 q 997 325 1029 376 q 972 286 982 301 q 958 268 961 271 l 956 265 m 663 325 q 492 361 501 360 q 458 368 490 361 l 438 372 l 440 349 q 444 308 442 326 q 453 242 446 304 q 461 175 460 181 q 482 58 465 147 q 486 41 485 44 q 494 36 488 38 q 596 32 508 35 q 685 32 683 29 q 682 81 686 32 q 672 203 678 129 q 663 325 665 278 z "},"'":{"ha":235,"x_min":3,"x_max":197,"o":"m 3 1003 q 92 1019 42 1017 q 197 1014 142 1022 q 189 844 197 933 q 180 769 185 807 q 173 715 175 731 q 172 700 171 699 l 171 700 q 165 700 169 700 q 156 699 161 700 q 144 697 151 697 q 131 694 138 696 q 116 692 124 693 q 101 689 108 690 l 35 682 q 10 868 15 778 q 5 957 7 921 q 3 1003 3 993 z "},"(":{"ha":504,"x_min":3,"x_max":479,"o":"m 478 -251 q 335 -246 340 -251 q 300 -142 329 -240 q 259 408 275 -57 q 254 940 243 872 l 258 972 l 289 975 q 465 978 317 978 l 465 1197 q 215 1182 360 1197 q 167 1168 178 1178 q 103 1092 153 1156 q 31 996 53 1029 l 3 956 l 6 799 q 15 367 7 715 q 25 0 24 18 q 33 -48 28 -24 q 45 -97 38 -72 q 58 -135 53 -121 q 72 -174 63 -150 q 82 -200 82 -197 l 175 -447 q 233 -460 175 -451 q 324 -471 292 -469 q 478 -474 375 -474 l 478 -251 z "},")":{"ha":485,"x_min":-17,"x_max":436,"o":"m 146 -246 q 183 -154 175 -231 q 185 67 186 -67 q 182 428 185 200 q 179 700 179 656 q 180 776 179 735 q 181 833 181 817 q 180 870 181 850 q 177 901 179 890 q 171 924 175 913 l 153 975 l 128 978 q 101 979 113 979 q 51 978 89 979 q -17 978 13 978 l -17 1197 q 25 1197 6 1197 q 58 1196 44 1196 q 89 1194 72 1196 q 114 1192 106 1193 q 140 1190 122 1192 q 163 1186 157 1188 q 191 1182 169 1185 q 219 1179 213 1179 q 288 1135 243 1175 q 379 1039 333 1096 q 406 1006 406 1006 q 406 999 406 1004 q 409 984 407 994 q 413 958 411 974 q 418 922 415 943 q 424 875 421 900 q 430 817 426 850 q 436 749 433 785 l 433 663 q 432 426 433 639 q 427 26 431 214 q 415 -201 424 -162 q 390 -244 413 -214 q 324 -328 368 -274 q 263 -406 281 -383 q 228 -444 254 -418 l 206 -468 l 115 -471 q -4 -474 39 -474 l -4 -251 q 146 -246 136 -251 z "},"*":{"ha":361,"x_min":-10,"x_max":351,"o":"m 251 1001 q 305 972 279 993 q 350 918 331 950 q 275 847 317 886 q 311 810 293 829 q 338 781 329 790 q 349 769 347 771 q 326 728 349 769 q 301 690 301 690 q 190 771 249 726 q 147 733 169 751 q 114 704 125 714 q 101 693 103 694 q 60 718 100 693 l 24 744 q 100 839 57 789 q 47 871 86 847 q -8 907 8 894 q 18 963 -1 936 q 40 987 26 975 q 60 1006 53 999 l 68 1011 q 131 969 96 994 q 133 1044 132 1010 q 169 1053 133 1044 l 204 1058 q 215 964 210 1013 q 251 1001 236 986 m 101 693 l 100 693 l 101 693 m 349 769 m 133 1044 z "},"+":{"ha":1119,"x_min":0,"x_max":1075,"o":"m 335 -258 q 357 154 331 -133 q 1 185 113 169 q 17 275 7 232 q 28 318 22 300 q 36 349 33 336 q 379 354 207 350 q 383 540 381 443 q 390 701 386 638 q 394 764 393 764 q 722 761 401 767 l 746 760 l 747 743 q 726 363 747 726 q 1046 365 1046 365 q 1055 345 1050 357 q 1067 303 1060 333 q 1072 251 1075 272 q 1063 201 1069 231 q 1051 151 1056 171 l 1046 132 q 711 139 896 133 q 671 -261 678 -140 q 533 -260 613 -258 q 418 -263 453 -262 q 335 -258 383 -264 z "},",":{"ha":406,"x_min":-8,"x_max":357,"o":"m 6 -275 q 99 -281 35 -282 q 111 -339 106 -308 q 131 -458 111 -339 q 153 -447 131 -458 q 206 -416 175 -435 q 269 -376 238 -397 q 322 -331 300 -354 q 343 -289 343 -307 q 342 -269 343 -281 q 353 64 356 -28 l 353 82 l 329 82 q 1 86 8 88 q 6 -275 -7 82 z "},"-":{"ha":503,"x_min":1,"x_max":468,"o":"m 17 321 q 222 329 133 324 q 456 335 222 329 q 459 319 457 329 q 465 283 461 308 q 467 242 468 258 q 456 143 456 143 q 185 158 311 144 q 83 171 129 164 q 19 182 38 178 l 1 186 q 8 261 4 225 q 13 296 11 281 q 17 321 15 311 z "},".":{"ha":406,"x_min":-8,"x_max":357,"o":"m 6 -275 q 88 -281 33 -281 q 203 -278 143 -281 q 342 -278 263 -275 q 353 64 356 -32 l 353 82 l 329 82 q 1 86 8 88 q 6 -275 -7 82 z "},"/":{"ha":1004,"x_min":-90,"x_max":1133,"o":"m 951 942 q 982 931 965 936 q 1014 920 999 926 q 1049 903 1029 914 q 1090 867 1068 892 q 1122 824 1111 843 q 1132 806 1133 806 l 1054 708 q 863 478 976 613 q 676 267 749 343 q 90 -317 513 94 q 0 -244 43 -283 q -42 -199 -19 -228 q -78 -150 -64 -171 l -90 -131 q 324 333 76 83 q 590 597 433 444 q 850 844 747 749 l 951 942 z "},":":{"ha":406,"x_min":-8,"x_max":372,"o":"m 21 347 q 104 341 49 340 q 219 344 160 342 q 358 344 279 347 q 369 686 372 590 l 369 704 l 344 704 q 17 707 25 710 q 21 347 8 704 m 6 -275 q 88 -281 33 -281 q 203 -278 143 -281 q 342 -278 263 -275 q 353 64 356 -32 l 353 82 l 329 82 q 1 86 8 88 q 6 -275 -7 82 z "},";":{"ha":406,"x_min":-8,"x_max":372,"o":"m 6 -275 q 99 -281 35 -282 q 111 -339 106 -308 q 131 -458 111 -339 q 153 -447 131 -458 q 206 -416 175 -435 q 269 -376 238 -397 q 322 -331 300 -354 q 343 -289 343 -307 q 342 -269 343 -281 q 353 64 356 -28 l 353 82 l 329 82 q 1 86 8 88 q 6 -275 -7 82 m 21 347 q 104 341 49 340 q 219 344 160 342 q 358 344 279 347 q 369 686 372 590 l 369 704 l 344 704 q 17 707 25 710 q 21 347 8 704 z "},"<":{"ha":921,"x_min":1,"x_max":863,"o":"m 4 313 q 1 325 1 318 q 4 335 1 332 q 256 576 99 426 q 525 831 414 726 l 636 933 q 667 923 650 928 q 699 912 683 918 q 733 894 714 906 q 774 859 753 883 q 807 816 796 835 q 817 797 818 797 q 748 730 815 797 q 579 555 681 663 q 406 365 478 447 q 607 233 493 304 q 792 122 721 163 l 861 83 q 807 -19 838 31 q 769 -67 793 -40 q 728 -111 744 -94 l 710 -128 q 4 313 260 142 z "},"=":{"ha":788,"x_min":29,"x_max":764,"o":"m 79 578 q 60 506 75 571 q 44 428 44 440 q 56 417 44 421 q 108 407 68 414 q 272 383 210 390 q 457 371 335 376 q 646 369 536 367 q 761 379 756 372 q 755 455 764 382 q 743 533 746 528 q 588 542 738 542 q 308 556 469 542 q 97 583 146 569 q 79 578 85 586 m 64 353 q 44 280 60 346 q 29 203 29 214 q 41 192 29 196 q 93 181 53 188 q 258 158 194 164 q 442 144 321 151 q 632 144 522 140 q 746 153 742 147 q 740 229 749 157 q 728 308 731 301 q 572 315 722 315 q 293 330 456 317 q 82 357 131 343 q 64 353 69 361 z "},">":{"ha":921,"x_min":-3,"x_max":858,"o":"m 856 322 q 858 335 858 328 q 856 344 858 342 q 603 586 761 436 q 335 840 446 736 l 224 943 q 193 933 210 938 q 161 922 176 928 q 126 904 146 915 q 85 869 107 893 q 53 826 64 844 q 43 807 42 807 q 112 740 44 807 q 281 565 179 672 q 454 375 382 457 q 253 243 367 314 q 68 132 139 172 l -1 93 q 53 -10 22 40 q 91 -58 67 -31 q 132 -101 115 -85 l 150 -118 q 856 322 600 151 z "},"?":{"ha":1128,"x_min":-3,"x_max":1099,"o":"m 642 178 q 485 192 568 185 q 367 201 401 199 q 332 207 333 204 q 310 393 317 229 q 313 467 310 408 q 489 558 315 468 q 719 671 663 649 q 719 688 719 681 q 717 782 719 781 q 714 782 715 782 q 523 785 708 788 q 332 779 338 783 q 333 753 331 776 q 339 694 335 729 q 344 642 343 660 q 351 599 344 633 q 358 553 357 564 q 212 500 313 532 q 60 460 111 468 q 47 457 53 460 q 17 664 36 515 q 1 818 -1 813 q 119 946 10 835 q 194 1016 142 969 q 265 1078 246 1063 q 292 1087 275 1085 q 375 1093 308 1089 q 486 1099 474 1097 q 778 1094 576 1106 l 899 1088 l 915 1075 q 1094 840 978 1022 q 1097 797 1096 824 q 1092 698 1099 769 q 1069 569 1086 626 l 631 353 q 631 348 631 351 q 632 342 632 344 q 636 287 635 328 q 639 213 638 246 q 642 178 640 179 m 322 -301 q 405 -307 350 -307 q 519 -304 460 -307 q 658 -304 579 -301 q 669 38 672 -58 l 669 56 l 646 56 q 318 60 325 61 q 322 -301 310 56 z "},"@":{"ha":2004,"x_min":-11,"x_max":1940,"o":"m 1111 194 q 1108 117 1113 119 q 929 114 1103 114 q 751 117 756 114 q 749 151 747 119 q 779 383 757 272 q 789 433 782 400 q 800 472 796 468 q 965 485 811 485 l 1081 436 l 1085 419 q 1111 194 1110 321 m 1528 -167 q 433 -142 440 -147 q 422 -110 424 -136 q 425 -14 421 -85 q 433 163 429 50 q 442 349 436 275 q 464 504 449 424 q 496 672 475 563 q 532 806 519 796 q 723 830 547 818 q 1089 838 899 842 l 1481 828 q 1500 436 1499 699 q 1499 281 1501 317 q 1489 242 1497 246 q 1426 238 1485 240 q 1426 324 1426 261 q 1426 417 1426 386 q 1422 495 1425 447 q 1414 579 1419 543 q 1400 646 1408 615 q 1394 651 1394 651 q 1338 661 1374 656 q 1221 674 1303 667 q 1089 676 1139 682 q 1085 675 1088 675 q 1085 661 1085 675 q 1084 631 1085 647 q 1082 610 1083 615 q 1076 618 1082 608 q 1063 642 1071 628 q 1045 670 1054 656 q 1028 696 1036 685 q 1015 707 1019 707 q 965 710 1010 708 q 909 710 940 711 q 874 708 878 708 q 843 706 871 708 q 797 701 815 703 q 740 694 765 699 q 699 685 715 690 q 672 676 683 681 q 653 667 660 672 q 644 658 647 661 q 638 651 640 654 q 636 647 636 647 q 622 609 635 646 q 587 508 608 572 q 547 385 565 443 q 535 324 544 372 q 521 260 525 275 q 497 126 492 138 q 594 32 504 114 q 656 -19 613 15 q 714 -65 699 -54 q 736 -73 722 -71 q 804 -76 750 -75 q 896 -81 886 -81 q 976 -83 917 -83 q 1040 -82 1035 -83 q 1046 -81 1040 -81 q 1062 -78 1051 -81 q 1083 -69 1072 -75 l 1126 -46 q 1126 -62 1125 -53 q 1131 -78 1128 -78 q 1165 -79 1132 -79 l 1589 -85 l 1615 -65 q 1785 97 1696 -6 q 1921 286 1875 200 q 1939 342 1939 318 q 1924 478 1939 365 q 1907 619 1915 546 q 1895 720 1899 693 q 1882 795 1892 747 q 1856 893 1872 843 q 1811 1028 1840 943 q 1778 1092 1790 1088 q 1344 1104 1767 1096 q 994 1103 1193 1108 q 672 1086 794 1097 q 228 1031 246 1049 q 125 707 222 1024 q 97 597 108 650 q 74 481 85 543 q 58 394 63 418 q 4 32 -10 61 q 80 -62 10 19 q 226 -226 150 -143 q 425 -414 324 -332 q 660 -440 442 -426 q 1076 -458 878 -453 q 1280 -458 1168 -461 q 1458 -450 1392 -454 l 1524 -446 q 1529 -243 1528 -306 l 1528 -167 z "},"A":{"ha":1181,"x_min":-22,"x_max":1197,"o":"m -22 -26 q 203 519 57 174 q 419 978 349 865 q 538 990 507 986 q 675 997 538 990 q 711 908 688 964 q 804 711 735 851 q 942 468 874 571 q 1074 264 1010 365 q 1167 113 1138 163 l 1197 63 q 1036 -46 1139 15 q 956 -91 990 -74 q 911 -111 922 -108 l 900 -115 q 774 144 847 -6 q 529 160 635 149 q 365 183 431 171 q 286 36 313 82 q 197 -124 197 -124 q 72 -76 96 -87 q -22 -26 -22 -26 m 679 335 q 569 579 611 475 q 439 325 507 457 q 567 331 514 328 q 679 335 610 333 z "},"B":{"ha":1028,"x_min":-3,"x_max":1007,"o":"m 0 103 q 13 425 -3 106 q 29 801 25 665 q 37 876 32 872 q 74 885 42 881 q 242 907 203 903 q 296 913 281 911 q 431 922 325 917 q 593 928 538 928 l 676 928 l 732 890 q 894 768 815 833 q 972 690 972 703 q 956 638 972 685 q 929 563 940 590 q 898 499 908 513 q 854 461 888 485 q 760 407 813 433 q 706 378 710 381 q 709 372 704 376 q 723 363 714 368 q 744 351 732 357 q 828 303 785 329 q 872 278 869 278 q 975 213 879 278 q 1007 185 1007 192 q 959 51 1006 163 q 875 -129 913 -61 l 851 -172 l 786 -175 q 447 -180 703 -179 q 113 -178 190 -181 q 6 -172 11 -174 q 0 -99 0 -169 l 0 103 m 547 19 q 574 188 568 147 q 583 246 579 225 q 589 304 586 272 l 592 338 l 565 332 q 521 322 522 322 q 313 275 414 299 q 271 267 286 269 l 256 264 l 258 126 q 264 -15 263 -11 q 389 -17 267 -18 q 529 -12 511 -15 q 542 -6 539 -10 q 547 19 544 -1 m 304 453 q 451 482 389 468 q 615 526 610 519 q 626 593 619 531 q 639 676 635 656 q 639 701 642 697 q 540 722 635 706 q 367 747 446 738 q 301 756 322 753 q 276 756 278 758 q 265 602 272 750 q 260 450 257 454 q 304 453 263 444 z "},"C":{"ha":1185,"x_min":7,"x_max":1151,"o":"m 832 181 q 829 125 829 149 q 813 22 826 82 q 588 21 813 22 q 321 26 375 26 q 317 29 318 26 q 317 35 317 32 l 317 38 q 346 349 331 240 q 366 477 351 397 q 393 611 381 557 l 404 667 q 638 686 511 681 q 758 681 764 692 q 763 619 758 656 q 776 550 767 583 q 908 549 796 553 q 1126 556 1021 544 q 1035 825 1094 690 q 968 957 976 958 q 898 958 940 957 q 736 959 856 958 q 551 957 617 960 q 414 945 475 954 q 313 926 353 936 q 261 914 272 915 q 226 903 224 908 q 100 518 169 750 q 46 307 69 414 q 15 146 22 200 q 7 78 7 92 q 69 2 7 67 q 200 -124 131 -62 q 372 -254 292 -203 q 610 -264 383 -256 q 812 -263 711 -268 q 964 -251 913 -258 l 1014 -244 q 1131 28 1089 -121 q 1144 121 1138 54 q 1151 192 1150 188 q 832 181 1089 206 z "},"D":{"ha":1144,"x_min":-3,"x_max":1097,"o":"m 1007 185 q 875 -129 957 19 l 851 -172 l 786 -175 q 447 -180 703 -179 q 113 -178 190 -181 q 6 -172 11 -174 q 0 -99 0 -169 l 0 103 q 13 425 -3 106 q 29 801 25 665 q 37 876 32 872 q 74 885 42 881 q 242 907 203 903 q 296 913 281 911 q 431 922 325 917 q 593 928 538 928 l 676 928 l 732 890 q 974 719 851 808 q 1096 619 1096 631 q 1085 544 1096 613 q 1051 367 1074 475 q 1007 185 1028 260 m 626 593 q 639 676 635 657 q 639 701 642 697 q 540 722 635 706 q 367 747 446 738 q 301 756 322 753 q 276 756 278 758 q 265 602 272 750 q 260 450 257 454 l 258 126 q 264 -15 258 -6 q 389 -17 267 -18 q 529 -12 511 -15 q 542 -6 539 -10 q 547 19 544 -1 q 574 188 568 147 q 583 246 579 225 q 586 276 583 254 q 589 304 589 297 l 626 593 z "},"E":{"ha":782,"x_min":1,"x_max":769,"o":"m 3 1108 q 1 1044 1 1079 q 4 899 1 1008 q 7 738 7 789 q 10 620 7 707 q 17 461 14 533 q 19 386 19 389 q 33 236 21 372 q 55 -19 44 100 q 67 -150 65 -139 l 74 -206 l 76 -222 l 100 -218 q 142 -212 124 -215 q 206 -201 160 -208 q 279 -190 260 -193 q 350 -179 310 -186 q 500 -156 447 -165 q 660 -125 656 -129 q 672 -43 667 -118 l 676 -6 l 496 -6 l 350 0 l 350 26 q 363 350 350 75 q 436 347 407 347 q 518 349 472 347 q 592 354 564 351 l 619 357 q 626 369 622 361 q 636 464 636 388 q 629 531 636 501 q 604 530 629 531 q 513 527 579 529 q 369 526 446 525 q 378 694 375 633 q 382 764 379 721 q 548 764 438 764 q 722 763 658 764 q 750 865 739 796 l 769 1054 q 730 1058 756 1056 q 631 1065 704 1060 q 489 1076 557 1071 q 335 1088 421 1082 q 185 1099 250 1094 q 69 1106 121 1103 q 3 1108 18 1108 z "},"F":{"ha":782,"x_min":1,"x_max":769,"o":"m 350 -179 q 279 -190 311 -186 q 206 -201 260 -193 q 142 -212 160 -208 q 100 -218 124 -215 l 76 -222 l 74 -206 l 67 -150 q 55 -19 65 -139 q 33 236 44 100 q 19 386 21 372 q 17 461 19 389 q 10 620 14 533 q 7 738 7 707 q 4 899 7 789 q 1 1044 1 1008 q 3 1108 1 1079 q 769 1054 75 1110 q 750 865 761 935 q 722 763 739 796 q 548 764 658 764 q 382 764 438 764 q 378 694 379 721 q 369 526 375 633 q 513 527 446 525 q 604 530 579 529 q 629 531 629 531 q 636 464 636 501 q 626 369 636 388 l 619 357 q 436 347 515 347 q 363 350 407 347 q 350 26 350 72 l 350 -179 z "},"G":{"ha":1265,"x_min":7,"x_max":1218,"o":"m 7 78 q 15 146 7 92 q 46 307 22 200 q 100 518 69 414 q 226 903 169 750 q 228 906 226 903 q 261 914 233 910 q 324 924 265 914 q 455 942 383 933 q 604 952 526 950 q 783 954 682 954 q 947 954 885 954 l 1010 953 q 1078 820 1019 954 q 1169 551 1136 686 q 1137 549 1157 550 q 1059 545 1117 547 q 951 544 1001 543 q 785 550 785 550 q 771 619 774 583 q 767 681 767 681 q 586 679 713 685 q 460 660 460 674 q 400 342 415 450 q 387 215 394 293 q 376 83 379 138 l 372 29 q 375 18 369 18 q 536 15 381 18 q 646 16 575 14 q 768 19 717 18 l 821 22 q 836 125 835 82 l 839 183 q 825 183 833 183 q 789 181 817 182 q 733 182 761 179 l 583 185 l 583 272 q 585 324 583 299 q 589 360 588 349 l 590 372 q 874 379 644 372 q 1063 378 976 382 q 1183 369 1149 375 l 1217 365 q 1173 24 1214 172 q 1057 -249 1132 -125 q 995 -254 1033 -251 q 838 -263 957 -257 q 625 -264 718 -269 l 372 -254 q 200 -124 292 -203 q 69 2 131 -62 q 7 78 7 67 z "},"H":{"ha":1111,"x_min":25,"x_max":1029,"o":"m 349 -185 q 310 -190 343 -185 q 238 -201 290 -193 q 174 -212 192 -208 q 132 -218 156 -215 l 108 -222 l 106 -206 l 99 -150 q 85 -19 96 -139 q 63 236 75 100 q 51 386 51 372 q 47 461 50 389 q 42 620 44 533 q 39 738 39 707 q 33 1106 25 1103 q 184 1099 46 1110 q 375 1078 322 1088 l 403 1074 l 400 1060 q 372 633 393 1019 q 367 525 369 589 q 679 528 531 525 q 672 824 674 668 q 668 1049 669 979 q 849 1047 756 1050 q 934 1044 889 1047 q 1004 1038 979 1040 l 1028 1035 q 996 129 1008 372 q 984 -69 990 21 q 974 -200 978 -160 q 971 -242 971 -240 q 953 -245 971 -244 q 889 -244 935 -246 q 818 -243 843 -243 q 756 -240 782 -243 q 724 -233 731 -236 l 715 -229 q 686 364 703 -32 q 419 357 528 357 q 358 358 393 357 q 347 21 346 74 l 349 -185 z "},"I":{"ha":394,"x_min":-7,"x_max":353,"o":"m -6 969 q 29 972 7 971 q 105 974 51 972 q 194 974 158 975 q 353 963 275 972 q 324 157 335 374 q 314 -20 319 61 q 306 -137 308 -101 q 303 -172 303 -172 q 287 -177 303 -176 q 231 -176 271 -178 q 168 -175 190 -175 q 103 -174 136 -175 q 53 -169 71 -172 l 36 -168 q 10 360 25 8 q 0 610 3 518 q -3 796 -3 701 q -6 969 -4 890 z "},"J":{"ha":1272,"x_min":18,"x_max":1240,"o":"m 43 310 q 25 210 31 243 q 18 153 18 153 q 158 0 53 111 q 286 -131 158 0 q 317 -137 296 -133 q 424 -147 339 -140 q 625 -146 508 -153 q 944 -128 881 -136 q 1086 67 1040 -18 q 1118 128 1107 104 q 1131 156 1129 151 l 1132 161 q 1151 576 1144 468 q 1157 772 1157 657 l 1239 775 q 1231 914 1235 872 l 1221 1019 q 1130 1015 1203 1018 q 953 1006 1057 1013 l 697 990 q 696 875 697 922 l 697 763 l 768 763 q 822 764 781 763 q 806 375 828 508 q 781 246 794 303 q 761 168 768 189 l 754 147 q 494 118 638 126 q 310 115 351 110 q 315 229 313 183 q 318 322 318 322 q 139 315 194 319 q 84 312 108 313 q 43 310 60 311 z "},"K":{"ha":1031,"x_min":22,"x_max":1054,"o":"m 438 507 m 294 465 q 278 714 282 583 q 276 917 275 844 q 278 990 276 990 q 222 988 269 990 q 133 979 175 985 l 22 961 l 22 664 q 32 396 22 586 q 51 54 42 206 l 61 -97 q 192 -122 117 -111 q 285 -130 225 -128 q 388 -132 344 -132 l 431 -132 q 339 196 419 -118 q 326 263 336 210 q 376 331 349 292 q 424 253 386 314 q 482 158 463 193 q 635 -114 606 -65 l 643 -129 l 764 -126 q 1039 -111 996 -121 l 1053 -108 l 975 -31 q 613 321 749 193 q 578 351 599 332 q 545 383 558 369 q 525 401 532 396 q 476 457 515 411 q 505 485 482 461 q 540 522 528 508 q 886 890 671 656 l 961 971 l 946 974 q 671 975 903 981 l 550 972 l 542 957 q 403 676 515 907 q 294 465 396 663 z "},"L":{"ha":700,"x_min":-7,"x_max":676,"o":"m 19 386 q 33 236 21 372 q 55 -19 44 100 q 67 -150 65 -139 l 74 -206 l 76 -222 l 100 -218 q 142 -212 124 -215 q 206 -201 160 -208 q 279 -190 260 -193 q 350 -179 310 -186 q 500 -156 447 -165 q 660 -125 656 -129 q 672 -43 667 -118 l 676 -6 l 496 -6 l 315 -6 l 315 21 q 340 633 317 186 q 369 1060 363 1019 l 371 1074 l 344 1078 q 152 1099 290 1088 q 3 1106 14 1110 q 7 738 -6 1103 q 10 620 7 707 q 17 461 14 533 q 19 386 19 389 z "},"M":{"ha":1375,"x_min":-15,"x_max":1324,"o":"m 479 390 l 642 172 q 668 214 654 190 q 697 258 682 238 q 735 307 711 278 q 814 397 767 343 q 879 471 861 450 q 915 136 886 300 q 971 -192 971 -192 q 1033 -190 1000 -190 q 1081 -188 1065 -189 q 1119 -186 1096 -187 q 1168 -182 1142 -185 q 1234 -172 1196 -179 q 1297 -158 1272 -164 l 1322 -151 q 1254 418 1275 288 q 1189 935 1211 681 q 1006 933 1042 935 q 774 936 990 933 q 750 901 765 924 q 724 863 735 878 q 708 839 714 847 q 596 678 704 832 q 569 717 586 692 q 536 768 553 742 q 508 810 524 788 q 471 863 493 832 q 435 913 449 894 q 303 919 331 919 q 210 917 274 919 q 124 915 147 915 q 100 783 111 839 q 76 641 89 726 q 38 361 63 556 q 0 -222 -15 -72 q 163 -243 3 -222 q 234 -244 188 -244 q 326 -242 281 -243 l 372 -240 q 422 118 418 93 q 444 233 431 165 q 469 346 458 301 l 479 390 z "},"N":{"ha":1222,"x_min":1,"x_max":1151,"o":"m 390 -214 q 350 135 361 24 q 324 501 350 135 q 582 103 522 197 q 781 -204 582 103 q 954 -211 878 -211 q 1119 -206 954 -211 q 1149 439 1149 264 q 1151 951 1149 439 q 896 972 933 972 q 765 975 896 972 q 761 638 761 724 q 774 357 761 638 q 517 701 607 583 q 324 965 517 701 q 154 956 196 961 q 3 936 154 956 q 25 261 19 399 q 36 88 28 200 q 53 -106 44 -24 l 60 -186 q 229 -206 201 -204 q 390 -214 250 -208 z "},"O":{"ha":1004,"x_min":1,"x_max":954,"o":"m 954 453 l 951 367 q 921 96 947 222 q 864 -108 910 46 q 847 -147 861 -121 l 836 -171 l 747 -174 q 476 -176 668 -176 q 233 -174 285 -176 q 145 -163 203 -172 q 89 -150 88 -154 l 38 97 q 11 297 25 153 q 4 503 7 344 l 1 660 l 15 700 q 56 797 26 733 q 96 872 86 860 q 140 886 104 882 q 491 901 290 903 q 815 882 692 900 q 865 840 838 879 q 913 743 892 800 q 924 708 924 711 q 924 703 924 708 q 927 688 925 699 q 931 662 929 676 q 936 626 933 647 q 942 579 939 604 q 948 522 944 554 q 954 453 951 489 m 476 46 q 570 46 476 46 q 672 51 665 46 q 688 143 679 57 q 697 403 697 229 q 689 626 697 578 l 682 676 l 658 679 q 476 682 635 682 q 288 679 318 682 l 257 676 l 253 644 q 247 418 243 588 q 264 156 251 249 q 282 51 278 57 q 476 46 286 46 z "},"P":{"ha":1143,"x_min":-6,"x_max":1099,"o":"m 572 279 q 821 296 724 288 q 932 306 857 299 l 997 311 l 1019 332 q 1071 390 1044 356 q 1097 432 1097 424 q 1053 617 1097 454 q 985 813 1035 679 q 926 956 936 946 q 865 956 924 958 q 746 946 807 953 q 701 941 738 944 q 646 935 665 938 q 389 901 546 924 q 144 864 260 883 q 24 843 38 844 q 1 836 6 839 q 11 484 -6 829 q 44 -68 28 139 q 53 -175 51 -150 q 60 -233 57 -231 q 103 -242 64 -236 q 313 -260 306 -268 q 313 -256 314 -258 q 306 -231 310 -250 q 294 -187 301 -212 q 224 100 258 -53 q 193 258 189 253 q 280 263 194 258 q 461 273 365 268 q 572 279 557 278 m 294 433 q 283 433 290 433 q 228 430 236 429 q 219 442 219 431 q 219 443 219 443 q 215 481 219 458 q 207 586 211 504 q 200 700 203 665 l 197 731 l 286 731 q 483 723 357 731 q 613 711 608 715 q 615 586 615 708 q 613 461 615 464 q 565 454 610 458 q 433 444 536 453 q 294 433 379 440 z "},"Q":{"ha":1004,"x_min":1,"x_max":1096,"o":"m 954 453 l 951 367 q 921 96 947 222 q 903 25 917 78 q 978 -33 956 -15 q 1096 -122 978 -33 q 965 -247 1010 -214 q 851 -325 965 -247 q 717 -175 783 -249 q 450 -176 619 -176 q 233 -174 281 -176 q 145 -163 203 -172 q 89 -150 88 -154 l 38 97 q 11 297 25 153 q 4 503 7 344 l 1 660 l 15 700 q 56 797 26 733 q 96 872 86 860 q 140 886 104 882 q 491 901 290 903 q 815 882 692 900 q 865 840 838 879 q 913 743 892 800 q 924 708 924 711 q 924 703 924 708 q 927 688 925 699 q 931 662 929 676 q 936 626 933 647 q 942 579 939 604 q 948 522 944 554 q 954 453 951 489 m 460 154 q 519 217 488 183 q 583 275 551 250 q 693 189 631 238 q 697 403 697 247 q 689 626 697 578 l 682 676 l 658 679 q 476 682 635 682 q 288 679 318 682 l 257 676 l 253 644 q 247 418 243 588 q 264 156 251 249 q 282 51 278 57 q 475 46 286 46 q 532 46 507 46 q 460 154 460 154 z "},"R":{"ha":1143,"x_min":-6,"x_max":1099,"o":"m 488 6 q 367 221 393 175 l 342 264 l 269 263 q 193 258 196 261 q 224 100 189 253 q 294 -187 258 -53 q 306 -231 301 -212 q 313 -256 310 -250 q 306 -262 314 -261 q 103 -242 286 -265 q 60 -233 64 -236 q 53 -175 57 -231 q 44 -68 51 -150 q 11 484 28 139 q 1 836 -6 829 q 24 843 6 839 q 144 864 38 844 q 389 901 260 883 q 646 935 546 924 q 701 941 665 938 q 746 946 738 944 q 865 956 807 953 q 926 956 924 958 q 985 813 936 946 q 1053 617 1035 679 q 1097 432 1097 454 q 1071 390 1097 424 q 1019 332 1044 356 l 997 311 l 932 306 q 821 296 857 299 q 572 279 760 290 q 513 274 517 276 q 513 269 511 272 q 520 260 515 265 q 532 247 525 254 q 551 229 538 242 q 585 198 565 217 q 618 167 604 179 q 981 -183 754 39 l 1060 -261 l 1046 -264 q 769 -279 1003 -274 l 650 -282 l 640 -267 q 488 6 611 -218 m 294 433 q 433 444 379 440 q 565 454 536 453 q 613 461 610 458 q 615 586 615 464 q 613 711 615 708 q 483 723 608 715 q 286 731 357 731 l 197 731 l 200 700 q 207 586 203 665 q 215 481 211 504 q 219 443 219 458 q 219 442 219 443 q 228 430 219 431 q 283 433 236 429 q 294 433 290 433 z "},"S":{"ha":1249,"x_min":1,"x_max":1193,"o":"m 776 696 l 607 688 q 404 674 419 679 q 403 655 404 668 q 402 635 403 642 q 403 628 401 629 q 470 592 428 613 q 583 537 513 571 q 704 478 654 503 q 985 331 835 413 q 1185 221 1135 250 q 1183 89 1192 108 q 1080 -56 1157 29 q 933 -203 1003 -140 l 917 -217 l 785 -225 q 551 -233 699 -231 q 358 -235 403 -236 q 269 -228 288 -231 q 240 -217 250 -225 q 129 -114 183 -171 q 7 94 81 -60 q 18 197 3 106 q 252 196 121 199 q 385 186 383 193 q 385 181 385 185 q 381 121 382 146 q 379 82 379 93 q 378 67 378 67 q 381 67 379 67 q 385 60 382 61 q 599 53 392 54 q 813 57 806 51 q 815 56 814 57 l 815 57 q 814 136 814 81 q 667 205 792 149 q 468 299 542 261 q 75 503 272 394 q 126 692 97 593 q 172 849 154 792 q 190 908 189 906 q 438 943 197 918 q 868 957 629 963 q 1008 950 1001 953 q 1042 881 1015 947 q 1142 551 1108 707 q 1121 547 1132 550 q 794 544 1083 539 q 794 547 794 546 q 796 593 796 578 l 776 696 z "},"T":{"ha":1278,"x_min":17,"x_max":1233,"o":"m 788 -232 q 738 -237 782 -232 q 639 -247 711 -240 q 551 -257 576 -253 q 496 -264 528 -261 l 464 -267 l 461 -250 l 454 -194 q 441 -64 451 -183 q 419 192 431 56 q 407 342 407 328 q 403 416 406 344 q 397 574 400 488 q 394 693 394 661 q 392 785 392 736 q 319 783 346 783 l 31 781 q 17 1036 17 969 l 17 1103 q 761 1094 436 1100 l 1231 1083 q 1228 958 1233 1011 l 1208 817 q 843 800 1038 808 q 821 536 832 682 q 799 206 811 410 q 786 -39 786 1 l 788 -232 z "},"U":{"ha":1004,"x_min":4,"x_max":964,"o":"m 633 78 q 651 286 646 82 q 647 653 656 490 q 642 787 643 751 q 641 822 640 822 q 642 865 642 822 q 675 869 656 867 q 705 872 694 871 q 749 868 715 872 q 816 863 767 865 q 922 849 865 861 q 937 688 925 774 q 956 547 949 603 q 964 406 964 492 q 950 224 964 319 q 931 113 942 167 q 911 19 921 60 q 891 -58 901 -22 q 873 -119 881 -94 q 858 -162 865 -144 q 847 -189 851 -181 l 844 -199 l 428 -199 q 237 -190 343 -199 q 103 -179 131 -181 q 71 -51 90 -115 q 38 86 51 14 q 14 290 24 158 q 7 472 4 386 q 16 599 10 558 q 31 711 22 640 q 44 849 40 782 q 148 861 107 857 q 215 867 189 865 q 244 868 242 868 q 281 869 247 869 q 321 868 314 868 q 310 766 318 829 q 299 659 303 703 q 294 585 294 615 q 298 479 296 565 q 302 322 300 393 q 306 228 304 250 q 322 75 315 124 q 387 72 335 75 q 469 71 439 69 q 528 72 488 71 q 597 74 569 74 q 633 78 625 75 z "},"V":{"ha":1253,"x_min":0,"x_max":1211,"o":"m 292 951 q 131 851 219 915 q 0 743 42 788 q 289 256 142 511 q 514 -194 436 0 q 631 -204 578 -201 q 685 -204 654 -206 q 736 -200 717 -203 l 756 -199 q 1025 372 906 81 q 1211 872 1144 664 q 1108 906 1144 894 l 975 940 q 792 540 864 663 q 606 238 606 238 q 386 757 447 611 q 344 851 358 822 q 317 903 331 881 q 292 951 304 925 z "},"W":{"ha":1389,"x_min":21,"x_max":1331,"o":"m 21 981 q 186 1000 110 994 q 354 1006 186 1000 q 431 640 424 686 q 479 343 479 343 q 607 533 581 486 q 685 676 607 533 q 800 511 763 571 q 889 367 889 367 q 1015 683 957 539 q 1113 976 1074 828 q 1251 946 1190 971 q 1331 914 1331 914 q 1249 563 1294 782 q 1143 118 1192 290 q 1111 17 1111 17 q 892 15 1111 17 q 771 26 892 15 q 721 143 746 68 q 682 258 721 143 q 569 40 592 71 q 529 -12 529 -12 q 401 -21 485 -17 q 279 -18 318 -25 q 119 639 160 514 q 63 829 96 711 q 21 981 31 947 z "},"X":{"ha":1528,"x_min":-3,"x_max":1485,"o":"m 1036 -206 q 650 68 818 -58 q 593 107 597 107 q 515 2 585 107 q 410 -167 444 -103 q 390 -201 394 -194 q 382 -207 386 -207 q 291 -172 369 -207 q 171 -112 213 -136 q 99 -67 144 -97 q 50 -32 54 -37 q 96 38 44 -26 q 290 272 196 163 q 324 316 324 311 q 296 344 324 321 q 190 433 275 361 q 81 526 106 504 q 0 604 1 596 q 101 657 -3 614 q 319 735 206 700 l 338 740 l 357 718 q 493 576 417 650 l 531 540 l 636 646 q 853 849 751 760 q 968 938 954 938 q 1117 900 990 938 q 1286 846 1244 863 q 1308 836 1299 839 q 1318 830 1318 833 q 1281 800 1318 826 q 1011 581 1132 693 q 864 435 938 513 q 790 350 790 358 q 951 250 790 336 q 1239 110 1113 164 q 1297 83 1276 93 q 1324 72 1322 72 q 1340 66 1326 72 q 1418 35 1354 60 q 1483 4 1482 8 q 1435 -47 1485 1 q 1328 -143 1385 -94 q 1223 -229 1289 -178 q 1152 -281 1157 -281 q 1036 -206 1147 -281 z "},"Y":{"ha":1364,"x_min":4,"x_max":1322,"o":"m 340 765 q 429 667 361 733 q 533 565 533 565 q 689 718 551 582 q 969 963 826 854 q 978 961 971 963 q 1039 946 986 960 q 1159 913 1092 932 q 1249 885 1226 894 q 1275 873 1261 879 q 1297 864 1289 867 q 1312 858 1306 861 q 1320 854 1318 856 q 1321 851 1322 853 q 1267 813 1315 849 q 1139 712 1218 776 q 1001 592 1060 647 q 867 472 943 536 q 744 372 792 408 l 699 336 q 728 85 719 165 q 760 -229 760 -224 l 760 -231 q 747 -244 763 -243 q 565 -247 676 -250 l 390 -243 q 388 -12 396 -204 l 381 311 q 213 440 251 401 l 4 626 q 340 765 211 713 z "},"Z":{"ha":1200,"x_min":17,"x_max":1125,"o":"m 1125 -50 q 567 -68 922 -65 q 33 -65 210 -71 q 17 111 18 44 q 22 264 17 111 q 547 568 378 458 q 771 707 547 568 q 774 739 774 722 q 772 768 774 739 q 549 769 667 768 q 386 771 386 771 q 389 707 389 738 l 389 656 q 211 650 279 650 l 85 650 q 65 869 71 782 q 61 1003 61 1003 q 531 1019 200 1017 q 812 1018 678 1021 q 1007 1013 946 1015 l 1068 1010 q 1061 728 1064 797 l 1056 625 q 721 444 858 524 q 392 258 392 258 q 389 221 389 228 l 389 200 q 568 190 433 192 l 776 192 q 778 250 778 228 q 775 300 778 250 q 944 307 850 307 q 1114 301 944 307 q 1125 97 1121 186 q 1125 -50 1125 97 z "},"[":{"ha":504,"x_min":3,"x_max":479,"o":"m 478 -251 q 296 -246 300 -251 q 278 -142 292 -240 q 255 417 265 -49 q 254 940 244 883 l 258 972 l 289 975 q 465 978 317 978 l 465 1197 q 142 1182 279 1197 q 97 1168 106 1178 q 58 1092 88 1156 q 17 996 28 1029 l 3 956 l 6 799 q 15 367 7 715 q 25 0 24 18 q 51 -200 39 -146 l 103 -447 q 159 -460 101 -451 q 249 -471 217 -469 q 478 -474 297 -474 l 478 -251 z "},"\\":{"ha":1004,"x_min":-94,"x_max":1129,"o":"m 947 -210 q 978 -199 961 -204 q 1010 -188 994 -194 q 1044 -171 1025 -182 q 1085 -135 1064 -160 q 1118 -92 1107 -111 q 1128 -74 1129 -74 l 1050 22 q 858 254 972 119 q 672 465 744 389 q 86 1049 508 638 q -4 976 39 1015 q -46 931 -24 960 q -81 883 -68 903 l -94 863 q 319 399 72 649 q 586 135 429 288 q 844 -114 743 -17 l 947 -210 z "},"]":{"ha":485,"x_min":-17,"x_max":436,"o":"m 167 -246 q 183 -154 174 -240 q 185 67 186 -67 q 182 428 185 200 q 179 700 179 656 q 171 924 179 874 l 164 972 l 140 975 q -17 978 119 978 l -17 1197 q 297 1179 178 1196 q 347 1135 319 1175 q 394 1039 374 1096 q 406 1006 406 1008 q 406 999 406 1004 q 409 984 407 994 q 413 958 411 974 q 418 922 415 943 q 424 875 421 900 q 430 817 426 850 q 436 749 433 785 l 433 663 q 432 426 433 639 q 427 26 431 214 q 415 -201 424 -162 q 358 -406 404 -253 q 342 -444 356 -418 l 331 -468 l 242 -471 q -4 -474 169 -474 l -4 -251 q 167 -246 160 -251 z "},"_":{"ha":1154,"x_min":-6,"x_max":1069,"o":"m 47 -92 q 19 -156 42 -99 q -4 -222 -4 -212 q 14 -231 -4 -228 q 92 -240 32 -235 q 611 -272 328 -264 q 894 -274 731 -276 q 1065 -265 1058 -271 q 1056 -199 1069 -262 q 1038 -131 1043 -136 q 807 -124 1031 -124 q 388 -112 631 -124 q 74 -87 146 -100 q 47 -92 56 -85 z "},"`":{"ha":1154,"x_min":374,"x_max":667,"o":"m 501 813 q 585 828 524 807 q 632 851 611 838 q 660 872 653 864 l 665 881 q 575 1004 590 986 q 521 1069 521 1069 q 421 1047 451 1058 l 374 1025 q 444 892 397 958 q 469 855 460 868 q 482 838 479 842 q 490 828 485 835 q 501 813 494 822 z "},"a":{"ha":1154,"x_min":-6,"x_max":1140,"o":"m 1119 -161 q 1110 -174 1118 -168 l 782 -167 q 781 -168 781 -167 q 775 -167 781 -168 q 769 -147 771 -167 l 769 -128 q 717 -157 747 -143 q 690 -166 703 -162 q 671 -169 678 -169 l 664 -171 q 585 -173 657 -174 q 489 -171 513 -172 q 376 -165 476 -169 q 294 -160 311 -162 q 268 -151 276 -158 q 195 -95 247 -137 q 121 -32 143 -53 q 3 86 11 71 q 32 250 -4 99 q 48 329 36 269 q 64 404 60 389 q 111 556 85 476 q 153 682 138 636 q 172 729 169 728 q 174 733 172 729 q 181 742 176 738 q 192 752 185 746 q 215 765 200 758 q 249 776 229 771 q 299 788 268 782 q 368 796 329 793 q 424 801 390 797 q 462 806 457 806 q 504 807 467 806 q 574 806 542 808 q 635 803 628 804 q 645 794 639 801 q 658 776 651 788 q 674 752 665 765 q 689 726 682 739 q 702 703 696 714 q 711 688 708 693 l 715 682 q 717 709 717 689 q 719 746 718 729 q 719 763 719 763 q 724 764 722 764 q 1097 733 860 781 q 1103 728 1103 729 q 1124 606 1117 678 q 1133 482 1132 535 q 1135 329 1135 429 q 1136 189 1135 229 q 1139 8 1140 88 q 1119 -161 1138 -72 m 530 46 q 649 46 530 46 q 774 50 768 46 q 779 157 781 54 q 771 325 778 263 q 743 465 764 388 l 738 489 l 579 556 q 353 539 368 556 q 338 485 347 533 q 324 417 329 439 q 299 260 313 361 q 283 99 286 158 q 286 50 281 54 q 530 46 292 46 z "},"b":{"ha":883,"x_min":-3,"x_max":858,"o":"m 538 33 q 571 236 569 231 q 579 294 576 272 q 586 353 583 321 l 589 386 l 561 379 q 546 376 556 379 q 528 372 536 374 q 517 369 521 371 q 421 355 506 368 q 319 339 336 342 q 276 329 292 332 l 261 326 l 258 126 q 260 58 258 92 q 263 5 261 24 q 264 -15 264 -14 q 383 -10 267 -18 q 519 1 500 -1 q 532 8 529 4 q 538 33 535 13 m 858 454 q 826 191 858 401 q 761 -108 793 -19 l 738 -175 l 674 -179 q 392 -183 572 -183 q 113 -178 211 -182 q 6 -172 13 -174 q 0 -99 0 -169 l 0 103 q 13 425 -3 106 q 38 738 17 506 q 61 1003 60 969 q 68 1077 64 1072 q 104 1086 72 1082 q 274 1108 233 1104 q 322 1104 307 1111 q 325 1092 326 1101 q 300 893 314 1015 q 277 683 286 771 q 268 592 268 594 q 311 588 271 579 q 380 603 319 589 q 509 631 440 618 q 635 649 578 644 q 666 629 640 649 q 723 581 692 610 q 785 523 754 551 q 838 475 817 494 l 858 454 z "},"c":{"ha":1154,"x_min":-6,"x_max":1110,"o":"m 1093 235 q 1100 183 1099 199 q 1110 100 1110 114 q 1099 65 1110 86 q 1019 -49 1072 14 q 918 -149 965 -112 l 903 -161 l 782 -167 q 489 -171 578 -178 q 376 -165 476 -169 q 294 -160 311 -162 q 268 -151 276 -158 q 195 -95 247 -137 q 121 -32 143 -53 q 3 86 11 71 q 32 250 -4 99 q 48 329 36 269 q 64 404 60 389 q 111 556 85 476 q 153 682 138 636 q 172 729 169 728 q 399 756 178 736 q 796 768 576 772 q 924 763 918 765 q 956 707 931 760 q 988 623 968 678 q 1022 529 1008 568 l 1036 489 q 888 464 967 471 q 754 456 754 456 q 738 532 744 508 l 732 556 l 614 556 q 439 550 519 556 q 353 539 358 544 q 338 485 347 533 q 324 417 329 439 q 299 260 313 361 q 283 99 286 158 q 286 50 281 54 q 530 46 292 46 q 774 50 768 46 q 779 157 781 54 q 776 231 776 231 q 892 243 794 233 q 987 245 942 247 q 1063 239 1032 243 l 1093 235 z "},"d":{"ha":883,"x_min":8,"x_max":869,"o":"m 329 13 q 296 215 297 208 q 288 272 292 251 q 281 332 283 299 l 278 364 l 306 358 q 321 355 311 357 q 338 351 331 353 q 350 349 346 350 q 447 333 361 346 q 549 317 532 321 q 590 308 575 311 l 606 306 l 608 106 q 608 36 608 71 q 606 -17 607 1 q 603 -37 604 -36 q 484 -32 601 -40 q 347 -19 367 -24 q 336 -13 339 -18 q 329 13 333 -8 m 8 433 q 42 170 10 381 q 106 -131 74 -40 l 129 -196 l 193 -200 q 476 -204 294 -206 q 756 -199 657 -203 q 861 -193 856 -196 q 867 -119 867 -190 l 867 82 q 854 404 869 85 q 853 719 850 482 q 854 983 856 956 q 847 1058 851 1053 q 811 1067 843 1063 q 642 1088 682 1083 q 592 1085 608 1092 q 589 1072 588 1082 q 603 872 600 997 q 603 663 606 747 q 599 569 600 578 q 556 565 596 558 q 488 582 549 567 q 358 610 428 597 q 232 628 289 624 q 201 608 226 628 q 144 559 176 588 q 82 502 113 531 q 30 453 51 474 q 8 433 8 433 z "},"e":{"ha":1154,"x_min":-6,"x_max":1110,"o":"m 758 424 l 756 449 q 738 532 747 496 l 732 556 l 614 556 q 439 550 519 556 q 353 539 358 544 q 338 485 347 533 q 324 417 332 454 q 308 346 308 346 q 528 385 394 365 l 758 424 m 1067 365 q 1064 358 1067 363 q 1047 341 1061 354 q 1008 317 1032 328 q 931 292 983 306 q 811 271 879 279 q 573 233 703 257 q 367 193 443 210 l 292 176 l 290 172 q 283 99 285 115 q 286 50 281 54 q 530 46 292 46 q 774 50 768 46 q 779 140 781 54 q 940 162 779 143 q 1100 183 1100 181 q 1110 100 1110 114 q 1099 65 1110 86 q 1019 -49 1072 14 q 918 -149 965 -112 l 903 -161 l 782 -167 q 489 -171 578 -178 q 376 -165 476 -169 q 294 -160 311 -162 q 268 -151 276 -158 q 195 -95 247 -137 q 121 -32 143 -53 q 3 86 11 71 q 32 250 -4 99 q 48 329 36 269 q 64 404 60 389 q 111 556 85 476 q 153 682 138 636 q 172 729 169 728 q 399 756 178 736 q 796 768 576 772 q 924 763 918 765 q 956 707 931 760 q 1067 365 1003 601 z "},"f":{"ha":950,"x_min":7,"x_max":900,"o":"m 582 758 q 717 757 625 758 q 853 756 810 756 q 881 858 869 789 l 900 1047 q 780 1055 853 1050 q 571 1068 707 1060 q 403 1075 435 1076 q 384 1069 400 1075 q 343 1047 368 1063 q 296 1008 318 1031 q 258 950 274 986 q 242 872 242 914 q 251 504 243 697 q 112 504 176 503 q 37 506 47 506 q 14 506 26 506 q 7 439 7 476 q 17 344 7 363 l 24 332 q 207 321 128 321 q 261 322 257 321 q 304 -164 299 -129 l 311 -219 l 314 -236 l 338 -233 q 360 -228 350 -231 q 396 -222 371 -226 q 438 -215 426 -217 q 476 -208 454 -212 l 481 19 q 483 80 481 25 q 488 206 485 135 q 493 343 490 278 q 567 340 538 340 q 649 342 603 340 q 722 347 694 344 l 750 350 q 757 363 753 354 q 767 457 767 381 q 760 524 767 494 q 735 523 760 524 q 643 520 710 522 q 500 519 576 518 q 508 688 506 626 q 537 731 510 703 q 582 758 564 760 z "},"g":{"ha":1036,"x_min":-3,"x_max":1000,"o":"m 976 -572 q 996 -146 993 -449 q 993 403 999 157 q 982 654 988 649 q 960 661 978 657 q 917 663 956 661 q 826 668 878 665 q 753 674 775 671 q 725 675 735 674 q 714 624 722 619 q 649 681 710 629 q 506 686 610 682 q 424 690 460 688 q 367 692 388 692 q 311 694 346 693 q 274 696 292 694 q 247 697 256 697 q 144 685 154 697 q 92 495 136 674 q 38 250 49 317 q 13 61 10 83 q 57 -94 14 39 q 122 -244 100 -228 l 147 -264 l 167 -260 q 194 -256 181 -257 q 223 -256 207 -256 q 247 -257 239 -257 q 456 -249 383 -254 q 535 -244 474 -246 q 649 -240 596 -242 q 701 -240 701 -239 q 703 -253 700 -242 q 711 -307 707 -265 q 714 -412 715 -349 q 554 -439 618 -435 l 332 -453 q 275 -360 288 -376 q 226 -308 226 -308 q 85 -365 128 -343 l -3 -414 q 104 -608 21 -474 q 158 -664 114 -624 q 217 -703 203 -704 q 257 -696 222 -701 q 333 -684 292 -690 q 406 -676 375 -678 q 581 -648 438 -674 q 850 -597 724 -622 l 976 -572 m 654 -69 q 514 -72 614 -71 q 447 -75 513 -72 q 399 -74 403 -76 q 373 196 396 -71 q 353 465 350 463 q 399 469 356 468 q 506 471 442 469 q 610 476 571 472 l 717 413 l 717 381 q 717 364 717 374 q 719 336 718 354 q 721 300 721 318 q 725 131 722 267 q 728 -14 728 -4 q 728 -51 726 -37 q 722 -66 729 -64 q 654 -69 714 -68 z "},"h":{"ha":1217,"x_min":-7,"x_max":1071,"o":"m 317 -185 q 279 -190 313 -185 q 206 -201 260 -193 q 142 -212 160 -208 q 100 -218 124 -215 l 76 -222 l 74 -206 l 67 -150 q 55 -19 65 -139 q 33 236 44 100 q 19 386 21 372 q 17 461 19 389 q 10 620 14 533 q 7 738 7 707 q 3 1106 -6 1103 q 152 1099 14 1110 q 344 1078 290 1088 l 371 1074 l 369 1060 q 349 767 364 1032 q 500 782 492 782 q 569 783 532 785 q 612 782 607 782 q 650 778 617 782 q 706 772 683 774 q 775 764 744 769 q 825 753 806 758 q 859 741 844 747 q 881 728 874 735 q 893 718 889 722 q 899 710 897 714 q 901 706 901 706 q 920 658 904 704 q 963 533 936 613 q 1010 381 989 453 q 1028 306 1019 347 q 1053 174 1038 264 q 1066 -12 1069 83 q 1036 -179 1063 -107 q 1028 -185 1035 -183 q 982 -190 1004 -189 q 928 -192 960 -192 q 883 -192 897 -192 q 824 -190 868 -192 q 768 -187 779 -187 q 758 -179 760 -187 q 724 101 753 -158 q 688 396 694 360 q 674 464 679 433 q 658 518 664 513 q 582 533 650 526 q 494 532 514 539 l 336 465 l 332 449 q 315 21 315 86 l 317 -185 z "},"i":{"ha":428,"x_min":-3,"x_max":406,"o":"m -3 1056 q 38 1057 13 1056 q 123 1060 63 1058 q 224 1060 183 1061 q 310 1056 265 1060 q 381 1050 356 1053 l 404 1047 q 397 825 401 954 q 333 835 394 825 q 215 843 272 844 q 1 826 114 840 q -3 1056 -1 969 m 1 754 q 192 775 106 769 q 396 763 258 779 q 372 142 381 310 q 360 -57 367 33 q 351 -187 354 -147 q 347 -228 347 -228 q 329 -233 347 -232 q 265 -232 311 -233 q 194 -231 219 -231 q 122 -229 160 -231 q 64 -225 85 -228 l 44 -224 q 15 369 32 -25 q 1 754 4 606 z "},"j":{"ha":428,"x_min":-582,"x_max":406,"o":"m -3 1056 q 38 1057 13 1056 q 123 1060 63 1058 q 224 1060 183 1061 q 310 1056 265 1060 q 381 1050 356 1053 l 404 1047 q 397 825 401 954 q 333 835 394 825 q 215 843 272 844 q 1 826 114 840 q -3 1056 -1 969 m 372 142 q 396 763 389 553 q 192 775 258 779 q 1 754 100 769 l 6 -132 q -78 -392 -21 -293 q -181 -408 -144 -404 q -237 -413 -210 -412 q -278 -414 -265 -414 l -290 -412 q -285 -299 -287 -344 q -282 -206 -282 -206 q -461 -212 -406 -208 q -516 -216 -492 -215 q -557 -218 -540 -217 q -575 -318 -569 -285 q -582 -375 -582 -375 q -442 -528 -547 -417 l -314 -658 q -35 -618 -132 -642 q 211 -546 63 -594 q 234 -503 217 -535 q 261 -456 251 -472 l 350 -269 l 372 142 z "},"k":{"ha":1031,"x_min":22,"x_max":1054,"o":"m 294 463 q 278 713 282 581 q 276 917 274 844 l 278 990 q 222 988 269 990 q 133 979 175 985 l 22 961 l 22 664 q 32 396 22 586 q 51 54 42 206 l 61 -97 q 192 -122 117 -111 q 285 -130 225 -128 q 388 -132 344 -132 l 431 -132 q 339 196 419 -118 q 331 238 336 206 q 394 301 368 275 q 482 158 474 174 q 635 -114 606 -65 l 643 -129 l 764 -126 q 1039 -111 996 -121 l 1053 -108 l 975 -31 q 613 321 749 193 q 578 351 599 332 q 545 383 558 369 q 525 401 532 396 q 521 406 524 403 q 825 653 633 493 l 896 713 l 886 717 q 671 758 853 729 l 578 774 l 569 761 q 414 540 539 722 q 307 388 401 521 q 294 463 296 451 m 438 507 z "},"l":{"ha":417,"x_min":-7,"x_max":372,"o":"m 317 -185 q 279 -190 313 -185 q 206 -201 260 -193 q 142 -212 160 -208 q 100 -218 124 -215 l 76 -222 l 74 -206 l 67 -150 q 55 -19 65 -139 q 33 236 44 100 q 19 386 21 372 q 17 461 19 389 q 10 620 14 533 q 7 738 7 707 q 3 1106 -6 1103 q 152 1099 14 1110 q 344 1078 290 1088 l 371 1074 l 369 1060 q 340 633 363 1019 q 315 21 315 150 l 317 -185 z "},"m":{"ha":1649,"x_min":28,"x_max":1604,"o":"m 378 -179 q 376 -190 378 -183 q 374 -203 374 -197 q 368 -222 372 -222 q 363 -222 363 -224 q 361 -222 363 -222 l 58 -229 q 49 -217 50 -224 q 29 -48 31 -128 q 32 133 28 32 q 33 274 33 174 q 35 426 33 374 q 44 551 36 479 q 65 672 51 622 q 71 678 71 678 q 140 691 97 683 q 283 707 183 699 q 444 708 383 715 q 449 707 446 708 q 449 690 449 707 q 451 653 450 674 q 453 626 451 633 l 456 632 q 466 648 460 638 q 479 671 472 658 q 494 697 486 683 q 510 721 503 710 q 523 739 517 732 q 533 747 529 746 q 594 750 561 754 q 642 747 633 746 q 700 742 651 747 q 767 732 738 738 q 815 721 797 726 q 844 710 832 715 q 860 698 856 704 q 867 688 865 692 q 870 680 869 683 q 871 675 871 676 q 894 636 882 664 q 961 736 953 735 q 1022 739 968 739 q 1090 740 1053 742 q 1133 739 1128 739 q 1171 735 1138 739 q 1228 729 1204 732 q 1469 703 1465 708 q 1488 656 1472 701 q 1531 530 1504 610 q 1578 378 1557 450 q 1594 258 1585 353 q 1597 18 1603 164 q 1558 -222 1592 -128 q 1550 -228 1556 -226 q 1504 -233 1526 -231 q 1451 -235 1482 -235 q 1405 -234 1419 -235 q 1346 -232 1390 -233 q 1290 -231 1301 -231 q 1281 -222 1282 -231 q 1246 58 1275 -201 q 1208 353 1217 317 q 1196 421 1201 392 q 1181 475 1186 471 q 1104 490 1172 483 q 1017 489 1036 497 l 950 461 q 952 418 950 461 q 955 344 954 375 q 957 254 956 313 q 958 142 958 196 q 956 26 957 89 q 949 -99 954 -36 q 936 -221 943 -162 q 928 -226 935 -225 q 886 -231 904 -229 q 847 -233 868 -233 q 814 -233 826 -233 q 769 -231 801 -232 q 718 -229 738 -229 q 708 -221 710 -229 q 696 63 703 -201 q 681 365 689 326 q 668 433 674 403 q 653 488 658 483 q 592 501 643 496 q 522 497 540 507 l 431 433 l 425 410 q 392 165 406 335 q 378 -179 379 -4 z "},"n":{"ha":1154,"x_min":4,"x_max":1143,"o":"m 356 -146 q 353 -157 356 -150 q 351 -169 351 -164 q 346 -189 350 -187 q 340 -189 340 -190 q 339 -189 340 -189 l 36 -196 q 26 -183 28 -190 q 7 -14 8 -94 q 10 167 6 67 q 11 307 11 207 q 13 460 11 407 q 22 585 14 513 q 43 706 29 657 q 49 711 49 711 q 118 724 75 717 q 261 740 161 732 q 422 742 361 749 q 426 740 424 742 q 427 724 426 740 q 428 687 428 707 q 431 660 429 667 q 438 671 431 660 q 454 700 444 682 q 475 735 464 718 q 496 766 486 753 q 511 781 506 779 q 572 783 518 782 q 642 785 604 786 q 684 783 679 783 q 722 780 689 783 q 778 774 756 776 q 847 765 817 771 q 897 754 878 760 q 931 742 917 749 q 953 730 946 736 q 965 719 961 724 q 972 711 969 715 q 975 707 974 707 q 992 660 976 706 q 1035 534 1008 614 q 1082 382 1061 454 q 1101 308 1092 350 q 1126 175 1111 265 q 1138 -10 1142 85 q 1108 -178 1135 -106 q 1100 -183 1107 -182 q 1054 -188 1076 -186 q 1001 -190 1032 -190 q 956 -190 969 -190 q 897 -188 942 -190 q 840 -186 853 -186 q 831 -178 833 -186 q 796 102 825 -157 q 760 397 767 361 q 746 465 751 436 q 731 519 736 515 q 654 535 722 528 q 567 533 586 542 l 408 467 l 403 443 q 370 199 383 368 q 356 -146 357 29 z "},"o":{"ha":1154,"x_min":-6,"x_max":1110,"o":"m 64 404 q 111 556 85 476 q 153 682 138 636 q 172 729 169 728 q 399 756 178 736 q 796 768 576 772 q 924 763 918 765 q 956 707 931 760 q 1100 183 1064 467 q 1110 100 1110 114 q 1099 65 1110 86 q 1019 -49 1072 14 q 918 -149 965 -112 l 903 -161 l 782 -167 q 489 -171 578 -178 q 376 -165 476 -169 q 294 -160 311 -162 q 268 -151 276 -158 q 195 -95 247 -137 q 121 -32 143 -53 q 3 86 11 71 q 32 250 -4 99 q 48 329 36 269 q 64 404 60 389 m 774 50 q 779 157 781 54 q 738 532 778 378 l 732 556 l 614 556 q 439 550 519 556 q 353 539 358 544 q 338 485 347 533 q 324 417 329 439 q 299 260 313 361 q 283 99 286 158 q 286 50 281 54 q 530 46 292 46 q 774 50 768 46 z "},"p":{"ha":1036,"x_min":24,"x_max":1001,"o":"m 356 -64 q 496 -67 396 -65 q 563 -69 497 -67 q 610 -68 607 -71 q 637 201 614 -65 q 657 471 660 468 q 611 474 654 474 q 503 476 568 475 q 400 482 439 478 l 293 418 l 293 386 q 292 369 293 379 q 291 342 292 360 q 289 306 290 324 q 285 137 288 272 q 282 -8 282 1 q 282 -46 283 -32 q 288 -60 281 -58 q 356 -64 296 -62 m 556 -243 q 470 -238 536 -240 q 347 -235 404 -236 q 288 -233 289 -233 q 279 -304 282 -237 q 284 -476 276 -371 q 315 -664 292 -582 q 326 -706 322 -687 q 332 -732 331 -725 q 325 -739 335 -737 q 122 -717 306 -742 q 81 -710 83 -712 q 74 -651 78 -707 q 64 -543 71 -629 q 44 -121 54 -415 q 28 414 33 174 q 28 660 24 654 q 50 667 32 663 q 93 669 54 667 q 183 674 132 671 q 258 679 235 676 q 285 681 275 679 q 296 629 288 625 q 361 685 300 635 q 504 692 400 688 q 588 695 551 693 q 644 698 624 697 q 699 700 664 699 q 736 701 718 700 q 763 703 754 703 q 865 690 856 703 q 917 501 874 679 q 972 256 961 322 q 997 67 1000 89 q 953 -89 996 44 q 888 -239 910 -222 l 863 -258 l 844 -254 q 816 -251 829 -251 q 787 -251 803 -250 q 764 -251 771 -251 q 556 -243 626 -249 z "},"q":{"ha":1036,"x_min":10,"x_max":1081,"o":"m 654 -69 q 722 -66 714 -68 q 728 -51 729 -64 q 728 -14 726 -37 q 725 131 728 -4 q 721 300 722 267 q 719 336 721 318 q 717 364 718 354 q 717 381 717 374 l 717 413 l 610 476 q 506 471 571 472 q 399 469 442 469 q 353 465 356 468 q 373 196 350 463 q 399 -74 396 -71 q 447 -75 403 -76 q 514 -72 513 -72 q 654 -69 614 -71 m 701 -240 q 649 -241 701 -240 q 535 -244 596 -242 q 456 -249 474 -246 q 247 -257 383 -254 q 223 -256 239 -257 q 194 -256 207 -256 q 167 -260 181 -257 l 147 -264 l 122 -244 q 57 -94 100 -228 q 13 61 14 39 q 38 250 10 83 q 92 495 49 317 q 144 685 136 674 q 247 697 154 697 q 274 696 256 697 q 311 694 292 694 q 367 692 346 693 q 424 690 388 692 q 506 686 460 688 q 649 681 610 682 q 714 624 710 629 q 721 631 718 618 q 725 675 725 646 q 753 674 735 674 q 826 668 775 671 q 917 663 878 665 q 960 661 956 661 q 982 654 978 657 q 987 423 986 649 q 981 -84 988 197 q 965 -492 975 -365 q 1006 -483 964 -504 q 1076 -451 1069 -449 q 1079 -457 1079 -453 q 1078 -534 1078 -479 q 1081 -646 1079 -589 l 1081 -703 q 1044 -707 1079 -703 q 969 -715 1010 -711 q 919 -721 928 -719 q 751 -742 775 -740 q 722 -739 726 -744 q 709 -492 719 -736 q 701 -240 699 -247 z "},"r":{"ha":932,"x_min":8,"x_max":865,"o":"m 865 458 q 833 594 856 519 q 800 681 810 668 q 697 693 790 694 q 671 692 689 693 q 633 690 653 690 q 585 692 604 690 q 504 692 565 694 q 361 685 400 688 q 296 629 300 635 q 289 636 293 624 q 285 681 285 651 q 258 679 275 679 q 183 674 235 676 q 93 669 132 671 q 50 667 54 667 q 28 660 32 663 q 17 529 24 654 q 10 245 11 404 q 19 -62 10 86 q 29 -169 26 -150 q 36 -228 33 -225 q 95 -231 38 -229 q 215 -235 153 -233 q 286 -239 278 -237 q 282 -8 299 -240 q 285 137 282 1 q 289 306 288 272 q 291 342 290 324 q 292 369 292 360 q 293 386 293 379 l 293 418 l 400 482 q 833 440 613 460 q 865 458 858 439 z "},"s":{"ha":1054,"x_min":25,"x_max":1000,"o":"m 636 583 l 518 578 q 374 568 386 571 q 374 553 374 563 q 374 540 374 544 q 374 533 374 535 q 421 507 392 522 q 500 467 450 492 q 586 424 550 442 q 740 348 644 394 q 907 267 836 301 q 993 224 978 232 q 992 118 999 133 q 908 3 971 71 q 788 -115 844 -65 l 774 -128 l 667 -133 q 474 -140 596 -137 q 318 -142 353 -143 q 244 -137 260 -139 q 221 -128 229 -135 q 131 -44 174 -90 q 31 124 90 -1 q 39 206 26 132 q 165 209 69 206 q 298 213 260 213 q 361 211 336 214 q 361 207 361 210 q 358 163 360 182 q 357 135 357 143 q 357 124 357 124 q 358 124 358 124 q 361 118 358 119 q 511 113 365 114 q 661 117 657 113 l 664 115 l 664 117 q 663 175 663 133 q 560 225 647 183 q 419 293 472 267 q 283 359 361 322 q 149 422 204 396 q 86 450 93 447 q 127 603 104 524 q 165 728 150 683 q 181 776 179 774 q 382 803 186 783 q 735 815 539 819 q 849 810 843 813 q 876 754 854 807 q 958 489 931 614 q 942 486 950 488 q 794 477 921 482 q 650 472 668 472 q 649 475 649 474 q 650 508 650 497 l 636 583 z "},"t":{"ha":933,"x_min":19,"x_max":924,"o":"m 713 -4 q 788 -3 746 -4 q 883 0 829 -1 q 911 -103 900 -33 q 922 -222 922 -172 q 800 -234 874 -228 q 588 -250 726 -240 q 418 -260 450 -260 q 399 -253 415 -260 q 359 -230 383 -246 q 312 -192 335 -214 q 273 -135 289 -171 q 257 -57 257 -99 q 263 390 263 356 q 124 390 188 390 q 49 388 60 389 q 26 389 39 388 q 19 456 19 418 q 29 550 19 531 l 36 563 q 219 572 140 572 q 272 572 268 572 q 280 731 278 632 q 283 905 282 831 q 285 986 283 979 l 292 1042 l 294 1058 l 318 1056 q 394 1042 350 1051 q 458 1032 413 1038 q 532 1021 511 1024 q 601 1010 563 1015 l 603 803 q 611 557 603 757 q 686 561 657 561 q 767 558 721 561 q 840 554 813 556 l 868 551 q 875 539 871 547 q 885 444 885 519 q 878 378 885 407 q 853 378 878 376 q 762 381 828 379 q 619 382 696 382 q 630 210 621 343 q 639 67 639 78 q 667 24 640 51 q 713 -4 693 -4 z "},"u":{"ha":1129,"x_min":6,"x_max":1074,"o":"m 707 89 l 713 113 q 750 356 733 188 q 772 700 767 525 q 774 711 772 704 q 776 724 776 718 q 782 743 778 742 q 789 743 783 743 l 1047 733 q 1057 721 1056 728 q 1073 551 1072 631 q 1067 371 1074 471 q 1067 176 1064 307 q 1067 -55 1071 44 q 1044 -217 1064 -154 l 1039 -222 q 1017 -225 1031 -224 q 963 -231 1003 -226 q 884 -237 922 -235 q 797 -239 846 -239 q 710 -235 747 -239 q 706 -233 707 -235 q 699 -205 704 -233 q 688 -143 694 -176 q 681 -104 682 -110 q 674 -115 681 -103 q 656 -144 667 -126 q 635 -178 646 -161 q 613 -209 624 -196 q 597 -224 603 -222 q 536 -225 590 -225 q 465 -224 492 -225 q 426 -222 438 -222 q 384 -217 415 -221 q 331 -211 353 -212 q 262 -201 293 -207 q 211 -188 231 -194 q 178 -176 192 -182 q 156 -163 164 -169 q 144 -153 149 -157 q 138 -144 140 -149 q 136 -140 136 -140 q 118 -109 132 -136 q 78 -18 104 -82 q 35 118 53 46 q 23 195 29 142 q 12 380 17 249 q 19 678 7 511 q 28 753 25 753 q 74 757 51 756 q 127 758 96 758 q 173 756 158 757 q 232 753 188 756 q 288 750 276 751 q 297 742 296 750 q 333 409 303 721 q 369 61 363 97 q 395 56 369 58 q 457 52 421 53 q 533 56 493 51 q 617 67 574 58 q 683 82 660 76 l 707 89 z "},"v":{"ha":1075,"x_min":0,"x_max":1033,"o":"m 0 539 q 67 569 13 544 q 158 611 121 594 q 224 632 188 624 q 278 642 260 640 q 301 644 297 644 q 334 581 303 644 q 403 433 365 517 q 456 310 440 350 q 542 69 481 240 q 595 167 561 110 q 652 272 629 225 q 689 371 675 318 q 726 511 708 440 q 750 600 744 582 q 838 589 767 597 q 947 569 910 581 q 1033 542 979 560 q 1017 485 1029 526 q 1001 431 1004 444 q 988 385 997 418 q 974 340 978 353 q 961 301 969 326 q 947 261 953 275 q 934 227 942 247 q 919 191 926 207 q 903 158 911 175 q 862 74 892 136 q 810 -31 832 13 q 758 -131 789 -74 q 700 -231 726 -189 q 617 -237 671 -232 q 530 -244 564 -242 q 478 -244 496 -246 q 428 -242 454 -243 q 392 -242 403 -242 q 309 -62 372 -200 q 186 197 246 75 q 111 342 140 289 q 54 444 82 396 q 0 539 26 492 z "},"w":{"ha":1154,"x_min":3,"x_max":1026,"o":"m 4 683 q 133 700 111 699 q 203 707 156 701 q 281 714 251 713 q 302 592 289 667 q 324 467 315 517 q 335 399 332 417 q 349 277 336 385 q 369 104 361 169 q 415 174 381 122 q 458 247 449 226 q 484 299 467 264 q 513 354 501 333 q 549 300 521 343 q 593 231 578 257 q 656 122 622 182 q 685 224 668 163 q 716 333 701 285 q 749 436 731 381 q 777 531 767 492 q 798 612 788 569 q 817 689 808 654 q 842 685 825 688 q 866 681 860 682 q 886 677 872 679 q 907 673 900 675 q 924 668 914 671 q 944 662 935 665 q 964 653 954 658 q 1025 625 1006 635 q 1001 513 1019 593 q 961 322 982 432 q 879 -62 918 86 q 864 -118 871 -94 q 854 -150 857 -142 q 681 -154 701 -156 q 586 -146 668 -154 q 572 -116 585 -140 q 549 -58 560 -92 q 518 29 525 8 q 487 -33 508 10 q 452 -101 465 -76 q 432 -136 439 -125 q 414 -158 422 -149 q 400 -176 406 -168 q 301 -183 347 -181 q 256 -185 264 -185 q 233 -183 247 -185 q 206 -181 218 -181 q 161 31 189 -104 q 114 253 133 165 q 81 388 94 340 q 38 547 63 450 q 4 683 14 644 z "},"x":{"ha":1528,"x_min":-3,"x_max":1485,"o":"m 1036 -206 q 650 68 818 -58 q 593 107 597 107 q 515 2 585 107 q 410 -167 444 -103 q 390 -201 394 -194 q 382 -207 386 -207 q 291 -172 369 -207 q 171 -112 213 -136 q 99 -67 144 -97 q 50 -32 54 -37 q 96 38 44 -26 q 290 272 196 163 q 324 316 324 311 q 296 344 324 321 q 190 433 275 361 q 81 526 106 504 q 0 604 1 596 q 101 657 -3 614 q 319 735 206 700 l 338 740 l 357 718 q 493 576 417 650 l 531 540 l 636 646 q 853 849 751 760 q 968 938 954 938 q 1117 900 990 938 q 1286 846 1244 863 q 1308 836 1299 839 q 1318 830 1318 833 q 1281 800 1318 826 q 1011 581 1132 693 q 864 435 938 513 q 790 350 790 358 q 951 250 790 336 q 1239 110 1113 164 q 1297 83 1276 93 q 1324 72 1322 72 q 1340 66 1326 72 q 1418 35 1354 60 q 1483 4 1482 8 q 1435 -47 1485 1 q 1328 -143 1385 -94 q 1223 -229 1289 -178 q 1152 -281 1157 -281 q 1036 -206 1147 -281 z "},"y":{"ha":1528,"x_min":3,"x_max":1572,"o":"m 1013 68 q 1142 234 1085 168 q 1307 413 1199 300 q 1349 456 1332 438 q 1378 485 1367 474 q 1408 511 1390 496 q 1435 534 1426 526 q 1474 565 1444 542 q 1522 603 1503 588 q 1572 649 1572 643 q 1559 658 1572 654 q 1529 671 1546 663 q 1367 735 1474 699 q 1231 772 1260 771 q 1165 732 1217 772 q 1022 606 1113 692 q 836 414 932 519 l 694 257 l 550 442 q 397 675 464 564 l 375 713 l 350 707 q 83 647 164 668 q 4 613 3 626 q 97 483 6 601 q 224 326 125 447 q 347 178 324 204 q 515 -19 515 -15 q 469 -85 515 -28 q 285 -347 429 -137 q 121 -587 142 -557 q 67 -665 79 -644 q 60 -692 56 -686 q 125 -744 65 -700 q 221 -810 185 -787 q 288 -858 250 -829 q 347 -901 325 -886 q 376 -915 368 -915 q 388 -906 382 -915 q 414 -854 393 -896 q 660 -451 463 -757 q 1013 68 857 -146 z "},"z":{"ha":989,"x_min":13,"x_max":929,"o":"m 925 -114 q 801 -119 864 -115 q 667 -125 738 -122 q 467 -128 597 -128 q 183 -128 294 -129 q 28 -126 71 -126 q 20 -62 26 -111 q 13 19 14 -12 q 15 91 13 51 q 18 144 18 131 q 187 253 49 165 q 396 392 325 340 q 475 449 450 432 q 517 478 500 467 q 557 506 535 490 q 560 531 560 524 q 559 545 560 539 q 558 554 558 551 q 488 556 532 556 q 397 556 443 556 q 281 557 322 557 q 281 535 281 550 q 282 506 282 519 l 282 464 q 154 458 179 458 l 63 458 q 53 643 57 578 q 51 692 51 675 q 50 723 50 708 q 50 753 50 738 q 149 758 100 754 q 256 763 197 761 q 436 767 314 765 q 625 766 557 767 q 756 763 693 765 q 879 758 818 760 q 877 674 878 725 q 875 588 876 624 q 874 526 874 551 q 868 442 871 478 q 644 294 675 317 q 526 214 593 260 q 424 143 460 168 q 423 126 424 138 q 422 113 422 115 l 422 96 q 460 92 431 96 q 542 88 489 89 q 630 88 594 88 q 682 89 665 89 q 682 136 682 124 q 681 178 682 156 q 723 181 689 178 q 794 183 757 183 q 866 180 831 183 q 917 175 901 176 q 921 94 918 143 q 925 7 924 44 q 926 -62 928 -25 q 925 -114 925 -100 z "},"{":{"ha":660,"x_min":17,"x_max":635,"o":"m 633 -251 q 490 -246 496 -251 q 456 -142 485 -240 q 421 233 436 -79 q 375 267 397 251 q 316 305 344 289 q 275 325 288 321 l 261 331 q 347 417 278 344 q 411 490 383 454 q 410 940 400 882 l 414 972 l 444 975 q 621 978 472 978 l 621 1197 q 371 1182 515 1197 q 322 1168 333 1178 q 258 1092 308 1156 q 186 996 208 1029 l 158 956 l 161 799 q 168 501 163 743 q 103 428 139 465 l 17 342 q 131 278 61 328 q 174 246 151 263 q 181 0 179 14 q 188 -48 183 -24 q 201 -97 193 -72 q 213 -135 208 -121 q 228 -174 218 -150 q 238 -200 238 -197 l 331 -447 q 389 -460 331 -451 q 479 -471 447 -469 q 633 -474 531 -474 l 633 -251 z "},"|":{"ha":335,"x_min":-1,"x_max":301,"o":"m 24 1104 q 61 1122 31 1107 q 121 1144 92 1136 q 176 1148 149 1150 q 227 1140 204 1146 q 249 1133 250 1135 q 259 1010 247 1133 q 284 710 271 886 q 299 429 297 535 q 297 117 300 324 q 290 -243 294 -90 l 288 -397 q 172 -408 231 -407 q 110 -406 146 -410 q 51 -396 75 -401 l 28 -390 q 20 -306 25 -360 q 7 -89 15 -251 q 0 231 -1 74 q 24 1104 3 582 z "},"}":{"ha":568,"x_min":-17,"x_max":636,"o":"m 146 -246 q 183 -154 175 -231 q 185 231 188 -110 q 325 306 242 268 q 214 383 303 317 q 182 408 197 396 q 179 700 179 657 q 180 776 179 735 q 181 833 181 817 q 180 870 181 850 q 177 901 179 890 q 171 924 175 913 l 153 975 l 128 978 q 101 979 113 979 q 51 978 89 979 q -17 978 13 978 l -17 1197 q 25 1197 6 1197 q 58 1196 44 1196 q 89 1194 72 1196 q 114 1192 106 1193 q 140 1190 122 1192 q 163 1186 157 1188 q 191 1182 169 1185 q 219 1179 213 1179 q 288 1135 243 1175 q 379 1039 333 1096 q 406 1006 406 1006 q 406 999 406 1004 q 409 984 407 994 q 413 958 411 974 q 418 922 415 943 q 424 875 421 900 q 430 817 426 850 q 436 749 433 785 l 433 663 q 432 440 433 638 q 525 350 465 394 q 636 272 614 283 q 458 169 506 214 q 429 144 444 156 q 415 -201 425 -154 q 390 -244 413 -214 q 324 -328 368 -274 q 263 -406 281 -383 q 228 -444 254 -418 l 206 -468 l 115 -471 q -4 -474 39 -474 l -4 -251 q 146 -246 136 -251 z "},"~":{"ha":790,"x_min":6,"x_max":776,"o":"m 201 494 q 183 408 188 428 q 175 361 183 408 q 75 344 142 351 q 15 338 25 338 q 10 353 6 339 q 86 629 81 622 l 85 632 q 90 636 81 635 q 168 647 106 640 q 207 651 182 649 q 238 654 232 654 q 272 656 244 654 q 319 656 300 657 q 401 652 397 654 q 421 614 406 650 q 460 501 435 579 q 508 497 483 497 l 547 497 l 565 576 l 575 631 q 660 624 610 629 l 775 610 q 690 390 708 438 q 671 351 675 353 q 588 349 667 350 q 539 348 554 347 q 506 352 524 349 q 465 358 488 356 q 304 378 308 374 q 282 490 286 474 l 279 507 q 243 504 267 504 q 201 494 219 503 z "},"":{"ha":433,"x_min":11,"x_max":432,"o":"m 24 -693 q 119 -697 42 -693 q 251 -697 197 -700 q 320 -695 293 -697 q 378 -690 347 -693 q 431 -685 408 -686 q 426 -460 428 -594 q 422 -226 425 -325 q 413 -51 419 -128 q 400 88 407 25 q 390 180 393 151 q 386 208 386 208 q 367 212 386 211 q 297 212 347 213 q 218 211 246 211 q 119 208 167 211 q 53 206 71 206 q 40 63 50 174 q 19 -212 31 -47 q 12 -419 11 -372 q 18 -547 13 -467 q 24 -693 24 -628 m 32 638 q 115 643 60 643 q 229 640 169 643 q 368 640 289 638 q 379 299 382 394 l 379 281 l 356 281 q 28 276 35 275 q 32 638 19 281 z "},"^":{"ha":557,"x_min":-7,"x_max":526,"o":"m -6 864 q 56 836 35 846 q 124 814 56 836 q 183 888 142 844 q 231 936 183 888 q 313 888 293 903 q 376 822 332 872 q 475 843 443 831 q 525 875 506 856 q 396 997 438 964 q 304 1068 304 1068 l 192 1075 q 163 1071 179 1074 q 139 1067 147 1068 l 129 1064 q 67 972 111 1036 q -6 864 63 967 z "},"":{"ha":1176,"x_min":-211,"x_max":1151,"o":"m 432 -269 q -147 -339 -65 -306 q -169 -332 -162 -346 q -192 -208 -174 -319 q -210 -75 -210 -96 q -196 -57 -210 -64 q -135 -39 -182 -50 q -6 -10 -56 -19 q 51 324 17 160 q -140 303 -96 314 q -160 307 -154 300 q -180 365 -164 313 q -196 428 -196 418 q -129 444 -196 436 q 86 467 -1 461 q 100 518 93 493 q 163 717 131 621 q 210 858 194 814 q 226 903 226 903 q 228 906 226 903 q 261 914 233 910 q 313 926 272 915 q 414 945 353 936 q 551 957 475 954 q 967 960 724 963 q 1034 827 975 961 q 1125 558 1093 693 q 1093 556 1114 557 q 1015 552 1072 554 q 907 551 957 550 l 776 553 q 761 622 765 586 l 758 683 l 733 688 q 638 686 703 689 q 524 678 582 683 q 435 671 465 674 l 404 667 q 367 475 383 571 q 561 467 554 475 q 555 406 564 464 q 542 343 546 347 q 378 336 536 336 q 343 336 361 336 q 317 38 329 225 q 321 26 315 26 q 332 26 321 26 q 557 22 449 29 q 588 21 574 22 q 682 22 626 21 q 775 24 738 22 l 811 25 q 828 129 826 85 q 831 183 829 151 q 1150 194 1089 208 q 1143 124 1150 190 q 1129 31 1136 57 q 1082 -104 1111 -36 q 1033 -207 1053 -172 l 1013 -242 q 432 -269 686 -250 z "},"":{"ha":685,"x_min":-3,"x_max":654,"o":"m 328 417 q 356 417 328 417 q 386 417 385 417 q 388 442 388 418 q 378 528 388 492 l 376 532 l 349 532 q 286 529 290 532 q 282 517 285 528 q 279 500 281 506 q 269 428 272 465 q 269 417 268 418 q 328 417 271 417 m 229 335 q 153 272 185 300 l 64 203 q 28 243 40 224 l -1 292 q 108 363 54 333 q 160 389 136 378 q 143 406 144 404 q 153 457 140 410 q 158 481 154 463 q 164 504 163 500 q 171 525 167 514 q 128 549 150 535 q 77 580 104 561 q 35 610 50 599 l 19 621 q 50 669 38 650 q 86 708 63 688 q 174 638 142 667 q 210 607 189 625 q 278 614 221 608 q 413 617 338 618 q 447 615 433 617 q 465 635 456 625 q 510 674 485 653 q 550 707 535 696 l 565 719 q 603 676 589 693 q 617 657 610 668 q 626 638 624 646 l 631 629 q 539 565 575 589 q 493 535 519 553 q 517 436 510 486 q 515 400 521 408 q 506 385 511 393 q 563 347 539 363 q 653 281 653 281 q 625 235 640 251 l 586 193 q 488 279 532 236 q 442 329 461 307 l 408 328 q 308 326 339 325 q 269 328 304 326 q 233 333 238 329 q 228 336 231 333 q 229 335 229 336 z "},"":{"ha":1364,"x_min":6,"x_max":1324,"o":"m 342 731 q 431 632 363 699 q 535 531 535 531 q 690 683 553 547 q 971 928 828 819 q 979 926 972 928 q 1040 911 988 925 q 1160 878 1093 897 q 1250 850 1228 860 q 1276 838 1263 844 q 1299 829 1290 832 q 1313 824 1307 826 q 1322 819 1319 821 q 1322 817 1324 818 q 1268 778 1317 814 q 1140 677 1219 742 q 1003 557 1061 613 q 869 438 944 501 q 747 338 793 374 l 700 301 q 708 231 704 272 l 839 232 q 844 220 840 228 q 851 195 847 213 q 854 165 856 178 q 839 96 839 96 q 724 97 792 96 q 728 60 726 76 q 872 53 867 58 q 866 1 874 50 q 856 -53 858 -49 q 740 -58 851 -57 q 761 -264 761 -261 l 761 -265 q 749 -279 764 -278 q 567 -282 678 -285 l 392 -278 q 390 -74 397 -242 q 282 -86 310 -79 q 267 -82 271 -87 q 249 -33 263 -78 q 235 19 235 11 q 292 33 235 26 q 386 44 349 42 q 383 113 385 79 l 225 126 q 235 179 229 154 q 241 204 238 193 q 246 222 244 215 q 382 224 307 222 l 382 276 q 214 406 253 367 l 6 592 q 342 731 213 678 z "},"":{"ha":335,"x_min":-3,"x_max":304,"o":"m 24 1104 q 61 1122 31 1107 q 121 1144 92 1136 q 176 1148 149 1150 q 227 1140 204 1146 q 249 1133 250 1135 q 259 1038 249 1133 q 281 795 269 943 q 294 543 293 647 q 295 526 294 536 q 296 507 296 515 q 146 497 257 497 l -1 507 q 24 1104 4 839 m 6 236 q 5 185 6 222 q 4 128 4 149 q 28 -390 1 -224 q 53 -397 38 -393 q 108 -405 69 -400 q 172 -409 146 -410 q 227 -406 199 -408 q 271 -400 256 -403 l 288 -397 q 304 236 304 -32 q 154 244 251 244 l 6 236 z "},"":{"ha":1310,"x_min":-36,"x_max":1294,"o":"m 819 929 l 651 921 q 449 908 464 914 q 449 889 449 901 q 451 869 450 876 q 451 861 451 861 q 524 826 479 847 q 642 771 568 806 q 769 711 717 736 q 1065 565 906 647 q 1275 454 1224 483 q 1288 322 1294 342 q 1199 178 1267 263 q 1067 32 1131 93 l 1057 21 q 1135 -21 1113 -8 q 1147 -153 1154 -133 q 1058 -297 1126 -212 q 926 -443 990 -382 l 911 -458 l 781 -467 q 547 -474 694 -471 q 356 -476 399 -478 q 265 -469 283 -472 q 235 -458 246 -467 q 114 -354 172 -412 q -29 -146 58 -301 q -29 -44 -36 -136 q 204 -45 72 -42 q 339 -56 336 -49 q 340 -60 339 -57 q 342 -121 340 -96 q 344 -160 343 -147 l 344 -174 q 346 -174 344 -174 q 347 -175 346 -174 q 351 -182 349 -181 q 566 -189 358 -187 q 779 -185 774 -190 q 782 -186 781 -183 l 782 -185 q 772 -106 778 -161 q 619 -36 750 -93 q 410 57 489 21 q -4 263 204 154 q 28 452 10 353 q 58 608 46 551 q 71 667 69 665 q 225 692 76 675 q 138 738 175 717 q 169 927 151 828 q 198 1083 186 1026 q 211 1142 210 1140 q 454 1176 218 1151 q 885 1190 644 1196 q 1025 1184 1018 1188 q 1065 1115 1032 1181 q 1199 785 1150 942 q 1179 781 1190 783 q 853 778 1142 772 q 853 781 853 779 q 849 826 850 811 q 819 929 819 929 m 679 454 l 510 446 q 308 433 324 439 q 309 414 308 426 q 310 394 310 401 q 311 386 311 386 q 513 290 349 367 q 745 287 578 288 q 919 290 913 286 q 924 289 922 292 l 924 290 q 914 364 919 313 l 679 454 z "},"":{"ha":539,"x_min":-4,"x_max":506,"o":"m 301 1029 q 381 1027 301 1025 q 496 1028 460 1029 q 503 1214 504 1163 l 503 1224 l 489 1224 q 299 1226 303 1228 q 301 1029 293 1225 m 4 1032 q 83 1030 4 1028 q 199 1031 163 1032 q 206 1217 207 1165 l 206 1226 l 192 1226 q 1 1229 6 1231 q 4 1032 -4 1228 z "},"":{"ha":1988,"x_min":4,"x_max":1956,"o":"m 1463 325 q 1471 274 1468 289 q 1479 190 1479 204 q 1469 156 1479 176 q 1389 40 1442 103 q 1288 -60 1336 -22 l 1272 -71 l 1151 -78 q 985 -78 1042 -82 q 872 -72 972 -76 q 790 -67 807 -69 q 763 -58 772 -65 q 691 -2 743 -44 q 617 61 639 40 q 499 178 507 164 q 528 343 492 192 q 536 372 533 365 q 543 389 539 378 q 590 541 564 461 q 633 667 617 621 q 650 714 649 713 q 878 742 657 722 q 1149 750 1007 753 q 1278 745 1271 747 q 1308 690 1285 743 q 1389 471 1339 624 q 1240 446 1319 454 q 1107 438 1107 438 q 1092 515 1097 490 l 1085 539 l 968 539 q 877 535 907 538 q 842 531 847 533 q 831 524 836 529 q 817 469 826 518 q 803 401 807 425 q 779 192 788 325 q 782 142 776 146 q 963 138 788 139 q 1143 140 1138 136 q 1149 247 1150 144 q 1146 321 1146 321 q 1261 333 1165 322 q 1357 335 1313 338 q 1432 329 1401 333 l 1463 325 m 1603 -451 q 1512 -457 1568 -454 q 1319 -463 1456 -460 q 1092 -464 1183 -467 q 675 -445 893 -458 q 440 -419 457 -432 q 242 -232 339 -337 q 95 -67 165 -149 q 19 26 25 14 q 74 389 6 56 q 89 475 78 413 q 112 591 100 538 q 140 701 124 644 q 243 1025 238 1018 q 688 1081 261 1043 q 1009 1097 810 1092 q 1360 1099 1208 1103 q 1793 1086 1782 1090 q 1826 1022 1806 1082 q 1872 888 1856 938 q 1897 790 1888 838 q 1910 715 1907 742 q 1922 614 1914 688 q 1939 472 1931 540 q 1954 155 1956 360 q 1935 -82 1953 -50 q 1799 -269 1889 -167 q 1629 -432 1710 -372 l 1603 -451 m 1492 -171 q 1509 122 1501 -85 q 1515 431 1517 329 q 1496 822 1514 693 l 1104 832 q 738 824 914 836 q 547 800 563 813 q 511 667 535 790 q 479 499 490 557 q 458 344 464 418 q 448 157 451 269 q 440 -19 444 44 q 438 -116 436 -90 q 449 -147 439 -142 q 1492 -171 454 -151 z "},"":{"ha":1154,"x_min":-6,"x_max":1140,"o":"m 779 157 q 774 50 781 54 q 530 46 768 46 q 286 50 292 46 q 283 99 281 54 q 294 214 286 142 q 776 260 575 261 q 779 157 779 217 m 131 517 q 579 556 476 556 l 738 489 l 743 465 q 750 439 747 451 q 429 422 649 436 q 100 389 210 408 q 74 377 82 382 q 63 369 65 372 q 56 357 60 365 q 43 324 47 343 q 36 282 39 304 q 32 250 33 260 q 3 86 -4 99 q 121 -32 11 71 q 195 -95 143 -53 q 268 -151 247 -137 q 294 -160 276 -158 q 376 -165 311 -162 q 489 -171 476 -169 q 585 -173 513 -172 q 664 -171 657 -174 l 671 -169 q 690 -166 678 -169 q 717 -157 703 -162 l 769 -128 q 769 -147 768 -136 q 775 -167 771 -167 q 781 -168 781 -168 q 782 -167 781 -167 l 1110 -174 q 1119 -161 1118 -168 q 1139 8 1138 -72 q 1136 189 1140 88 q 1135 329 1135 229 q 1133 482 1135 429 q 1124 606 1132 535 q 1103 728 1117 678 l 1097 733 q 1028 747 1071 739 q 885 763 985 754 q 724 764 785 771 q 719 763 722 764 q 719 746 719 763 q 717 709 718 729 q 715 682 717 689 l 711 688 q 702 703 708 693 q 689 726 696 714 q 674 752 682 739 q 658 776 665 765 q 645 794 651 788 q 635 803 639 801 q 574 806 628 804 q 504 807 542 808 q 462 806 467 806 q 424 801 457 806 q 368 796 390 797 q 299 788 329 793 q 249 776 268 782 q 215 765 229 771 q 192 752 200 758 q 181 742 185 746 q 174 733 176 738 q 172 729 172 729 q 104 538 164 721 q 106 519 100 528 q 113 517 107 518 q 125 517 119 517 l 131 517 z "},"":{"ha":1413,"x_min":1,"x_max":1378,"o":"m 519 343 q 517 356 517 349 q 519 365 517 363 q 772 607 614 457 q 1040 861 929 757 l 1151 964 q 1182 953 1165 958 q 1214 942 1199 949 q 1249 925 1229 936 q 1290 890 1268 914 q 1322 847 1311 865 q 1332 828 1333 828 q 1263 760 1331 828 q 1094 585 1196 693 q 921 396 993 478 q 1122 264 1008 335 q 1307 153 1236 193 l 1376 114 q 1322 11 1353 61 q 1284 -37 1308 -10 q 1243 -81 1260 -64 l 1225 -97 q 519 343 775 172 m 4 313 q 1 325 1 318 q 4 335 1 332 q 256 576 99 426 q 525 831 414 726 l 636 933 q 667 923 650 928 q 699 912 683 918 q 733 894 714 906 q 774 859 753 883 q 807 816 796 835 q 817 797 818 797 q 748 730 815 797 q 579 555 681 663 q 406 365 478 447 q 607 233 493 304 q 792 122 721 163 l 861 83 q 807 -19 838 31 q 769 -67 793 -40 q 728 -111 744 -94 l 710 -128 q 4 313 260 142 z "},"":{"ha":503,"x_min":1,"x_max":468,"o":"m 17 321 q 222 329 133 324 l 456 335 q 459 319 457 329 q 465 283 461 308 q 467 242 468 258 q 456 143 464 203 l 456 139 q 452 122 454 135 q 446 92 450 108 q 428 17 428 17 q 367 18 418 17 q 300 19 317 19 l 233 25 q 250 86 236 26 q 264 151 257 115 q 185 158 221 154 q 83 171 129 164 q 19 182 38 178 l 1 186 q 8 261 4 225 q 13 296 11 281 q 17 321 15 311 z "},"":{"ha":503,"x_min":1,"x_max":468,"o":"m 17 321 q 222 329 133 324 q 456 335 222 329 q 459 319 457 329 q 465 283 461 308 q 467 242 468 258 q 456 143 456 143 q 185 158 311 144 q 83 171 129 164 q 19 182 38 178 l 1 186 q 8 261 4 225 q 13 296 11 281 q 17 321 15 311 z "},"":{"ha":1992,"x_min":8,"x_max":1960,"o":"m 1607 -451 q 1516 -457 1572 -454 q 1324 -463 1460 -460 q 1096 -464 1188 -467 q 679 -445 897 -458 q 444 -419 461 -432 q 246 -232 343 -337 q 99 -67 169 -149 q 24 26 29 14 q 78 389 10 56 q 93 475 82 413 q 116 591 104 538 q 144 701 128 644 q 247 1025 242 1018 q 692 1081 265 1043 q 1013 1097 814 1092 q 1364 1099 1213 1103 q 1797 1086 1786 1090 q 1831 1022 1810 1082 q 1876 888 1860 938 q 1901 790 1892 838 q 1915 715 1911 742 q 1926 614 1918 688 q 1943 472 1935 540 q 1958 155 1960 360 q 1939 -82 1957 -50 q 1803 -269 1893 -167 q 1633 -432 1714 -372 l 1607 -451 m 1496 -171 q 1513 122 1506 -85 q 1519 431 1521 329 q 1500 822 1518 693 l 1108 832 q 742 824 918 836 q 551 800 567 813 q 515 667 539 790 q 483 499 494 557 q 462 344 468 418 q 452 157 456 269 q 444 -19 449 44 q 442 -116 440 -90 q 453 -147 443 -142 q 1496 -171 458 -151 m 1006 113 q 917 261 936 231 l 897 292 l 858 292 q 813 287 817 290 q 834 177 808 283 q 888 -24 860 71 q 895 -53 892 -40 q 900 -70 899 -65 q 879 -76 901 -75 q 806 -74 857 -78 q 689 -61 756 -69 q 658 -56 660 -58 q 653 -15 656 -54 q 646 60 651 -1 q 622 442 633 203 q 615 688 610 682 q 631 692 618 690 q 721 707 642 693 q 900 733 804 721 q 1090 756 1015 749 q 1131 760 1104 757 q 1164 764 1157 763 q 1296 771 1290 776 q 1340 671 1304 764 q 1390 535 1376 578 q 1422 406 1422 421 q 1403 376 1422 400 q 1365 338 1383 353 l 1349 322 l 1301 318 q 1219 311 1264 315 q 1146 304 1183 308 q 1125 302 1136 303 q 1108 301 1114 301 q 1100 300 1101 300 q 1100 297 1099 299 q 1104 290 1101 294 q 1111 282 1107 286 q 1122 269 1114 278 q 1142 248 1131 261 q 1161 226 1154 235 q 1374 -18 1242 138 l 1419 -71 l 1408 -74 q 1316 -83 1389 -78 q 1181 -87 1243 -87 l 1125 -87 l 1118 -78 q 1006 113 1096 -43 m 888 428 q 905 428 896 428 q 932 429 914 428 q 1015 436 997 435 q 1047 440 1044 438 q 1049 514 1049 442 q 1046 588 1049 586 q 961 594 1043 590 q 838 599 879 599 l 801 599 l 803 579 q 807 513 804 560 q 813 451 810 465 q 815 429 815 436 q 819 423 815 424 q 840 424 824 422 q 872 426 858 425 l 888 428 z "},"":{"ha":1154,"x_min":224,"x_max":864,"o":"m 256 958 q 238 1007 251 963 q 225 1060 225 1051 q 281 1075 225 1067 q 590 1099 422 1092 q 759 1099 661 1101 q 861 1093 857 1097 q 856 1041 864 1090 q 844 988 847 992 q 707 982 840 983 q 458 973 603 982 q 271 954 314 964 q 256 958 260 953 z "},"":{"ha":422,"x_min":-3,"x_max":378,"o":"m 21 993 q 57 1093 51 1088 q 135 1101 60 1096 q 269 1106 194 1107 q 313 1103 311 1104 q 324 1088 315 1103 q 374 925 361 1013 q 372 889 378 897 q 311 822 350 849 l 306 818 l 265 817 q 165 815 196 814 q 128 817 161 815 q 90 821 94 818 q 40 858 67 836 q 0 894 3 890 q 10 946 -3 899 q 15 970 11 951 q 21 993 19 989 m 185 904 q 214 904 185 904 q 243 906 242 904 q 244 931 244 907 q 235 1015 244 981 l 233 1021 l 206 1021 q 143 1017 147 1021 q 139 1004 142 1017 q 136 989 138 994 q 126 917 129 954 q 128 906 126 907 q 185 904 129 904 z "},"":{"ha":1119,"x_min":0,"x_max":1156,"o":"m 64 -329 q 33 -277 57 -324 q 8 -222 8 -231 q 110 -207 8 -214 q 335 -192 249 -196 q 357 154 338 -56 q 1 185 113 169 q 17 275 7 232 q 28 318 22 300 q 36 349 33 336 q 379 354 207 350 q 383 540 381 443 q 390 701 386 638 q 394 764 393 764 q 722 761 401 767 l 746 760 l 747 743 q 726 363 747 726 q 1046 365 1046 365 q 1055 345 1050 357 q 1067 303 1060 333 q 1072 251 1075 272 q 1063 201 1069 231 q 1051 151 1056 171 l 1046 132 q 711 139 896 133 q 676 -181 686 -69 q 974 -180 806 -178 q 1151 -186 1143 -182 q 1142 -241 1156 -189 q 1121 -297 1128 -293 q 874 -303 1114 -303 q 428 -312 686 -303 q 92 -332 169 -322 q 64 -329 72 -335 z "},"":{"ha":638,"x_min":56,"x_max":600,"o":"m 490 336 l 431 332 q 315 328 394 328 q 156 331 236 328 l 75 333 q 70 334 72 333 q 64 338 68 335 q 60 347 60 342 q 58 385 60 349 q 57 465 57 422 q 60 532 57 507 q 74 583 63 553 q 99 597 74 585 q 171 626 125 608 q 257 654 217 643 q 419 685 317 671 q 410 758 415 725 l 406 774 l 350 774 q 222 763 231 774 q 215 726 219 758 q 213 706 214 717 q 88 693 126 694 q 132 853 126 844 q 243 868 136 857 q 438 875 331 878 q 501 872 497 874 q 515 840 504 869 q 571 636 550 747 l 571 636 q 482 599 558 622 q 349 549 461 592 q 189 494 236 507 q 187 475 188 488 q 186 460 186 463 q 190 439 186 443 q 308 436 193 436 q 426 439 424 436 q 429 510 429 442 q 429 538 429 524 q 586 540 488 554 q 586 536 586 539 q 599 389 599 431 q 596 338 599 381 l 490 336 m 571 636 m 571 636 z "},"":{"ha":474,"x_min":26,"x_max":439,"o":"m 157 643 q 171 646 165 644 q 236 658 203 651 q 240 659 238 658 q 245 660 242 660 q 250 661 249 661 l 258 663 l 257 654 q 256 638 257 644 q 253 622 254 632 q 244 576 251 611 q 239 567 243 568 q 194 566 233 567 q 155 567 156 565 q 154 606 154 568 l 153 611 q 40 608 76 613 l 28 575 q 64 529 49 546 l 106 489 q 157 486 124 488 q 346 489 207 483 l 374 490 l 383 507 q 418 578 399 533 q 438 631 438 622 q 425 642 438 633 q 382 667 385 667 q 364 678 381 667 q 328 696 346 688 q 319 701 324 699 q 313 704 315 703 q 313 706 311 706 q 335 718 314 707 q 374 739 357 729 q 393 754 389 749 q 406 779 397 760 q 424 829 424 821 q 391 860 424 835 q 324 908 358 886 l 300 924 l 265 924 q 142 917 183 924 q 119 915 119 915 q 51 835 71 858 q 94 804 58 815 q 149 794 131 793 q 174 800 164 799 q 178 846 176 844 q 186 846 178 847 q 208 843 193 846 q 300 828 294 833 q 299 821 300 828 q 296 794 299 814 q 292 771 293 774 q 236 757 289 769 q 107 729 140 736 q 122 679 110 700 q 137 662 128 671 q 151 647 146 653 l 157 643 z "},"":{"ha":1129,"x_min":-47,"x_max":1074,"o":"m 707 89 l 713 113 q 750 356 733 188 q 772 700 767 525 q 774 711 772 704 q 776 724 776 718 q 782 743 778 742 q 789 743 783 743 l 1047 733 q 1057 721 1056 728 q 1073 551 1072 631 q 1067 371 1074 471 q 1067 176 1064 307 q 1067 -55 1071 44 q 1044 -217 1064 -154 l 1039 -222 q 1017 -225 1031 -224 q 963 -231 1003 -226 q 884 -237 922 -235 q 797 -239 846 -239 q 710 -235 747 -239 q 706 -233 707 -235 q 699 -205 704 -233 q 688 -143 694 -176 q 681 -104 682 -110 q 674 -115 681 -103 q 656 -144 667 -126 q 635 -178 646 -161 q 613 -209 624 -196 q 597 -224 603 -222 q 536 -225 590 -225 q 465 -224 492 -225 q 426 -222 438 -222 q 384 -217 415 -221 q 331 -211 353 -212 q 250 -199 285 -206 q 247 -328 247 -301 l 247 -537 q 214 -543 244 -537 q 147 -554 196 -546 q 89 -565 106 -561 q 51 -572 72 -569 l 29 -575 l 26 -558 l 19 -503 q 8 -369 18 -490 q -12 -110 -1 -249 q -24 43 -22 29 q -26 119 -24 46 q -32 280 -29 192 q -35 400 -35 368 q -39 774 -46 771 q 60 770 -31 778 q 222 754 150 763 q 288 750 286 750 q 297 742 296 750 q 333 409 303 721 q 369 61 363 97 q 395 56 369 58 q 457 52 421 53 q 533 56 493 51 q 617 67 574 58 q 683 82 660 76 l 707 89 z "},"":{"ha":1565,"x_min":-19,"x_max":1403,"o":"m 785 431 q 796 429 789 431 q 851 427 843 426 q 860 438 860 428 q 860 440 860 440 q 864 478 860 454 q 872 583 868 501 q 879 696 876 663 l 882 728 l 793 728 q 597 720 722 728 q 467 708 471 713 q 464 583 464 706 q 467 458 464 461 q 514 451 469 456 q 646 442 543 450 q 785 431 701 438 m 1358 793 q 1381 788 1376 790 q 1394 464 1388 781 q 1400 -60 1401 147 q 1399 -167 1399 -143 q 1394 -226 1397 -224 q 1354 -237 1392 -229 q 1146 -271 1153 -278 q 1144 -265 1144 -268 q 1150 -240 1146 -260 q 1185 3 1151 -233 q 1219 253 1218 240 q 1235 387 1228 324 q 1245 491 1242 450 q 1251 576 1249 532 q 1253 639 1253 619 q 1255 692 1254 658 q 1256 733 1256 725 q 1078 726 1179 728 q 1035 -71 1067 310 q 1026 -178 1029 -154 q 1019 -237 1022 -235 q 978 -244 1015 -239 q 768 -264 774 -271 q 767 -258 767 -262 q 774 -234 769 -253 q 785 -192 778 -215 q 857 97 822 -56 q 886 256 892 250 q 799 260 885 256 q 618 270 714 265 q 507 276 522 275 q 258 293 357 285 q 147 303 222 296 l 82 307 l 60 329 q 9 386 36 351 q -18 428 -18 421 q 26 614 -18 450 q 94 810 44 676 q 153 953 143 943 q 214 952 156 956 q 333 943 272 949 q 378 938 342 942 q 433 932 415 933 q 690 899 533 921 q 906 865 818 881 q 1097 834 986 851 q 1279 806 1208 817 q 1358 793 1350 794 z "},"":{"ha":406,"x_min":-1,"x_max":363,"o":"m 11 267 q 94 260 39 260 q 210 264 150 261 q 349 264 269 267 q 360 606 363 510 l 360 624 l 335 624 q 7 626 15 629 q 11 267 -1 624 z "},"":{"ha":326,"x_min":-7,"x_max":286,"o":"m 121 -344 q 204 -331 143 -351 q 251 -308 231 -321 q 279 -286 272 -294 l 285 -278 q 194 -154 210 -172 q 140 -89 140 -89 q 40 -111 71 -100 q -7 -133 -7 -133 q 64 -267 17 -199 q 89 -302 79 -289 q 101 -319 99 -315 q 109 -329 104 -322 q 121 -344 114 -336 z "},"":{"ha":368,"x_min":17,"x_max":313,"o":"m 18 744 q 89 819 61 788 q 140 878 139 878 q 236 881 140 878 q 313 875 313 875 q 299 565 304 649 q 294 498 296 529 q 290 453 292 467 q 288 439 288 440 q 224 439 288 439 l 161 442 q 147 644 156 508 q 146 690 146 669 q 124 667 140 685 q 97 640 107 650 q 81 662 90 649 q 60 690 71 675 q 18 744 40 717 z "},"":{"ha":422,"x_min":-3,"x_max":378,"o":"m 21 993 q 57 1093 51 1088 q 135 1101 60 1096 q 269 1106 194 1107 q 313 1103 311 1104 q 324 1088 315 1103 q 374 925 361 1013 q 372 889 378 897 q 311 822 350 849 l 306 818 l 265 817 q 165 815 196 814 q 128 817 161 815 q 90 821 94 818 q 40 858 67 836 q 0 894 3 890 q 10 946 -3 899 q 15 970 11 951 q 21 993 19 989 m 185 904 q 214 904 185 904 q 243 906 242 904 q 244 931 244 907 q 235 1015 244 981 l 233 1021 l 206 1021 q 143 1017 147 1021 q 139 1004 142 1017 q 136 989 138 994 q 126 917 129 954 q 128 906 126 907 q 185 904 129 904 z "},"":{"ha":1413,"x_min":14,"x_max":1394,"o":"m 872 347 q 872 369 878 361 q 620 610 778 461 q 351 864 463 760 l 240 968 q 210 958 226 963 q 178 947 193 953 q 143 929 163 940 q 102 894 124 918 q 69 851 81 869 q 60 832 58 832 q 128 765 61 832 q 297 590 194 697 q 471 400 399 482 q 269 267 383 338 q 85 157 156 197 l 15 117 q 69 15 39 64 q 108 -34 83 -7 q 149 -78 132 -61 l 167 -93 q 872 347 617 176 m 1388 317 q 1388 339 1393 331 q 1135 580 1293 431 q 867 833 978 729 l 756 938 q 725 927 742 932 q 693 916 708 922 q 658 899 678 910 q 617 863 639 888 q 585 820 596 839 q 575 801 574 801 q 643 734 576 801 q 812 559 710 667 q 986 369 914 451 q 785 237 899 307 q 600 126 671 167 l 531 86 q 585 -15 554 33 q 623 -65 599 -37 q 664 -108 647 -92 l 682 -124 q 1388 317 1132 146 z "},"":{"ha":1151,"x_min":-90,"x_max":1133,"o":"m 650 -57 q 656 -29 650 -56 q 670 28 663 -3 q 681 69 678 60 q 711 167 708 165 q 762 163 715 167 q 826 157 808 160 l 835 156 l 833 151 q 785 36 819 125 q 779 7 783 32 q 772 -25 775 -18 q 869 -24 817 -25 q 865 58 868 11 q 860 143 861 106 q 922 143 890 144 q 985 139 985 139 q 979 -124 983 -46 q 975 -186 978 -157 q 972 -228 972 -215 q 971 -242 971 -240 q 918 -242 971 -242 l 882 -237 q 872 -76 878 -201 q 779 -78 817 -78 q 760 -78 778 -78 q 717 -80 743 -79 q 676 -81 692 -81 q 665 -75 671 -81 q 654 -63 658 -69 q 650 -57 650 -57 m 18 744 q 89 819 61 788 q 140 878 139 878 l 236 881 q 313 875 313 875 q 299 565 304 649 q 294 498 296 529 q 290 453 292 467 q 288 439 288 440 q 224 439 288 439 l 161 442 q 147 644 156 508 q 146 690 146 669 q 124 667 140 685 q 97 640 107 650 q 81 662 90 649 q 60 690 71 675 q 18 744 40 717 m 951 942 q 982 931 965 936 q 1014 920 999 926 q 1049 903 1029 914 q 1090 867 1068 892 q 1122 824 1111 843 q 1132 806 1133 806 l 1054 708 q 863 478 976 613 q 676 267 749 343 q 90 -317 513 94 q 0 -244 43 -283 q -42 -199 -19 -228 q -78 -150 -64 -171 l -90 -131 q 324 333 76 83 q 590 597 433 444 q 850 844 747 749 l 951 942 z "},"":{"ha":1251,"x_min":-90,"x_max":1171,"o":"m 1061 -349 l 1001 -351 q 888 -357 967 -357 q 728 -354 808 -357 l 646 -351 q 642 -351 644 -351 q 635 -347 639 -350 q 631 -337 631 -343 q 629 -299 631 -336 q 628 -220 628 -262 q 631 -153 628 -178 q 646 -100 633 -132 q 672 -88 646 -100 q 742 -59 697 -76 q 828 -31 788 -42 q 992 0 889 -12 q 981 74 988 40 l 978 89 l 921 89 q 794 78 801 89 q 786 42 792 74 q 783 22 785 32 q 658 8 697 10 q 704 168 697 160 q 815 183 707 172 q 1008 190 901 193 q 1072 188 1069 189 q 1086 156 1075 186 q 1143 -47 1122 64 l 1142 -47 l 1143 -47 q 1054 -86 1129 -62 q 919 -135 1032 -93 q 760 -190 807 -176 q 759 -210 760 -197 q 758 -225 758 -222 q 763 -246 757 -242 q 880 -248 765 -249 q 998 -245 994 -247 q 1000 -175 1001 -243 q 1000 -147 1000 -161 q 1157 -143 1058 -129 q 1158 -149 1158 -146 q 1171 -294 1169 -254 q 1168 -347 1171 -304 l 1061 -349 m 1143 -47 m 1143 -47 m 18 744 q 89 819 61 788 q 140 878 139 878 l 236 881 q 313 875 313 875 q 299 565 304 649 q 294 498 296 529 q 290 453 292 467 q 288 439 288 440 q 224 439 288 439 l 161 442 q 147 644 156 508 q 146 690 146 669 q 124 667 140 685 q 97 640 107 650 q 81 662 90 649 q 60 690 71 675 q 18 744 40 717 m 951 942 q 982 931 965 936 q 1014 920 999 926 q 1049 903 1029 914 q 1090 867 1068 892 q 1122 824 1111 843 q 1132 806 1133 806 l 1054 708 q 863 478 976 613 q 676 267 749 343 q 90 -317 513 94 q 0 -244 43 -283 q -42 -199 -19 -228 q -78 -150 -64 -171 l -90 -131 q 324 333 76 83 q 590 597 433 444 q 850 844 747 749 l 951 942 z "},"":{"ha":1171,"x_min":-90,"x_max":1133,"o":"m 157 643 q 171 646 165 644 q 236 658 203 651 q 240 659 238 658 q 245 660 242 660 q 250 661 249 661 l 258 663 l 257 654 q 256 638 257 644 q 253 622 254 632 q 244 576 251 611 q 239 567 243 568 q 194 566 233 567 q 155 567 156 565 q 154 606 154 568 l 153 611 q 40 608 76 613 l 28 575 q 64 529 49 546 l 106 489 q 157 486 124 488 q 346 489 207 483 l 374 490 l 383 507 q 418 578 399 533 q 438 631 438 622 q 425 642 438 633 q 382 667 385 667 q 364 678 381 667 q 328 696 346 688 q 319 701 324 699 q 313 704 315 703 q 313 706 311 706 q 335 718 314 707 q 374 739 357 729 q 393 754 389 749 q 406 779 397 760 q 424 829 424 821 q 391 860 424 835 q 324 908 358 886 l 300 924 l 265 924 q 142 917 183 924 q 119 915 119 915 q 51 835 71 858 q 94 804 58 815 q 149 794 131 793 q 174 800 164 799 q 178 846 176 844 q 186 846 178 847 q 208 843 193 846 q 300 828 294 833 q 299 821 300 828 q 296 794 299 814 q 292 771 293 774 q 236 757 289 769 q 107 729 140 736 q 122 679 110 700 q 137 662 128 671 q 151 647 146 653 l 157 643 m 951 942 q 982 931 965 936 q 1014 920 999 926 q 1049 903 1029 914 q 1090 867 1068 892 q 1122 824 1111 843 q 1132 806 1133 806 l 1054 708 q 863 478 976 613 q 676 267 749 343 q 90 -317 513 94 q 0 -244 43 -283 q -42 -199 -19 -228 q -78 -150 -64 -171 l -90 -131 q 324 333 76 83 q 590 597 433 444 q 850 844 747 749 l 951 942 m 650 -57 q 656 -29 650 -56 q 670 28 663 -3 q 681 69 678 60 q 711 167 708 165 q 762 163 715 167 q 826 157 808 160 l 835 156 l 833 151 q 785 36 819 125 q 779 7 783 32 q 772 -25 775 -18 q 869 -24 817 -25 q 865 58 868 11 q 860 143 861 106 q 922 143 890 144 q 985 139 985 139 q 979 -124 983 -46 q 975 -186 978 -157 q 972 -228 972 -215 q 971 -242 971 -240 q 918 -242 971 -242 l 882 -237 q 872 -76 878 -201 q 779 -78 817 -78 q 760 -78 778 -78 q 717 -80 743 -79 q 676 -81 692 -81 q 665 -75 671 -81 q 654 -63 658 -69 q 650 -57 650 -57 z "},"":{"ha":1150,"x_min":4,"x_max":1106,"o":"m 461 153 q 618 139 535 146 q 735 129 701 132 q 771 124 769 126 q 793 -62 786 101 q 790 -136 793 -78 q 614 -228 788 -137 q 383 -340 440 -318 q 383 -357 383 -350 q 386 -451 383 -450 q 389 -451 388 -451 q 580 -455 394 -457 q 771 -449 765 -453 q 770 -422 772 -446 q 764 -364 768 -399 q 758 -311 760 -329 q 752 -268 758 -303 q 744 -222 746 -233 q 891 -169 790 -201 q 1043 -129 992 -137 q 1056 -126 1050 -129 q 1085 -333 1067 -185 q 1101 -487 1104 -482 q 983 -615 1093 -504 q 909 -685 961 -639 q 838 -747 857 -732 q 811 -756 828 -754 q 728 -762 794 -758 q 617 -768 629 -767 q 325 -764 526 -775 l 204 -757 l 188 -744 q 8 -510 125 -692 q 6 -466 7 -493 q 10 -367 4 -439 q 33 -239 17 -296 l 472 -22 q 472 -17 472 -21 q 471 -11 471 -14 q 467 44 468 3 q 464 118 465 85 q 461 153 463 151 m 781 632 q 698 638 753 638 q 583 635 643 638 q 444 635 524 632 q 433 293 431 389 l 433 275 l 457 275 q 785 271 778 269 q 781 632 793 275 z "},"":{"ha":1181,"x_min":-22,"x_max":1197,"o":"m 528 1033 q 611 1047 550 1026 q 658 1070 638 1057 q 686 1092 679 1083 l 692 1100 q 601 1224 617 1206 q 547 1289 547 1289 q 447 1267 478 1278 l 400 1244 q 471 1111 424 1179 q 496 1076 486 1089 q 508 1059 506 1063 q 516 1049 511 1056 q 528 1033 521 1042 m -22 -26 q 203 519 57 174 q 419 978 349 865 q 538 990 507 986 l 675 997 q 711 908 688 964 q 804 711 735 851 q 942 468 874 571 q 1074 264 1010 365 q 1167 113 1138 163 l 1197 63 q 1036 -46 1139 15 q 956 -91 990 -74 q 911 -111 922 -108 l 900 -115 q 774 144 847 -6 q 529 160 635 149 q 365 183 431 171 q 286 36 313 82 q 197 -124 197 -124 q 72 -76 96 -87 q -22 -26 -22 -26 m 679 335 q 569 579 611 475 q 439 325 507 457 q 567 331 514 328 q 679 335 610 333 z "},"":{"ha":1181,"x_min":-22,"x_max":1197,"o":"m 531 1283 q 614 1269 553 1290 q 661 1247 640 1260 q 689 1225 682 1233 l 694 1217 q 604 1093 619 1111 q 550 1028 550 1028 q 450 1050 481 1039 l 403 1072 q 474 1206 426 1138 q 499 1241 489 1228 q 511 1258 508 1254 q 519 1268 514 1261 q 531 1283 524 1275 m -22 -26 q 203 519 57 174 q 419 978 349 865 q 538 990 507 986 l 675 997 q 711 908 688 964 q 804 711 735 851 q 942 468 874 571 q 1074 264 1010 365 q 1167 113 1138 163 l 1197 63 q 1036 -46 1139 15 q 956 -91 990 -74 q 911 -111 922 -108 l 900 -115 q 774 144 847 -6 q 529 160 635 149 q 365 183 431 171 q 286 36 313 82 q 197 -124 197 -124 q 72 -76 96 -87 q -22 -26 -22 -26 m 679 335 q 569 579 611 475 q 439 325 507 457 q 567 331 514 328 q 679 335 610 333 z "},"":{"ha":1181,"x_min":-22,"x_max":1197,"o":"m 271 1083 q 332 1056 311 1065 q 400 1033 332 1056 q 460 1107 418 1064 q 507 1156 460 1107 q 589 1107 569 1122 q 653 1042 608 1092 q 751 1063 719 1050 q 801 1094 782 1075 q 672 1217 714 1183 q 581 1288 581 1288 l 468 1294 q 440 1290 456 1293 q 415 1286 424 1288 l 406 1283 q 343 1192 388 1256 q 271 1083 339 1186 m -22 -26 q 203 519 57 174 q 419 978 349 865 q 538 990 507 986 q 675 997 538 990 q 711 908 688 964 q 804 711 735 851 q 942 468 874 571 q 1074 264 1010 365 q 1167 113 1138 163 l 1197 63 q 1036 -46 1139 15 q 956 -91 990 -74 q 911 -111 922 -108 l 900 -115 q 774 144 847 -6 q 529 160 635 149 q 365 183 431 171 q 286 36 313 82 q 197 -124 197 -124 q 72 -76 96 -87 q -22 -26 -22 -26 m 679 335 q 569 579 611 475 q 439 325 507 457 q 567 331 514 328 q 679 335 610 333 z "},"":{"ha":1181,"x_min":-22,"x_max":1197,"o":"m 393 1168 q 375 1082 379 1100 q 367 1033 375 1082 q 267 1017 333 1024 q 207 1011 217 1011 q 201 1025 197 1011 q 278 1301 272 1294 l 276 1304 q 281 1310 271 1307 q 360 1319 297 1313 q 399 1324 374 1321 q 430 1327 424 1326 q 464 1329 436 1328 q 511 1328 492 1331 q 593 1325 589 1326 q 613 1286 597 1324 q 650 1174 626 1253 q 700 1169 675 1169 l 739 1169 l 756 1249 l 767 1303 q 851 1297 801 1301 l 967 1282 q 881 1063 900 1110 q 862 1024 865 1026 q 779 1021 858 1022 q 731 1021 746 1019 q 697 1025 715 1022 q 657 1031 679 1028 q 496 1051 500 1046 q 474 1163 478 1146 l 469 1179 q 435 1176 458 1178 q 393 1168 411 1175 m -22 -26 q 203 519 57 174 q 419 978 349 865 q 538 990 507 986 l 675 997 q 711 908 688 964 q 804 711 735 851 q 942 468 874 571 q 1074 264 1010 365 q 1167 113 1138 163 l 1197 63 q 1036 -46 1139 15 q 956 -91 990 -74 q 911 -111 922 -108 l 900 -115 q 774 144 847 -6 q 529 160 635 149 q 365 183 431 171 q 286 36 313 82 q 197 -124 197 -124 q 72 -76 96 -87 q -22 -26 -22 -26 m 679 335 q 569 579 611 475 q 439 325 507 457 q 567 331 514 328 q 679 335 610 333 z "},"":{"ha":1181,"x_min":-22,"x_max":1197,"o":"m 614 1029 q 693 1027 614 1025 q 808 1028 772 1029 q 815 1214 817 1163 l 815 1224 l 801 1224 q 611 1226 615 1228 q 614 1029 606 1225 m 317 1032 q 396 1030 317 1028 q 511 1031 475 1032 q 518 1217 519 1165 l 518 1226 l 504 1226 q 314 1229 318 1231 q 317 1032 308 1228 m -22 -26 q 203 519 57 174 q 419 978 349 865 q 538 990 507 986 l 675 997 q 711 908 688 964 q 804 711 735 851 q 942 468 874 571 q 1074 264 1010 365 q 1167 113 1138 163 l 1197 63 q 1036 -46 1139 15 q 956 -91 990 -74 q 911 -111 922 -108 l 900 -115 q 774 144 847 -6 q 529 160 635 149 q 365 183 431 171 q 286 36 313 82 q 197 -124 197 -124 q 72 -76 96 -87 q -22 -26 -22 -26 m 679 335 q 569 579 611 475 q 439 325 507 457 q 567 331 514 328 q 679 335 610 333 z "},"":{"ha":1181,"x_min":-22,"x_max":1197,"o":"m 393 1193 q 429 1294 424 1288 q 507 1303 432 1296 q 642 1306 567 1307 q 685 1304 683 1306 q 696 1288 688 1303 q 746 1125 733 1213 q 744 1089 750 1097 q 683 1022 722 1050 l 678 1018 l 638 1017 q 538 1015 568 1014 q 499 1017 533 1015 q 463 1022 467 1018 q 413 1058 439 1036 q 372 1094 375 1090 q 382 1146 369 1099 q 388 1170 383 1151 q 393 1193 392 1189 m 557 1106 q 585 1106 557 1106 q 615 1106 614 1106 q 617 1131 617 1107 q 607 1217 617 1181 l 606 1221 l 578 1221 q 515 1218 519 1221 q 511 1206 514 1217 q 508 1189 510 1194 q 499 1117 501 1154 q 499 1106 497 1107 q 557 1106 500 1106 m -22 -26 q 203 519 57 174 q 419 978 349 865 q 538 990 507 986 l 675 997 q 711 908 688 964 q 804 711 735 851 q 942 468 874 571 q 1074 264 1010 365 q 1167 113 1138 163 l 1197 63 q 1036 -46 1139 15 q 956 -91 990 -74 q 911 -111 922 -108 l 900 -115 q 774 144 847 -6 q 529 160 635 149 q 365 183 431 171 q 286 36 313 82 q 197 -124 197 -124 q 72 -76 96 -87 q -22 -26 -22 -26 m 679 335 q 569 579 611 475 q 439 325 507 457 q 567 331 514 328 q 679 335 610 333 z "},"":{"ha":1492,"x_min":-22,"x_max":1442,"o":"m 679 335 q 569 579 611 475 q 439 325 507 457 q 567 331 514 328 q 679 335 610 333 m 703 147 q 529 160 604 151 q 365 183 431 171 q 286 36 313 82 q 197 -124 197 -124 q 72 -76 96 -87 q -22 -26 -22 -26 q 203 519 57 174 q 419 978 349 865 q 538 990 507 986 q 675 997 538 990 q 1442 943 747 999 q 1422 754 1433 824 q 1394 651 1411 685 q 1220 653 1331 653 q 1054 653 1110 653 q 1050 583 1051 610 q 1042 415 1047 522 q 1185 416 1118 414 q 1276 419 1251 418 q 1301 419 1301 419 q 1308 353 1308 390 q 1299 258 1308 276 l 1292 246 q 1108 236 1188 236 q 1035 239 1079 236 q 1030 154 1032 189 q 1027 108 1028 119 q 1026 86 1026 96 q 1025 65 1025 76 l 1025 39 l 1171 33 l 1351 33 l 1347 -4 q 1335 -86 1342 -79 q 1175 -117 1331 -90 q 1025 -140 1122 -126 q 954 -151 985 -147 q 881 -162 935 -154 q 817 -174 835 -169 q 775 -179 799 -176 l 751 -183 l 749 -167 l 742 -111 q 736 -84 742 -108 q 726 -33 731 -60 q 714 44 721 -6 q 703 147 707 94 z "},"":{"ha":1185,"x_min":7,"x_max":1151,"o":"m 832 181 q 829 125 829 149 q 813 22 826 82 l 588 21 q 321 26 375 26 q 317 29 318 26 q 317 35 317 32 l 317 38 q 346 349 331 240 q 366 477 351 397 q 393 611 381 557 l 404 667 q 638 686 511 681 q 758 681 764 692 q 763 619 758 656 q 776 550 767 583 q 908 549 796 553 q 1126 556 1021 544 q 1035 825 1094 690 q 968 957 976 958 q 898 958 940 957 q 736 959 856 958 q 551 957 617 960 q 414 945 475 954 q 313 926 353 936 q 261 914 272 915 q 226 903 224 908 q 100 518 169 750 q 46 307 69 414 q 15 146 22 200 q 7 78 7 92 q 69 2 7 67 q 200 -124 131 -62 q 372 -254 292 -203 q 456 -258 378 -254 q 438 -337 439 -331 q 563 -382 446 -339 q 696 -429 681 -425 q 696 -433 696 -432 q 694 -474 696 -472 q 631 -474 692 -475 q 569 -472 571 -474 q 568 -456 567 -471 q 571 -441 568 -454 q 574 -425 574 -428 q 433 -376 457 -381 q 431 -376 432 -376 q 417 -458 414 -456 q 463 -508 419 -465 q 519 -560 492 -539 q 561 -565 525 -564 q 606 -568 600 -568 q 719 -567 640 -571 l 767 -564 l 772 -558 q 801 -527 783 -550 q 831 -486 818 -504 l 843 -467 q 832 -361 847 -411 l 564 -281 q 565 -262 564 -281 q 610 -264 588 -264 q 812 -263 711 -268 q 964 -251 913 -258 l 1014 -244 q 1131 28 1089 -121 q 1144 121 1138 54 q 1151 192 1150 188 q 832 181 1089 206 z "},"":{"ha":782,"x_min":1,"x_max":769,"o":"m 383 1140 q 467 1156 406 1133 q 514 1177 493 1164 q 540 1199 535 1190 l 547 1207 q 457 1331 471 1314 l 403 1396 q 303 1374 332 1386 q 256 1353 256 1353 q 325 1219 279 1286 q 351 1183 342 1196 q 364 1166 361 1169 q 372 1156 367 1163 q 383 1140 376 1150 m 3 1108 q 1 1044 1 1079 q 4 899 1 1008 q 7 738 7 789 q 10 620 7 707 q 17 461 14 533 q 19 386 19 389 q 33 236 21 372 q 55 -19 44 100 q 67 -150 65 -139 l 74 -206 l 76 -222 l 100 -218 q 142 -212 124 -215 q 206 -201 160 -208 q 279 -190 260 -193 q 350 -179 310 -186 q 500 -156 447 -165 q 660 -125 656 -129 q 672 -43 667 -118 l 676 -6 l 496 -6 l 350 0 l 350 26 q 363 350 350 75 q 436 347 407 347 q 518 349 472 347 q 592 354 564 351 l 619 357 q 626 369 622 361 q 636 464 636 388 q 629 531 636 501 q 604 530 629 531 q 513 527 579 529 q 369 526 446 525 q 378 694 375 633 q 382 764 379 721 q 548 764 438 764 q 722 763 658 764 q 750 865 739 796 l 769 1054 q 730 1058 756 1056 q 631 1065 704 1060 q 489 1076 557 1071 q 335 1088 421 1082 q 185 1099 250 1094 q 69 1106 121 1103 q 3 1108 18 1108 z "},"":{"ha":782,"x_min":1,"x_max":769,"o":"m 342 1382 q 425 1368 364 1389 q 472 1345 451 1358 q 500 1324 493 1332 l 506 1315 q 415 1192 431 1210 q 361 1126 361 1126 q 261 1149 292 1138 l 214 1171 q 285 1304 238 1236 q 310 1340 300 1326 q 322 1356 319 1353 q 330 1367 325 1360 q 342 1382 335 1374 m 3 1108 q 1 1044 1 1079 q 4 899 1 1008 q 7 738 7 789 q 10 620 7 707 q 17 461 14 533 q 19 386 19 389 q 33 236 21 372 q 55 -19 44 100 q 67 -150 65 -139 l 74 -206 l 76 -222 l 100 -218 q 142 -212 124 -215 q 206 -201 160 -208 q 279 -190 260 -193 q 350 -179 310 -186 q 500 -156 447 -165 q 660 -125 656 -129 q 672 -43 667 -118 l 676 -6 l 496 -6 l 350 0 l 350 26 q 363 350 350 75 q 436 347 407 347 q 518 349 472 347 q 592 354 564 351 l 619 357 q 626 369 622 361 q 636 464 636 388 q 629 531 636 501 q 604 530 629 531 q 513 527 579 529 q 369 526 446 525 q 378 694 375 633 q 382 764 379 721 q 548 764 438 764 q 722 763 658 764 q 750 865 739 796 l 769 1054 q 730 1058 756 1056 q 631 1065 704 1060 q 489 1076 557 1071 q 335 1088 421 1082 q 185 1099 250 1094 q 69 1106 121 1103 q 3 1108 18 1108 z "},"":{"ha":782,"x_min":1,"x_max":769,"o":"m 143 1174 q 204 1146 183 1156 q 272 1124 204 1146 q 332 1197 290 1154 q 379 1246 332 1197 q 461 1197 442 1213 q 525 1132 481 1182 q 624 1153 592 1140 q 674 1185 654 1165 q 544 1307 586 1274 q 453 1378 453 1378 l 340 1385 q 312 1381 328 1383 q 288 1376 296 1378 l 278 1374 q 215 1282 260 1346 q 143 1174 211 1276 m 3 1108 q 1 1044 1 1079 q 4 899 1 1008 q 7 738 7 789 q 10 620 7 707 q 17 461 14 533 q 19 386 19 389 q 33 236 21 372 q 55 -19 44 100 q 67 -150 65 -139 l 74 -206 l 76 -222 l 100 -218 q 142 -212 124 -215 q 206 -201 160 -208 q 279 -190 260 -193 q 350 -179 310 -186 q 500 -156 447 -165 q 660 -125 656 -129 q 672 -43 667 -118 l 676 -6 l 496 -6 l 350 0 l 350 26 q 363 350 350 75 q 436 347 407 347 q 518 349 472 347 q 592 354 564 351 l 619 357 q 626 369 622 361 q 636 464 636 388 q 629 531 636 501 q 604 530 629 531 q 513 527 579 529 q 369 526 446 525 q 378 694 375 633 q 382 764 379 721 q 548 764 438 764 q 722 763 658 764 q 750 865 739 796 l 769 1054 q 730 1058 756 1056 q 631 1065 704 1060 q 489 1076 557 1071 q 335 1088 421 1082 q 185 1099 250 1094 q 69 1106 121 1103 q 3 1108 18 1108 z "},"":{"ha":782,"x_min":1,"x_max":769,"o":"m 404 1167 q 485 1165 406 1163 q 600 1165 564 1167 q 607 1351 608 1300 l 607 1361 l 593 1361 q 403 1364 407 1365 q 404 1167 397 1361 m 107 1169 q 188 1167 108 1165 q 303 1168 267 1169 q 310 1354 311 1303 l 310 1364 l 296 1364 q 106 1367 110 1368 q 107 1169 100 1364 m 3 1108 q 1 1044 1 1079 q 4 899 1 1008 q 7 738 7 789 q 10 620 7 707 q 17 461 14 533 q 19 386 19 389 q 33 236 21 372 q 55 -19 44 100 q 67 -150 65 -139 l 74 -206 l 76 -222 l 100 -218 q 142 -212 124 -215 q 206 -201 160 -208 q 279 -190 260 -193 q 350 -179 310 -186 q 500 -156 447 -165 q 660 -125 656 -129 q 672 -43 667 -118 l 676 -6 l 496 -6 l 350 0 l 350 26 q 363 350 350 75 q 436 347 407 347 q 518 349 472 347 q 592 354 564 351 l 619 357 q 626 369 622 361 q 636 464 636 388 q 629 531 636 501 q 604 530 629 531 q 513 527 579 529 q 369 526 446 525 q 378 694 375 633 q 382 764 379 721 q 548 764 438 764 q 722 763 658 764 q 750 865 739 796 l 769 1054 q 730 1058 756 1056 q 631 1065 704 1060 q 489 1076 557 1071 q 335 1088 421 1082 q 185 1099 250 1094 q 69 1106 121 1103 q 3 1108 18 1108 z "},"":{"ha":428,"x_min":-3,"x_max":406,"o":"m 219 1164 q 303 1179 242 1157 q 350 1201 329 1188 q 376 1222 371 1214 l 383 1231 q 293 1354 307 1338 l 239 1419 q 139 1397 168 1410 l 92 1376 q 161 1243 115 1310 q 188 1206 178 1219 q 200 1190 197 1193 q 208 1180 203 1186 q 219 1164 213 1174 m -3 1056 q 38 1057 13 1056 q 123 1060 63 1058 q 224 1060 183 1061 q 310 1056 265 1060 q 381 1050 356 1053 l 404 1047 q 372 142 385 385 q 360 -57 367 33 q 351 -187 354 -147 q 347 -228 347 -228 q 329 -233 347 -232 q 265 -232 311 -233 q 194 -231 219 -231 q 122 -229 160 -231 q 64 -225 85 -228 l 44 -224 q 15 369 32 -25 q 4 651 7 547 q 0 860 1 754 q -3 1056 -1 967 z "},"":{"ha":428,"x_min":-3,"x_max":406,"o":"m 200 1394 q 283 1381 222 1401 q 331 1358 310 1371 q 358 1336 351 1344 l 364 1328 q 274 1204 289 1222 q 219 1139 219 1139 q 119 1161 150 1150 q 72 1183 72 1183 q 143 1317 96 1249 q 168 1352 158 1339 q 181 1369 178 1365 q 188 1379 183 1372 q 200 1394 193 1386 m -3 1056 q 38 1057 13 1056 q 123 1060 63 1058 q 224 1060 183 1061 q 310 1056 265 1060 q 381 1050 356 1053 l 404 1047 q 372 142 385 385 q 360 -57 367 33 q 351 -187 354 -147 q 347 -228 347 -228 q 329 -233 347 -232 q 265 -232 311 -233 q 194 -231 219 -231 q 122 -229 160 -231 q 64 -225 85 -228 l 44 -224 q 15 369 32 -25 q 4 651 7 547 q 0 860 1 754 q -3 1056 -1 967 z "},"":{"ha":428,"x_min":-44,"x_max":489,"o":"m -43 1175 q 18 1147 -3 1157 q 86 1125 18 1147 q 146 1199 104 1156 q 193 1247 146 1199 q 275 1199 256 1214 q 339 1133 294 1183 q 438 1154 406 1142 q 488 1186 468 1167 q 358 1308 400 1275 q 267 1379 267 1379 l 154 1386 q 126 1382 142 1385 q 101 1378 110 1379 l 92 1375 q 29 1283 74 1347 q -43 1175 25 1278 m -3 1056 q 38 1057 13 1056 q 123 1060 63 1058 q 224 1060 183 1061 q 310 1056 265 1060 q 381 1050 356 1053 l 404 1047 q 372 142 385 385 q 360 -57 367 33 q 351 -187 354 -147 q 347 -228 347 -228 q 329 -233 347 -232 q 265 -232 311 -233 q 194 -231 219 -231 q 122 -229 160 -231 q 64 -225 85 -228 l 44 -224 q 15 369 32 -25 q 4 651 7 547 q 0 860 1 754 q -3 1056 -1 967 z "},"":{"ha":428,"x_min":-56,"x_max":453,"o":"m 249 1157 q 329 1155 250 1153 q 444 1156 408 1157 q 451 1342 453 1290 l 451 1351 l 438 1351 q 247 1354 251 1356 q 249 1157 242 1351 m -49 1160 q 32 1158 -47 1156 q 147 1158 111 1160 q 154 1344 156 1293 l 154 1354 l 140 1354 q -50 1357 -46 1358 q -49 1160 -56 1354 m -3 1056 q 38 1057 13 1056 q 123 1060 63 1058 q 224 1060 183 1061 q 310 1056 265 1060 q 381 1050 356 1053 l 404 1047 q 372 142 385 385 q 360 -57 367 33 q 351 -187 354 -147 q 347 -228 347 -228 q 329 -233 347 -232 q 265 -232 311 -233 q 194 -231 219 -231 q 122 -229 160 -231 q 64 -225 85 -228 l 44 -224 q 15 369 32 -25 q 4 651 7 547 q 0 860 1 754 q -3 1056 -1 967 z "},"":{"ha":1222,"x_min":-1,"x_max":1175,"o":"m 704 593 q 717 676 713 657 q 717 701 719 697 q 618 722 713 706 q 444 747 524 738 q 379 756 400 753 q 354 756 356 758 q 344 624 351 750 q 338 458 338 497 q 453 460 453 460 q 456 444 454 454 q 462 408 458 433 q 464 367 465 383 q 453 268 453 268 q 338 272 403 268 l 336 126 q 342 -15 336 -6 q 467 -17 344 -18 q 607 -12 589 -15 q 619 -6 617 -10 q 625 19 622 -1 q 651 188 646 147 q 661 246 657 225 q 664 276 661 254 q 667 304 667 297 l 704 593 m 1085 185 q 953 -129 1035 19 l 929 -172 l 864 -175 q 524 -180 781 -179 q 190 -178 268 -181 q 83 -172 89 -174 q 78 -99 78 -169 l 78 103 q 85 296 76 104 l -1 311 q 6 386 1 350 q 10 421 8 406 q 14 446 13 436 q 92 449 47 447 q 107 801 103 675 q 115 876 110 872 q 151 885 119 881 q 319 907 281 903 q 374 913 358 911 q 509 922 403 917 q 671 928 615 928 l 754 928 l 810 890 q 1051 719 929 808 q 1174 619 1174 631 q 1163 544 1174 613 q 1128 367 1151 475 q 1085 185 1106 260 z "},"":{"ha":1222,"x_min":1,"x_max":1151,"o":"m 411 1188 q 393 1101 396 1121 q 383 1054 393 1101 q 283 1038 350 1044 q 224 1031 233 1031 q 218 1046 215 1032 q 296 1322 290 1315 l 293 1325 q 299 1329 289 1328 q 376 1339 315 1333 q 415 1344 390 1340 q 447 1347 440 1347 q 481 1349 453 1347 q 528 1349 508 1350 q 610 1345 606 1347 q 629 1307 614 1343 q 668 1194 643 1272 q 717 1190 692 1190 l 756 1190 l 774 1269 q 783 1324 783 1324 q 868 1317 818 1322 l 985 1303 q 899 1083 918 1131 q 879 1044 883 1046 q 797 1042 875 1043 q 747 1041 763 1040 q 714 1045 732 1042 q 675 1051 696 1049 q 514 1071 518 1067 q 492 1183 494 1167 l 488 1200 q 451 1197 475 1197 q 431 1194 442 1196 q 415 1190 421 1192 l 411 1188 m 390 -214 q 350 135 361 24 l 324 501 q 582 103 522 197 l 781 -204 q 954 -211 878 -211 l 1119 -206 q 1149 439 1149 264 l 1151 951 q 896 972 933 972 l 765 975 q 761 638 761 724 l 774 357 q 517 701 607 583 l 324 965 q 154 956 196 961 l 3 936 q 25 261 19 399 q 36 88 28 200 q 53 -106 44 -24 l 60 -186 q 229 -206 201 -204 q 390 -214 250 -208 z "},"":{"ha":1004,"x_min":1,"x_max":954,"o":"m 396 976 q 479 992 418 969 q 526 1013 506 1000 q 553 1035 547 1026 l 560 1043 q 469 1167 483 1150 l 415 1232 q 315 1210 344 1222 q 268 1189 268 1189 q 338 1056 292 1122 q 364 1019 354 1032 q 376 1002 374 1006 q 384 992 379 999 q 396 976 389 986 m 954 453 l 951 367 q 921 96 947 222 q 864 -108 910 46 q 847 -147 861 -121 l 836 -171 l 747 -174 q 476 -176 668 -176 q 233 -174 285 -176 q 145 -163 203 -172 q 89 -150 88 -154 l 38 97 q 11 297 25 153 q 4 503 7 344 l 1 660 l 15 700 q 56 797 26 733 q 96 872 86 860 q 140 886 104 882 q 491 901 290 903 q 815 882 692 900 q 865 840 838 879 q 913 743 892 800 q 924 708 924 711 q 924 703 924 708 q 927 688 925 699 q 931 662 929 676 q 936 626 933 647 q 942 579 939 604 q 948 522 944 554 q 954 453 951 489 m 476 46 q 570 46 476 46 q 672 51 665 46 q 688 143 679 57 q 697 403 697 229 q 689 626 697 578 l 682 676 l 658 679 q 476 682 635 682 q 288 679 318 682 l 257 676 l 253 644 q 247 418 243 588 q 264 156 251 249 q 282 51 278 57 q 476 46 286 46 z "},"":{"ha":1004,"x_min":1,"x_max":954,"o":"m 446 1203 q 529 1189 468 1210 q 576 1166 556 1179 q 604 1144 597 1153 l 610 1136 q 519 1013 535 1031 q 465 947 465 947 q 365 969 396 958 l 318 992 q 389 1125 342 1057 q 414 1160 404 1147 q 426 1177 424 1174 q 434 1188 429 1181 q 446 1203 439 1194 m 954 453 l 951 367 q 921 96 947 222 q 864 -108 910 46 q 847 -147 861 -121 l 836 -171 l 747 -174 q 476 -176 668 -176 q 233 -174 285 -176 q 145 -163 203 -172 q 89 -150 88 -154 l 38 97 q 11 297 25 153 q 4 503 7 344 l 1 660 l 15 700 q 56 797 26 733 q 96 872 86 860 q 140 886 104 882 q 491 901 290 903 q 815 882 692 900 q 865 840 838 879 q 913 743 892 800 q 924 708 924 711 q 924 703 924 708 q 927 688 925 699 q 931 662 929 676 q 936 626 933 647 q 942 579 939 604 q 948 522 944 554 q 954 453 951 489 m 476 46 q 570 46 476 46 q 672 51 665 46 q 688 143 679 57 q 697 403 697 229 q 689 626 697 578 l 682 676 l 658 679 q 476 682 635 682 q 288 679 318 682 l 257 676 l 253 644 q 247 418 243 588 q 264 156 251 249 q 282 51 278 57 q 476 46 286 46 z "},"":{"ha":1004,"x_min":1,"x_max":954,"o":"m 233 1007 q 294 981 274 989 q 363 957 294 981 q 422 1032 381 988 q 469 1081 422 1032 q 551 1031 532 1047 q 615 967 571 1015 q 714 986 682 974 q 740 1000 728 992 q 758 1014 753 1008 l 765 1019 q 635 1140 676 1107 l 543 1213 q 431 1218 543 1213 q 368 1207 401 1217 q 306 1117 350 1181 q 233 1007 301 1110 m 954 453 l 951 367 q 921 96 947 222 q 864 -108 910 46 q 847 -147 861 -121 l 836 -171 l 747 -174 q 476 -176 668 -176 q 233 -174 285 -176 q 145 -163 203 -172 q 89 -150 88 -154 l 38 97 q 11 297 25 153 q 4 503 7 344 l 1 660 l 15 700 q 56 797 26 733 q 96 872 86 860 q 140 886 104 882 q 491 901 290 903 q 815 882 692 900 q 865 840 838 879 q 913 743 892 800 q 924 708 924 711 q 924 703 924 708 q 927 688 925 699 q 931 662 929 676 q 936 626 933 647 q 942 579 939 604 q 948 522 944 554 q 954 453 951 489 m 476 46 q 570 46 476 46 q 672 51 665 46 q 688 143 679 57 q 697 403 697 229 q 689 626 697 578 l 682 676 l 658 679 q 476 682 635 682 q 288 679 318 682 l 257 676 l 253 644 q 247 418 243 588 q 264 156 251 249 q 282 51 278 57 q 476 46 286 46 z "},"":{"ha":1004,"x_min":1,"x_max":954,"o":"m 300 1094 q 282 1008 286 1026 q 274 960 282 1008 q 174 943 240 950 q 114 938 124 938 q 108 951 104 938 q 185 1228 179 1221 l 183 1231 q 189 1236 179 1233 q 267 1246 204 1239 q 306 1250 281 1247 q 337 1253 331 1253 q 371 1254 343 1253 q 418 1254 399 1256 q 500 1251 496 1253 q 519 1213 504 1249 q 558 1100 533 1179 q 607 1096 582 1096 l 646 1096 l 664 1175 l 674 1229 q 758 1224 708 1228 l 874 1208 q 788 989 807 1036 q 769 951 774 953 q 686 947 765 949 q 638 947 653 946 q 604 951 622 949 q 564 957 586 954 q 403 978 407 972 q 381 1089 385 1072 l 376 1106 q 342 1103 365 1104 q 300 1094 318 1101 m 954 453 l 951 367 q 921 96 947 222 q 864 -108 910 46 q 847 -147 861 -121 l 836 -171 l 747 -174 q 476 -176 668 -176 q 233 -174 285 -176 q 145 -163 203 -172 q 89 -150 88 -154 l 38 97 q 11 297 25 153 q 4 503 7 344 l 1 660 l 15 700 q 56 797 26 733 q 96 872 86 860 q 140 886 104 882 q 491 901 290 903 q 815 882 692 900 q 865 840 838 879 q 913 743 892 800 q 924 708 924 711 q 924 703 924 708 q 927 688 925 699 q 931 662 929 676 q 936 626 933 647 q 942 579 939 604 q 948 522 944 554 q 954 453 951 489 m 476 46 q 570 46 476 46 q 672 51 665 46 q 688 143 679 57 q 697 403 697 229 q 689 626 697 578 l 682 676 l 658 679 q 476 682 635 682 q 288 679 318 682 l 257 676 l 253 644 q 247 418 243 588 q 264 156 251 249 q 282 51 278 57 q 476 46 286 46 z "},"":{"ha":1004,"x_min":1,"x_max":954,"o":"m 497 968 q 578 966 499 964 q 693 967 657 968 q 700 1153 701 1101 l 700 1163 l 686 1163 q 496 1165 500 1167 q 497 968 490 1163 m 200 971 q 281 969 201 967 q 396 969 360 971 q 403 1156 404 1104 l 403 1165 l 389 1165 q 199 1168 203 1169 q 200 971 193 1165 m 954 453 l 951 367 q 921 96 947 222 q 864 -108 910 46 q 847 -147 861 -121 l 836 -171 l 747 -174 q 476 -176 668 -176 q 233 -174 285 -176 q 145 -163 203 -172 q 89 -150 88 -154 l 38 97 q 11 297 25 153 q 4 503 7 344 l 1 660 l 15 700 q 56 797 26 733 q 96 872 86 860 q 140 886 104 882 q 491 901 290 903 q 815 882 692 900 q 865 840 838 879 q 913 743 892 800 q 924 708 924 711 q 924 703 924 708 q 927 688 925 699 q 931 662 929 676 q 936 626 933 647 q 942 579 939 604 q 948 522 944 554 q 954 453 951 489 m 476 46 q 570 46 476 46 q 672 51 665 46 q 688 143 679 57 q 697 403 697 229 q 689 626 697 578 l 682 676 l 658 679 q 476 682 635 682 q 288 679 318 682 l 257 676 l 253 644 q 247 418 243 588 q 264 156 251 249 q 282 51 278 57 q 476 46 286 46 z "},"":{"ha":800,"x_min":-4,"x_max":738,"o":"m 513 81 q 321 222 404 157 q 293 243 294 243 q 254 188 289 242 q 201 100 219 133 q 188 79 190 79 q 143 98 182 79 q 82 129 104 117 q 22 169 31 160 q 46 206 21 174 q 143 328 96 271 q 158 351 158 349 q 144 365 158 354 q 38 460 96 406 q -3 500 -1 496 q 48 528 -4 506 q 157 568 100 550 l 165 571 l 175 558 q 243 486 206 524 l 261 467 l 314 521 q 422 626 371 581 q 479 672 472 672 q 553 653 490 672 q 638 625 617 635 q 648 621 643 622 q 653 617 653 619 q 635 601 653 615 q 501 488 561 546 q 428 413 464 453 q 392 368 392 372 q 472 317 392 361 q 614 244 551 272 q 643 231 632 236 q 656 225 656 225 q 664 222 657 225 q 703 205 671 218 q 736 189 735 192 q 658 113 738 185 q 606 68 639 94 q 571 42 574 42 q 513 81 568 42 z "},"":{"ha":1004,"x_min":-90,"x_max":1133,"o":"m 475 46 q 672 51 665 46 q 689 143 679 57 q 697 289 696 214 q 676 267 686 278 q 458 46 606 192 q 467 46 461 46 q 475 46 472 46 m 954 453 l 951 367 q 921 96 947 222 q 864 -108 910 46 q 847 -147 861 -121 l 836 -171 l 747 -174 q 481 -176 669 -176 q 236 -174 292 -176 q 90 -317 90 -317 q 0 -244 43 -283 q -42 -199 -19 -228 q -78 -150 -64 -171 l -90 -131 q 50 38 -39 -64 l 38 97 q 11 297 25 153 q 4 503 7 344 l 1 660 l 15 700 q 56 797 26 733 q 96 872 86 860 q 140 886 104 882 q 491 901 290 903 q 815 882 692 900 q 857 851 833 879 l 951 942 q 982 931 965 936 q 1014 920 999 926 q 1049 903 1029 914 q 1090 867 1068 892 q 1122 824 1111 843 q 1132 806 1133 806 q 1108 776 1132 806 q 1035 687 1083 747 q 943 574 986 626 q 954 453 949 517 m 674 678 l 658 679 q 476 682 635 682 q 288 679 318 682 l 257 676 l 253 644 q 247 483 246 597 q 254 261 247 368 q 324 333 289 299 q 674 678 460 471 z "},"":{"ha":1004,"x_min":4,"x_max":964,"o":"m 396 976 q 479 992 418 969 q 526 1013 506 1000 q 553 1035 547 1026 l 560 1043 q 469 1167 483 1150 l 415 1232 q 315 1210 344 1222 q 268 1189 268 1189 q 338 1056 292 1122 q 364 1019 354 1032 q 376 1002 374 1006 q 384 992 379 999 q 396 976 389 986 m 633 78 q 651 286 646 82 q 647 653 656 490 q 642 787 643 751 q 641 822 640 822 q 642 865 642 822 q 675 869 656 867 q 705 872 694 871 q 749 868 715 872 q 816 863 767 865 q 922 849 865 861 q 937 688 925 774 q 956 547 949 603 q 964 406 964 492 q 950 224 964 319 q 931 113 942 167 q 911 19 921 60 q 891 -58 901 -22 q 873 -119 881 -94 q 858 -162 865 -144 q 847 -189 851 -181 l 844 -199 l 428 -199 q 237 -190 343 -199 q 103 -179 131 -181 q 71 -51 90 -115 q 38 86 51 14 q 14 290 24 158 q 7 472 4 386 q 16 599 10 558 q 31 711 22 640 q 44 849 40 782 q 148 861 107 857 q 215 867 189 865 q 244 868 242 868 q 281 869 247 869 q 321 868 314 868 q 310 766 318 829 q 299 659 303 703 q 294 585 294 615 q 298 479 296 565 q 302 322 300 393 q 306 228 304 250 q 322 75 315 124 q 387 72 335 75 q 469 71 439 69 q 528 72 488 71 q 597 74 569 74 q 633 78 625 75 z "},"":{"ha":1004,"x_min":4,"x_max":964,"o":"m 446 1203 q 529 1189 468 1210 q 576 1166 556 1179 q 604 1144 597 1153 l 610 1136 q 519 1013 535 1031 q 465 947 465 947 q 365 969 396 958 l 318 992 q 389 1125 342 1057 q 414 1160 404 1147 q 426 1177 424 1174 q 434 1188 429 1181 q 446 1203 439 1194 m 633 78 q 651 286 646 82 q 647 653 656 490 q 642 787 643 751 q 641 822 640 822 q 642 865 642 822 q 675 869 656 867 q 705 872 694 871 q 749 868 715 872 q 816 863 767 865 q 922 849 865 861 q 937 688 925 774 q 956 547 949 603 q 964 406 964 492 q 950 224 964 319 q 931 113 942 167 q 911 19 921 60 q 891 -58 901 -22 q 873 -119 881 -94 q 858 -162 865 -144 q 847 -189 851 -181 l 844 -199 l 428 -199 q 237 -190 343 -199 q 103 -179 131 -181 q 71 -51 90 -115 q 38 86 51 14 q 14 290 24 158 q 7 472 4 386 q 16 599 10 558 q 31 711 22 640 q 44 849 40 782 q 148 861 107 857 q 215 867 189 865 q 244 868 242 868 q 281 869 247 869 q 321 868 314 868 q 310 766 318 829 q 299 659 303 703 q 294 585 294 615 q 298 479 296 565 q 302 322 300 393 q 306 228 304 250 q 322 75 315 124 q 387 72 335 75 q 469 71 439 69 q 528 72 488 71 q 597 74 569 74 q 633 78 625 75 z "},"":{"ha":1004,"x_min":4,"x_max":964,"o":"m 233 1007 q 294 981 274 989 q 363 957 294 981 q 422 1032 381 988 q 469 1081 422 1032 q 551 1031 532 1047 q 615 967 571 1015 q 714 986 682 974 q 740 1000 728 992 q 758 1014 753 1008 l 765 1019 q 635 1140 676 1107 l 543 1213 q 431 1218 543 1213 q 368 1207 401 1217 q 306 1117 350 1181 q 233 1007 301 1110 m 633 78 q 651 286 646 82 q 647 653 656 490 q 642 787 643 751 q 641 822 640 822 q 642 865 642 822 q 675 869 656 867 q 705 872 694 871 q 749 868 715 872 q 816 863 767 865 q 922 849 865 861 q 937 688 925 774 q 956 547 949 603 q 964 406 964 492 q 950 224 964 319 q 931 113 942 167 q 911 19 921 60 q 891 -58 901 -22 q 873 -119 881 -94 q 858 -162 865 -144 q 847 -189 851 -181 l 844 -199 l 428 -199 q 237 -190 343 -199 q 103 -179 131 -181 q 71 -51 90 -115 q 38 86 51 14 q 14 290 24 158 q 7 472 4 386 q 16 599 10 558 q 31 711 22 640 q 44 849 40 782 q 148 861 107 857 q 215 867 189 865 q 244 868 242 868 q 281 869 247 869 q 321 868 314 868 q 310 766 318 829 q 299 659 303 703 q 294 585 294 615 q 298 479 296 565 q 302 322 300 393 q 306 228 304 250 q 322 75 315 124 q 387 72 335 75 q 469 71 439 69 q 528 72 488 71 q 597 74 569 74 q 633 78 625 75 z "},"":{"ha":1004,"x_min":4,"x_max":964,"o":"m 497 968 q 578 966 499 964 q 693 967 657 968 q 700 1153 701 1101 l 700 1163 l 686 1163 q 496 1165 500 1167 q 497 968 490 1163 m 200 971 q 281 969 201 967 q 396 969 360 971 q 403 1156 404 1104 l 403 1165 l 389 1165 q 199 1168 203 1169 q 200 971 193 1165 m 633 78 q 651 286 646 82 q 647 653 656 490 q 642 787 643 751 q 641 822 640 822 q 642 865 642 822 q 675 869 656 867 q 705 872 694 871 q 749 868 715 872 q 816 863 767 865 q 922 849 865 861 q 937 688 925 774 q 956 547 949 603 q 964 406 964 492 q 950 224 964 319 q 931 113 942 167 q 911 19 921 60 q 891 -58 901 -22 q 873 -119 881 -94 q 858 -162 865 -144 q 847 -189 851 -181 l 844 -199 l 428 -199 q 237 -190 343 -199 q 103 -179 131 -181 q 71 -51 90 -115 q 38 86 51 14 q 14 290 24 158 q 7 472 4 386 q 16 599 10 558 q 31 711 22 640 q 44 849 40 782 q 148 861 107 857 q 215 867 189 865 q 244 868 242 868 q 281 869 247 869 q 321 868 314 868 q 310 766 318 829 q 299 659 303 703 q 294 585 294 615 q 298 479 296 565 q 302 322 300 393 q 306 228 304 250 q 322 75 315 124 q 387 72 335 75 q 469 71 439 69 q 528 72 488 71 q 597 74 569 74 q 633 78 625 75 z "},"":{"ha":1364,"x_min":6,"x_max":1324,"o":"m 549 1108 q 632 1094 571 1115 q 679 1072 658 1085 q 707 1050 700 1058 l 713 1042 q 622 918 638 936 q 568 853 568 853 q 468 875 499 864 l 421 897 q 492 1031 444 963 q 517 1066 507 1053 q 529 1083 526 1079 q 537 1093 532 1086 q 549 1108 542 1100 m 342 731 q 431 632 363 699 q 535 531 535 531 q 690 683 553 547 q 971 928 828 819 q 979 926 972 928 q 1040 911 988 925 q 1160 878 1093 897 q 1250 850 1228 860 q 1276 838 1263 844 q 1299 829 1290 832 q 1313 824 1307 826 q 1322 819 1319 821 q 1322 817 1324 818 q 1268 778 1317 814 q 1140 677 1219 742 q 1003 557 1061 613 q 869 438 944 501 q 747 338 793 374 l 700 301 q 729 50 721 131 q 761 -264 761 -258 l 761 -265 q 749 -279 764 -278 q 567 -282 678 -285 l 392 -278 q 389 -47 397 -239 l 382 276 q 214 406 253 367 l 6 592 q 342 731 213 678 z "},"":{"ha":1068,"x_min":-14,"x_max":1019,"o":"m 563 193 q 645 193 563 193 q 732 196 728 193 q 736 274 736 199 q 707 549 735 436 l 703 565 l 621 565 q 439 553 451 564 q 429 513 436 549 q 419 463 424 481 q 392 231 399 353 q 393 196 389 199 q 563 193 397 193 m 310 -193 q 272 -199 306 -193 q 199 -210 253 -201 q 135 -219 153 -217 q 93 -226 117 -224 l 69 -229 l 67 -212 l 60 -158 q 47 -27 57 -146 q 25 228 36 92 q 13 378 14 364 q 9 453 13 381 q 3 612 6 525 q 0 729 0 699 q -4 1097 -14 1094 q 145 1090 7 1101 q 338 1069 283 1079 l 364 1065 l 361 1051 q 342 757 357 1024 q 456 768 376 761 q 769 778 596 782 q 872 774 867 775 q 896 728 878 772 q 1011 288 983 525 q 1019 217 1019 229 q 1010 188 1018 204 q 947 91 989 144 q 867 7 906 38 l 854 -3 l 758 -8 q 526 -11 597 -17 q 438 -7 517 -10 q 372 -2 385 -4 q 351 6 358 0 q 308 40 339 14 q 308 14 308 22 l 310 -193 z "},"":{"ha":1028,"x_min":-3,"x_max":1007,"o":"m 357 463 q 490 494 368 464 q 615 526 613 524 q 626 593 619 531 q 639 676 635 656 q 639 701 642 697 q 540 722 635 706 q 367 747 446 738 q 301 756 322 753 q 276 756 278 758 q 263 510 272 750 q 256 264 253 269 l 258 126 q 264 -15 263 -11 l 261 -179 q 113 -178 128 -178 q 6 -172 13 -174 q 0 -99 0 -169 l 0 103 q 13 425 -3 106 q 29 801 25 665 q 37 876 32 872 q 74 885 42 881 q 242 907 203 903 q 296 913 281 911 q 431 922 325 917 q 593 928 538 928 l 676 928 l 732 890 q 894 768 815 833 q 972 690 972 703 q 956 638 972 685 q 929 563 940 590 q 898 499 908 513 q 854 461 888 485 q 760 407 813 433 q 706 378 710 381 q 709 372 704 376 q 723 363 714 368 q 744 351 732 357 q 828 303 785 329 q 872 278 869 278 q 975 213 879 278 q 1007 185 1007 192 q 959 51 1006 163 q 875 -129 913 -61 l 851 -172 l 786 -175 q 360 -181 678 -179 q 357 -167 358 -175 q 353 -134 356 -158 q 353 -89 351 -110 q 358 -50 354 -68 q 364 -25 361 -32 l 367 -17 q 529 -12 514 -15 q 542 -6 539 -10 q 547 19 544 -1 q 574 188 568 147 q 583 246 579 225 q 589 304 586 272 l 592 338 l 565 332 q 550 328 560 331 q 533 324 540 326 q 521 322 525 322 q 435 303 510 319 q 343 283 361 288 q 338 326 338 289 q 344 408 339 364 l 349 453 q 357 463 349 461 z "},"":{"ha":1154,"x_min":-6,"x_max":1140,"o":"m 542 836 q 625 850 564 829 q 672 873 651 860 q 700 894 693 886 l 706 903 q 615 1026 631 1008 q 561 1092 561 1092 q 461 1069 492 1081 l 414 1047 q 485 914 438 982 q 510 878 500 892 q 522 862 519 865 q 530 851 525 858 q 542 836 535 844 m 1119 -161 q 1110 -174 1118 -168 l 782 -167 q 781 -168 781 -167 q 775 -167 781 -168 q 769 -147 771 -167 l 769 -128 q 717 -157 747 -143 q 690 -166 703 -162 q 671 -169 678 -169 l 664 -171 q 585 -173 657 -174 q 489 -171 513 -172 q 376 -165 476 -169 q 294 -160 311 -162 q 268 -151 276 -158 q 195 -95 247 -137 q 121 -32 143 -53 q 3 86 11 71 q 32 250 -4 99 q 48 329 36 269 q 64 404 60 389 q 111 556 85 476 q 153 682 138 636 q 172 729 169 728 q 174 733 172 729 q 181 742 176 738 q 192 752 185 746 q 215 765 200 758 q 249 776 229 771 q 299 788 268 782 q 368 796 329 793 q 424 801 390 797 q 462 806 457 806 q 504 807 467 806 q 574 806 542 808 q 635 803 628 804 q 645 794 639 801 q 658 776 651 788 q 674 752 665 765 q 689 726 682 739 q 702 703 696 714 q 711 688 708 693 l 715 682 q 717 709 717 689 q 719 746 718 729 q 719 763 719 763 q 724 764 722 764 q 1097 733 860 781 q 1103 728 1103 729 q 1124 606 1117 678 q 1133 482 1132 535 q 1135 329 1135 429 q 1136 189 1135 229 q 1139 8 1140 88 q 1119 -161 1138 -72 m 530 46 q 649 46 530 46 q 774 50 768 46 q 779 157 781 54 q 771 325 778 263 q 743 465 764 388 l 738 489 l 579 556 q 353 539 368 556 q 338 485 347 533 q 324 417 329 439 q 299 260 313 361 q 283 99 286 158 q 286 50 281 54 q 530 46 292 46 z "},"":{"ha":1154,"x_min":-6,"x_max":1140,"o":"m 519 1096 q 603 1081 542 1101 q 650 1058 629 1071 q 678 1036 671 1044 l 683 1028 q 593 904 608 922 q 539 839 539 839 q 439 861 469 850 l 392 883 q 463 1017 415 950 q 488 1053 478 1040 q 500 1070 497 1067 q 508 1080 503 1074 q 519 1096 513 1086 m 1119 -161 q 1110 -174 1118 -168 l 782 -167 q 781 -168 781 -167 q 775 -167 781 -168 q 769 -147 771 -167 l 769 -128 q 717 -157 747 -143 q 690 -166 703 -162 q 671 -169 678 -169 l 664 -171 q 585 -173 657 -174 q 489 -171 513 -172 q 376 -165 476 -169 q 294 -160 311 -162 q 268 -151 276 -158 q 195 -95 247 -137 q 121 -32 143 -53 q 3 86 11 71 q 32 250 -4 99 q 48 329 36 269 q 64 404 60 389 q 111 556 85 476 q 153 682 138 636 q 172 729 169 728 q 174 733 172 729 q 181 742 176 738 q 192 752 185 746 q 215 765 200 758 q 249 776 229 771 q 299 788 268 782 q 368 796 329 793 q 424 801 390 797 q 462 806 457 806 q 504 807 467 806 q 574 806 542 808 q 635 803 628 804 q 645 794 639 801 q 658 776 651 788 q 674 752 665 765 q 689 726 682 739 q 702 703 696 714 q 711 688 708 693 l 715 682 q 717 709 717 689 q 719 746 718 729 q 719 763 719 763 q 724 764 722 764 q 1097 733 860 781 q 1103 728 1103 729 q 1124 606 1117 678 q 1133 482 1132 535 q 1135 329 1135 429 q 1136 189 1135 229 q 1139 8 1140 88 q 1119 -161 1138 -72 m 530 46 q 649 46 530 46 q 774 50 768 46 q 779 157 781 54 q 771 325 778 263 q 743 465 764 388 l 738 489 l 579 556 q 353 539 368 556 q 338 485 347 533 q 324 417 329 439 q 299 260 313 361 q 283 99 286 158 q 286 50 281 54 q 530 46 292 46 z "},"":{"ha":1154,"x_min":-6,"x_max":1140,"o":"m 285 872 q 346 844 325 854 q 414 822 346 844 q 474 896 432 853 q 521 944 474 896 q 603 896 583 911 q 667 831 622 881 q 765 851 733 839 q 815 883 796 864 q 686 1006 728 972 q 594 1076 594 1076 l 482 1083 q 453 1079 469 1082 q 429 1075 438 1076 l 419 1072 q 357 981 401 1044 q 285 872 353 975 m 1119 -161 q 1110 -174 1118 -168 l 782 -167 q 781 -168 781 -167 q 775 -167 781 -168 q 769 -147 771 -167 l 769 -128 q 717 -157 747 -143 q 690 -166 703 -162 q 671 -169 678 -169 l 664 -171 q 585 -173 657 -174 q 489 -171 513 -172 q 376 -165 476 -169 q 294 -160 311 -162 q 268 -151 276 -158 q 195 -95 247 -137 q 121 -32 143 -53 q 3 86 11 71 q 32 250 -4 99 q 48 329 36 269 q 64 404 60 389 q 111 556 85 476 q 153 682 138 636 q 172 729 169 728 q 174 733 172 729 q 181 742 176 738 q 192 752 185 746 q 215 765 200 758 q 249 776 229 771 q 299 788 268 782 q 368 796 329 793 q 424 801 390 797 q 462 806 457 806 q 504 807 467 806 q 574 806 542 808 q 635 803 628 804 q 645 794 639 801 q 658 776 651 788 q 674 752 665 765 q 689 726 682 739 q 702 703 696 714 q 711 688 708 693 l 715 682 q 717 709 717 689 q 719 746 718 729 q 719 763 719 763 q 724 764 722 764 q 1097 733 860 781 q 1103 728 1103 729 q 1124 606 1117 678 q 1133 482 1132 535 q 1135 329 1135 429 q 1136 189 1135 229 q 1139 8 1140 88 q 1119 -161 1138 -72 m 530 46 q 649 46 530 46 q 774 50 768 46 q 779 157 781 54 q 771 325 778 263 q 743 465 764 388 l 738 489 l 579 556 q 353 539 368 556 q 338 485 347 533 q 324 417 329 439 q 299 260 313 361 q 283 99 286 158 q 286 50 281 54 q 530 46 292 46 z "},"":{"ha":1154,"x_min":-6,"x_max":1140,"o":"m 383 958 q 365 872 369 892 q 357 825 365 872 q 257 808 324 815 q 197 802 207 801 q 192 817 188 803 q 268 1093 263 1086 l 267 1096 q 272 1100 263 1099 q 350 1111 288 1104 q 389 1115 364 1113 q 420 1118 414 1118 q 454 1119 426 1118 q 501 1119 482 1121 q 583 1116 579 1118 q 603 1078 588 1114 q 642 965 617 1043 q 690 961 665 961 l 729 961 l 747 1040 l 757 1094 q 842 1088 792 1093 l 957 1074 q 872 854 890 901 q 853 815 857 817 q 769 813 849 814 q 721 812 736 811 q 688 816 706 813 q 647 822 669 819 q 486 842 490 838 q 464 954 468 938 l 461 971 q 425 968 449 968 q 383 958 401 967 m 1119 -161 q 1110 -174 1118 -168 l 782 -167 q 781 -168 781 -167 q 775 -167 781 -168 q 769 -147 771 -167 l 769 -128 q 717 -157 747 -143 q 690 -166 703 -162 q 671 -169 678 -169 l 664 -171 q 585 -173 657 -174 q 489 -171 513 -172 q 376 -165 476 -169 q 294 -160 311 -162 q 268 -151 276 -158 q 195 -95 247 -137 q 121 -32 143 -53 q 3 86 11 71 q 32 250 -4 99 q 48 329 36 269 q 64 404 60 389 q 111 556 85 476 q 153 682 138 636 q 172 729 169 728 q 174 733 172 729 q 181 742 176 738 q 192 752 185 746 q 215 765 200 758 q 249 776 229 771 q 299 788 268 782 q 368 796 329 793 q 424 801 390 797 q 462 806 457 806 q 504 807 467 806 q 574 806 542 808 q 635 803 628 804 q 645 794 639 801 q 658 776 651 788 q 674 752 665 765 q 689 726 682 739 q 702 703 696 714 q 711 688 708 693 l 715 682 q 717 709 717 689 q 719 746 718 729 q 719 763 719 763 q 724 764 722 764 q 1097 733 860 781 q 1103 728 1103 729 q 1124 606 1117 678 q 1133 482 1132 535 q 1135 329 1135 429 q 1136 189 1135 229 q 1139 8 1140 88 q 1119 -161 1138 -72 m 530 46 q 649 46 530 46 q 774 50 768 46 q 779 157 781 54 q 771 325 778 263 q 743 465 764 388 l 738 489 l 579 556 q 353 539 368 556 q 338 485 347 533 q 324 417 329 439 q 299 260 313 361 q 283 99 286 158 q 286 50 281 54 q 530 46 292 46 z "},"":{"ha":1154,"x_min":-6,"x_max":1140,"o":"m 607 833 q 687 831 607 829 q 803 832 767 833 q 808 1018 811 967 l 808 1028 l 794 1028 q 604 1029 608 1031 q 607 833 600 1028 m 310 836 q 390 834 310 832 q 506 835 469 836 q 511 1021 514 969 l 511 1031 l 497 1031 q 307 1032 311 1033 q 310 836 303 1031 m 1119 -161 q 1110 -174 1118 -168 l 782 -167 q 781 -168 781 -167 q 775 -167 781 -168 q 769 -147 771 -167 l 769 -128 q 717 -157 747 -143 q 690 -166 703 -162 q 671 -169 678 -169 l 664 -171 q 585 -173 657 -174 q 489 -171 513 -172 q 376 -165 476 -169 q 294 -160 311 -162 q 268 -151 276 -158 q 195 -95 247 -137 q 121 -32 143 -53 q 3 86 11 71 q 32 250 -4 99 q 48 329 36 269 q 64 404 60 389 q 111 556 85 476 q 153 682 138 636 q 172 729 169 728 q 174 733 172 729 q 181 742 176 738 q 192 752 185 746 q 215 765 200 758 q 249 776 229 771 q 299 788 268 782 q 368 796 329 793 q 424 801 390 797 q 462 806 457 806 q 504 807 467 806 q 574 806 542 808 q 635 803 628 804 q 645 794 639 801 q 658 776 651 788 q 674 752 665 765 q 689 726 682 739 q 702 703 696 714 q 711 688 708 693 l 715 682 q 717 709 717 689 q 719 746 718 729 q 719 763 719 763 q 724 764 722 764 q 1097 733 860 781 q 1103 728 1103 729 q 1124 606 1117 678 q 1133 482 1132 535 q 1135 329 1135 429 q 1136 189 1135 229 q 1139 8 1140 88 q 1119 -161 1138 -72 m 530 46 q 649 46 530 46 q 774 50 768 46 q 779 157 781 54 q 771 325 778 263 q 743 465 764 388 l 738 489 l 579 556 q 353 539 368 556 q 338 485 347 533 q 324 417 329 439 q 299 260 313 361 q 283 99 286 158 q 286 50 281 54 q 530 46 292 46 z "},"":{"ha":1154,"x_min":-6,"x_max":1140,"o":"m 413 1019 q 449 1119 442 1114 q 526 1128 451 1122 q 661 1132 586 1133 q 705 1130 703 1131 q 715 1113 707 1129 q 764 951 753 1039 q 764 915 768 922 q 703 849 742 875 l 697 844 l 656 843 q 557 842 588 839 q 518 843 551 842 q 481 847 486 844 q 432 885 458 863 q 392 921 394 917 q 401 972 389 925 q 407 997 403 978 q 413 1019 411 1015 m 576 931 q 605 931 576 931 q 635 932 633 931 q 636 956 636 933 q 626 1042 635 1007 l 625 1047 l 596 1047 q 535 1043 538 1047 q 531 1031 533 1042 q 528 1015 528 1021 q 518 943 519 981 q 518 931 517 932 q 576 931 519 931 m 1119 -161 q 1110 -174 1118 -168 l 782 -167 q 781 -168 781 -167 q 775 -167 781 -168 q 769 -147 771 -167 q 769 -128 769 -147 q 717 -157 747 -143 q 690 -166 703 -162 q 671 -169 678 -169 l 664 -171 q 585 -173 657 -174 q 489 -171 513 -172 q 376 -165 476 -169 q 294 -160 311 -162 q 268 -151 276 -158 q 195 -95 247 -137 q 121 -32 143 -53 q 3 86 11 71 q 32 250 -4 99 q 48 329 36 269 q 64 404 60 389 q 111 556 85 476 q 153 682 138 636 q 172 729 169 728 q 174 733 172 729 q 181 742 176 738 q 192 752 185 746 q 215 765 200 758 q 249 776 229 771 q 299 788 268 782 q 368 796 329 793 q 424 801 390 797 q 462 806 457 806 q 504 807 467 806 q 574 806 542 808 q 635 803 628 804 q 645 794 639 801 q 658 776 651 788 q 674 752 665 765 q 689 726 682 739 q 702 703 696 714 q 711 688 708 693 l 715 682 q 717 709 717 689 q 719 746 718 729 q 719 763 719 763 q 724 764 722 764 q 1097 733 860 781 q 1103 728 1103 729 q 1124 606 1117 678 q 1133 482 1132 535 q 1135 329 1135 429 q 1136 189 1135 229 q 1139 8 1140 88 q 1119 -161 1138 -72 m 530 46 q 649 46 530 46 q 774 50 768 46 q 779 157 781 54 q 771 325 778 263 q 743 465 764 388 l 738 489 l 579 556 q 353 539 368 556 q 338 485 347 533 q 324 417 329 439 q 299 260 313 361 q 283 99 286 158 q 286 50 281 54 q 530 46 292 46 z "},"":{"ha":1800,"x_min":-6,"x_max":1775,"o":"m 530 46 q 649 46 530 46 q 774 50 768 46 q 779 157 781 54 q 771 325 778 263 q 743 465 764 388 l 738 489 l 579 556 q 353 539 368 556 q 338 485 347 533 q 324 417 329 439 q 299 260 313 361 q 283 99 286 158 q 286 50 281 54 q 530 46 292 46 m 1732 356 q 1730 348 1732 353 q 1713 331 1728 343 q 1673 307 1697 318 q 1597 283 1649 296 q 1476 261 1544 269 q 988 172 1261 233 q 1015 38 989 108 q 1274 36 1114 35 q 1439 40 1435 38 q 1444 131 1446 44 q 1606 151 1444 132 q 1765 174 1767 171 q 1775 90 1775 104 q 1764 56 1775 75 q 1684 -60 1738 3 q 1583 -160 1631 -122 l 1568 -171 l 1447 -178 q 1154 -181 1243 -187 q 1042 -175 1142 -179 l 782 -167 q 781 -167 782 -167 q 775 -167 779 -168 q 769 -147 771 -167 l 769 -128 q 717 -157 747 -143 q 690 -166 703 -162 q 671 -169 678 -169 l 664 -171 q 585 -173 657 -174 q 489 -171 513 -172 q 376 -165 476 -169 q 294 -160 311 -162 q 268 -151 276 -158 q 195 -95 247 -137 q 121 -32 143 -53 q 3 86 11 71 q 32 250 -4 99 q 48 329 36 269 q 64 404 60 389 q 111 556 85 476 q 153 682 138 636 q 172 729 169 728 q 174 733 172 729 q 181 742 176 738 q 192 752 185 746 q 215 765 200 758 q 249 776 229 771 q 299 788 268 782 q 368 796 329 793 q 424 801 390 797 q 462 806 457 806 q 504 807 467 806 q 574 806 542 808 q 635 803 628 804 q 645 794 639 801 q 658 776 651 788 q 674 752 665 765 q 689 726 682 739 q 702 703 696 714 q 711 688 708 693 l 715 682 q 722 688 717 685 q 735 695 728 692 q 753 701 743 699 q 772 707 763 704 q 790 712 782 710 q 803 715 797 714 q 808 715 808 715 q 813 717 810 717 q 938 735 906 728 q 942 736 939 736 q 950 738 946 738 q 1064 746 979 738 q 1461 757 1242 761 q 1590 752 1583 754 q 1621 697 1596 750 q 1732 356 1668 592 m 1424 414 l 1421 439 q 1403 522 1413 485 l 1397 546 l 1279 546 q 1057 536 1142 544 q 1033 443 1050 508 q 1008 343 1017 378 q 1193 375 1094 360 l 1424 414 z "},"":{"ha":1154,"x_min":-6,"x_max":1110,"o":"m 464 -61 q 498 -23 472 -31 q 544 -24 524 -15 q 564 -39 565 -32 q 557 -112 564 -40 q 550 -185 550 -185 l 818 -267 q 828 -315 825 -289 q 829 -357 831 -342 l 829 -372 q 758 -464 783 -443 l 753 -468 l 706 -471 q 592 -472 626 -475 q 547 -469 586 -472 q 506 -464 511 -468 q 449 -412 478 -444 q 403 -362 406 -369 q 417 -281 400 -360 q 419 -282 418 -281 q 560 -329 443 -285 q 557 -345 560 -332 q 554 -361 554 -358 q 555 -376 553 -375 q 617 -378 557 -378 q 680 -378 678 -379 q 682 -337 682 -376 q 682 -333 682 -336 q 549 -286 667 -329 q 424 -242 432 -243 q 464 -61 432 -194 m 1093 235 q 1100 183 1099 199 q 1110 100 1110 114 q 1099 65 1110 86 q 1019 -49 1072 14 q 918 -149 965 -112 l 903 -161 l 782 -167 q 489 -171 578 -178 q 376 -165 476 -169 q 294 -160 311 -162 q 268 -151 276 -158 q 195 -95 247 -137 q 121 -32 143 -53 q 3 86 11 71 q 32 250 -4 99 q 48 329 36 269 q 64 404 60 389 q 111 556 85 476 q 153 682 138 636 q 172 729 169 728 q 399 756 178 736 q 796 768 576 772 q 924 763 918 765 q 956 707 931 760 q 988 623 968 678 q 1022 529 1008 568 l 1036 489 q 888 464 967 471 q 754 456 754 456 q 738 532 744 508 l 732 556 l 614 556 q 439 550 519 556 q 353 539 358 544 q 338 485 347 533 q 324 417 329 439 q 299 260 313 361 q 283 99 286 158 q 286 50 281 54 q 530 46 292 46 q 774 50 768 46 q 779 157 781 54 q 776 231 776 231 q 892 243 794 233 q 987 245 942 247 q 1063 239 1032 243 l 1093 235 z "},"":{"ha":1154,"x_min":-6,"x_max":1110,"o":"m 501 813 q 585 828 524 807 q 632 851 611 838 q 660 872 653 864 l 665 881 q 575 1004 590 986 q 521 1069 521 1069 q 421 1047 451 1058 l 374 1025 q 444 892 397 958 q 469 855 460 868 q 482 838 479 842 q 490 828 485 835 q 501 813 494 822 m 758 424 l 756 449 q 738 532 747 496 l 732 556 l 614 556 q 439 550 519 556 q 353 539 358 544 q 338 485 347 533 q 324 417 332 454 q 308 346 308 346 q 528 385 394 365 l 758 424 m 1067 365 q 1064 358 1067 363 q 1047 341 1061 354 q 1008 317 1032 328 q 931 292 983 306 q 811 271 879 279 q 573 233 703 257 q 367 193 443 210 l 292 176 l 290 172 q 283 99 285 115 q 286 50 281 54 q 530 46 292 46 q 774 50 768 46 q 779 140 781 54 q 940 162 779 143 q 1100 183 1100 181 q 1110 100 1110 114 q 1099 65 1110 86 q 1019 -49 1072 14 q 918 -149 965 -112 l 903 -161 l 782 -167 q 489 -171 578 -178 q 376 -165 476 -169 q 294 -160 311 -162 q 268 -151 276 -158 q 195 -95 247 -137 q 121 -32 143 -53 q 3 86 11 71 q 32 250 -4 99 q 48 329 36 269 q 64 404 60 389 q 111 556 85 476 q 153 682 138 636 q 172 729 169 728 q 399 756 178 736 q 796 768 576 772 q 924 763 918 765 q 956 707 931 760 q 1067 365 1003 601 z "},"":{"ha":1154,"x_min":-6,"x_max":1110,"o":"m 482 1061 q 565 1047 504 1068 q 613 1024 592 1038 q 640 1003 633 1011 l 646 994 q 556 871 571 889 q 501 806 501 806 q 401 828 432 817 l 354 850 q 425 983 378 915 q 450 1019 440 1006 q 463 1035 460 1032 q 470 1046 465 1039 q 482 1061 475 1053 m 758 424 l 756 449 q 738 532 747 496 l 732 556 l 614 556 q 439 550 519 556 q 353 539 358 544 q 338 485 347 533 q 324 417 332 454 q 308 346 308 346 q 528 385 394 365 l 758 424 m 1067 365 q 1064 358 1067 363 q 1047 341 1061 354 q 1008 317 1032 328 q 931 292 983 306 q 811 271 879 279 q 573 233 703 257 q 367 193 443 210 l 292 176 l 290 172 q 283 99 285 115 q 286 50 281 54 q 530 46 292 46 q 774 50 768 46 q 779 140 781 54 q 940 162 779 143 q 1100 183 1100 181 q 1110 100 1110 114 q 1099 65 1110 86 q 1019 -49 1072 14 q 918 -149 965 -112 l 903 -161 l 782 -167 q 489 -171 578 -178 q 376 -165 476 -169 q 294 -160 311 -162 q 268 -151 276 -158 q 195 -95 247 -137 q 121 -32 143 -53 q 3 86 11 71 q 32 250 -4 99 q 48 329 36 269 q 64 404 60 389 q 111 556 85 476 q 153 682 138 636 q 172 729 169 728 q 399 756 178 736 q 796 768 576 772 q 924 763 918 765 q 956 707 931 760 q 1067 365 1003 601 z "},"":{"ha":1154,"x_min":-6,"x_max":1110,"o":"m 278 843 q 339 817 318 826 q 407 794 339 817 q 467 868 425 824 q 514 917 467 868 q 596 868 576 883 q 660 803 615 853 q 758 824 726 811 q 808 856 789 836 q 679 976 721 944 q 588 1049 588 1049 l 475 1054 q 447 1051 463 1054 q 422 1046 431 1049 l 413 1044 q 350 953 394 1017 q 278 843 346 946 m 758 424 l 756 449 q 738 532 747 496 l 732 556 l 614 556 q 439 550 519 556 q 353 539 358 544 q 338 485 347 533 q 324 417 332 454 q 308 346 308 346 q 528 385 394 365 l 758 424 m 1067 365 q 1064 358 1067 363 q 1047 341 1061 354 q 1008 317 1032 328 q 931 292 983 306 q 811 271 879 279 q 573 233 703 257 q 367 193 443 210 l 292 176 l 290 172 q 283 99 285 115 q 286 50 281 54 q 530 46 292 46 q 774 50 768 46 q 779 140 781 54 q 940 162 779 143 q 1100 183 1100 181 q 1110 100 1110 114 q 1099 65 1110 86 q 1019 -49 1072 14 q 918 -149 965 -112 l 903 -161 l 782 -167 q 489 -171 578 -178 q 376 -165 476 -169 q 294 -160 311 -162 q 268 -151 276 -158 q 195 -95 247 -137 q 121 -32 143 -53 q 3 86 11 71 q 32 250 -4 99 q 48 329 36 269 q 64 404 60 389 q 111 556 85 476 q 153 682 138 636 q 172 729 169 728 q 399 756 178 736 q 796 768 576 772 q 924 763 918 765 q 956 707 931 760 q 1067 365 1003 601 z "},"":{"ha":1154,"x_min":-6,"x_max":1110,"o":"m 607 833 q 687 831 607 829 q 803 832 767 833 q 808 1018 811 967 l 808 1028 l 794 1028 q 604 1029 608 1031 q 607 833 600 1028 m 310 836 q 390 834 310 832 q 506 835 469 836 q 511 1021 514 969 l 511 1031 l 497 1031 q 307 1032 311 1033 q 310 836 303 1031 m 758 424 l 756 449 q 738 532 747 496 l 732 556 l 614 556 q 439 550 519 556 q 353 539 358 544 q 338 485 347 533 q 324 417 332 454 q 308 346 308 346 q 528 385 394 365 l 758 424 m 1067 365 q 1064 358 1067 363 q 1047 341 1061 354 q 1008 317 1032 328 q 931 292 983 306 q 811 271 879 279 q 573 233 703 257 q 367 193 443 210 l 292 176 l 290 172 q 283 99 285 115 q 286 50 281 54 q 530 46 292 46 q 774 50 768 46 q 779 140 781 54 q 940 162 779 143 q 1100 183 1100 181 q 1110 100 1110 114 q 1099 65 1110 86 q 1019 -49 1072 14 q 918 -149 965 -112 l 903 -161 l 782 -167 q 489 -171 578 -178 q 376 -165 476 -169 q 294 -160 311 -162 q 268 -151 276 -158 q 195 -95 247 -137 q 121 -32 143 -53 q 3 86 11 71 q 32 250 -4 99 q 48 329 36 269 q 64 404 60 389 q 111 556 85 476 q 153 682 138 636 q 172 729 169 728 q 399 756 178 736 q 796 768 576 772 q 924 763 918 765 q 956 707 931 760 q 1067 365 1003 601 z "},"":{"ha":428,"x_min":1,"x_max":396,"o":"m 197 839 q 281 854 219 833 q 328 877 307 864 q 354 899 349 890 l 361 907 q 271 1031 285 1013 q 217 1096 217 1096 q 117 1074 146 1085 q 69 1051 69 1051 q 139 918 93 985 q 165 882 156 894 q 178 865 175 869 q 185 855 181 861 q 197 839 190 849 m 1 754 q 192 775 106 769 q 396 763 258 779 q 372 142 381 310 q 360 -57 367 33 q 351 -187 354 -147 q 347 -228 347 -228 q 329 -233 347 -232 q 265 -232 311 -233 q 194 -231 219 -231 q 122 -229 160 -231 q 64 -225 85 -228 l 44 -224 q 15 369 32 -25 q 1 754 4 606 z "},"":{"ha":428,"x_min":1,"x_max":396,"o":"m 172 1096 q 256 1082 194 1103 q 303 1059 282 1072 q 331 1038 324 1046 l 336 1029 q 246 906 261 924 q 192 840 192 840 q 92 863 122 851 q 44 885 44 885 q 115 1018 68 950 q 140 1053 131 1040 q 153 1070 150 1067 q 160 1081 156 1074 q 172 1096 165 1088 m 1 754 q 192 775 106 769 q 396 763 258 779 q 372 142 381 310 q 360 -57 367 33 q 351 -187 354 -147 q 347 -228 347 -228 q 329 -233 347 -232 q 265 -232 311 -233 q 194 -231 219 -231 q 122 -229 160 -231 q 64 -225 85 -228 l 44 -224 q 15 369 32 -25 q 1 754 4 606 z "},"":{"ha":428,"x_min":-42,"x_max":490,"o":"m -42 871 q 19 843 -1 853 q 88 821 19 843 q 147 894 106 851 q 194 944 147 894 q 276 895 257 911 q 340 831 296 879 q 439 850 407 838 q 489 882 469 863 q 360 1004 401 971 q 268 1076 268 1076 l 156 1082 q 127 1079 143 1082 q 103 1074 111 1076 l 93 1071 q 31 979 75 1044 q -42 871 26 974 m 1 754 q 192 775 106 769 q 396 763 258 779 q 372 142 381 310 q 360 -57 367 33 q 351 -187 354 -147 q 347 -228 347 -228 q 329 -233 347 -232 q 265 -232 311 -233 q 194 -231 219 -231 q 122 -229 160 -231 q 64 -225 85 -228 l 44 -224 q 15 369 32 -25 q 1 754 4 606 z "},"":{"ha":428,"x_min":-47,"x_max":463,"o":"m 258 843 q 338 841 258 839 q 454 842 418 843 q 460 1028 463 976 l 460 1038 l 446 1038 q 256 1039 260 1040 q 258 843 251 1038 m -39 846 q 41 844 -39 842 q 157 844 121 846 q 163 1031 165 979 l 163 1040 l 149 1040 q -42 1042 -37 1043 q -39 846 -46 1040 m 1 754 q 192 775 106 769 q 396 763 258 779 q 372 142 381 310 q 360 -57 367 33 q 351 -187 354 -147 q 347 -228 347 -228 q 329 -233 347 -232 q 265 -232 311 -233 q 194 -231 219 -231 q 122 -229 160 -231 q 64 -225 85 -228 l 44 -224 q 15 369 32 -25 q 1 754 4 606 z "},"":{"ha":958,"x_min":6,"x_max":974,"o":"m 946 75 q 933 399 936 346 q 897 689 929 476 q 972 700 897 689 q 965 799 969 761 q 957 839 964 817 q 944 875 950 861 l 938 889 q 868 875 908 883 q 854 983 856 957 q 847 1058 851 1053 q 811 1067 843 1063 q 642 1088 682 1083 q 592 1085 608 1092 q 589 1072 588 1082 q 632 824 601 989 l 508 797 q 510 772 510 788 q 511 738 510 757 l 518 663 q 661 664 564 660 q 678 564 678 567 q 655 560 678 561 q 603 561 632 560 q 556 565 574 563 q 488 582 549 567 q 358 610 428 597 q 232 628 289 624 q 201 608 226 628 q 144 559 176 588 q 82 502 113 531 q 30 453 51 474 q 8 433 8 433 q 8 380 8 428 q 7 282 7 332 q 9 169 7 232 q 19 49 11 107 q 42 -47 28 -8 l 129 -196 l 193 -200 q 492 -210 276 -206 q 786 -211 708 -214 q 831 -174 806 -210 q 876 -99 857 -139 q 913 -17 894 -58 q 932 28 931 25 q 941 48 938 36 q 944 68 944 60 l 946 75 m 258 13 q 267 215 265 208 q 269 272 268 251 q 275 332 271 299 l 278 364 l 306 358 q 350 349 307 358 q 447 333 361 346 q 549 317 532 321 q 590 308 585 308 l 685 300 l 688 100 q 687 31 688 65 q 685 -23 686 -4 q 682 -43 683 -42 q 484 -35 681 -46 q 269 -19 288 -24 q 259 -13 261 -18 q 258 13 257 -8 z "},"":{"ha":1154,"x_min":4,"x_max":1143,"o":"m 371 990 q 353 904 356 924 q 343 857 353 904 q 243 840 310 847 q 184 834 193 833 q 178 849 175 835 q 256 1125 250 1118 l 253 1128 q 258 1132 249 1131 q 336 1142 275 1136 q 375 1147 350 1143 q 406 1150 400 1150 q 440 1151 413 1150 q 488 1151 468 1153 q 569 1148 565 1150 q 589 1110 574 1146 q 628 997 603 1075 q 676 993 651 993 l 715 993 l 733 1072 q 743 1126 743 1126 q 828 1119 778 1125 l 944 1106 q 858 886 878 933 q 839 847 843 849 q 757 844 835 846 q 707 844 722 843 q 674 848 692 844 q 635 854 656 851 q 474 874 478 869 q 451 986 454 969 l 447 1003 q 411 1000 435 1000 q 391 997 401 999 q 375 993 381 994 l 371 990 m 356 -146 q 353 -157 356 -150 q 351 -169 351 -164 q 346 -189 350 -187 q 340 -189 340 -190 q 339 -189 340 -189 l 36 -196 q 26 -183 28 -190 q 7 -14 8 -94 q 10 167 6 67 q 11 307 11 207 q 13 460 11 407 q 22 585 14 513 q 43 706 29 657 q 49 711 49 711 q 118 724 75 717 q 261 740 161 732 q 422 742 361 749 q 426 740 424 742 q 427 724 426 740 q 428 687 428 707 q 431 660 429 667 q 438 671 431 660 q 454 700 444 682 q 475 735 464 718 q 496 766 486 753 q 511 781 506 779 q 572 783 518 782 q 642 785 604 786 q 684 783 679 783 q 722 780 689 783 q 778 774 756 776 q 847 765 817 771 q 897 754 878 760 q 931 742 917 749 q 953 730 946 736 q 965 719 961 724 q 972 711 969 715 q 975 707 974 707 q 992 660 976 706 q 1035 534 1008 614 q 1082 382 1061 454 q 1101 308 1092 350 q 1126 175 1111 265 q 1138 -10 1142 85 q 1108 -178 1135 -106 q 1100 -183 1107 -182 q 1054 -188 1076 -186 q 1001 -190 1032 -190 q 956 -190 969 -190 q 897 -188 942 -190 q 840 -186 853 -186 q 831 -178 833 -186 q 796 102 825 -157 q 760 397 767 361 q 746 465 751 436 q 731 519 736 515 q 654 535 722 528 q 567 533 586 542 l 408 467 l 403 443 q 370 199 383 368 q 356 -146 357 29 z "},"":{"ha":1154,"x_min":-6,"x_max":1110,"o":"m 501 813 q 585 828 524 807 q 632 851 611 838 q 660 872 653 864 l 665 881 q 575 1004 590 986 q 521 1069 521 1069 q 421 1047 451 1058 l 374 1025 q 444 892 397 958 q 469 855 460 868 q 482 838 479 842 q 490 828 485 835 q 501 813 494 822 m 64 404 q 111 556 85 476 q 153 682 138 636 q 172 729 169 728 q 399 756 178 736 q 796 768 576 772 q 924 763 918 765 q 956 707 931 760 q 1100 183 1064 467 q 1110 100 1110 114 q 1099 65 1110 86 q 1019 -49 1072 14 q 918 -149 965 -112 l 903 -161 l 782 -167 q 489 -171 578 -178 q 376 -165 476 -169 q 294 -160 311 -162 q 268 -151 276 -158 q 195 -95 247 -137 q 121 -32 143 -53 q 3 86 11 71 q 32 250 -4 99 q 48 329 36 269 q 64 404 60 389 m 774 50 q 779 157 781 54 q 738 532 778 378 l 732 556 l 614 556 q 439 550 519 556 q 353 539 358 544 q 338 485 347 533 q 324 417 329 439 q 299 260 313 361 q 283 99 286 158 q 286 50 281 54 q 530 46 292 46 q 774 50 768 46 z "},"":{"ha":1154,"x_min":-6,"x_max":1110,"o":"m 482 1061 q 565 1047 504 1068 q 613 1024 592 1038 q 640 1003 633 1011 l 646 994 q 556 871 571 889 q 501 806 501 806 q 401 828 432 817 l 354 850 q 425 983 378 915 q 450 1019 440 1006 q 463 1035 460 1032 q 470 1046 465 1039 q 482 1061 475 1053 m 64 404 q 111 556 85 476 q 153 682 138 636 q 172 729 169 728 q 399 756 178 736 q 796 768 576 772 q 924 763 918 765 q 956 707 931 760 q 1100 183 1064 467 q 1110 100 1110 114 q 1099 65 1110 86 q 1019 -49 1072 14 q 918 -149 965 -112 l 903 -161 l 782 -167 q 489 -171 578 -178 q 376 -165 476 -169 q 294 -160 311 -162 q 268 -151 276 -158 q 195 -95 247 -137 q 121 -32 143 -53 q 3 86 11 71 q 32 250 -4 99 q 48 329 36 269 q 64 404 60 389 m 774 50 q 779 157 781 54 q 738 532 778 378 l 732 556 l 614 556 q 439 550 519 556 q 353 539 358 544 q 338 485 347 533 q 324 417 329 439 q 299 260 313 361 q 283 99 286 158 q 286 50 281 54 q 530 46 292 46 q 774 50 768 46 z "},"":{"ha":1154,"x_min":-6,"x_max":1110,"o":"m 278 843 q 339 817 318 826 q 407 794 339 817 q 467 868 425 824 q 514 917 467 868 q 596 868 576 883 q 660 803 615 853 q 758 824 726 811 q 808 856 789 836 q 679 976 721 944 q 588 1049 588 1049 l 475 1054 q 447 1051 463 1054 q 422 1046 431 1049 l 413 1044 q 350 953 394 1017 q 278 843 346 946 m 64 404 q 111 556 85 476 q 153 682 138 636 q 172 729 169 728 q 399 756 178 736 q 796 768 576 772 q 924 763 918 765 q 956 707 931 760 q 1100 183 1064 467 q 1110 100 1110 114 q 1099 65 1110 86 q 1019 -49 1072 14 q 918 -149 965 -112 l 903 -161 l 782 -167 q 489 -171 578 -178 q 376 -165 476 -169 q 294 -160 311 -162 q 268 -151 276 -158 q 195 -95 247 -137 q 121 -32 143 -53 q 3 86 11 71 q 32 250 -4 99 q 48 329 36 269 q 64 404 60 389 m 774 50 q 779 157 781 54 q 738 532 778 378 l 732 556 l 614 556 q 439 550 519 556 q 353 539 358 544 q 338 485 347 533 q 324 417 329 439 q 299 260 313 361 q 283 99 286 158 q 286 50 281 54 q 530 46 292 46 q 774 50 768 46 z "},"":{"ha":1154,"x_min":-6,"x_max":1110,"o":"m 383 958 q 365 872 369 892 q 357 825 365 872 q 257 808 324 815 q 197 802 207 801 q 192 817 188 803 q 268 1093 263 1086 l 267 1096 q 272 1100 263 1099 q 350 1111 288 1104 q 389 1115 364 1113 q 420 1118 414 1118 q 454 1119 426 1118 q 501 1119 482 1121 q 583 1116 579 1118 q 603 1078 588 1114 q 642 965 617 1043 q 690 961 665 961 l 729 961 l 747 1040 l 757 1094 q 842 1088 792 1093 l 957 1074 q 872 854 890 901 q 853 815 857 817 q 769 813 849 814 q 721 812 736 811 q 688 816 706 813 q 647 822 669 819 q 486 842 490 838 q 464 954 468 938 l 461 971 q 425 968 449 968 q 383 958 401 967 m 64 404 q 111 556 85 476 q 153 682 138 636 q 172 729 169 728 q 399 756 178 736 q 796 768 576 772 q 924 763 918 765 q 956 707 931 760 q 1100 183 1064 467 q 1110 100 1110 114 q 1099 65 1110 86 q 1019 -49 1072 14 q 918 -149 965 -112 l 903 -161 l 782 -167 q 489 -171 578 -178 q 376 -165 476 -169 q 294 -160 311 -162 q 268 -151 276 -158 q 195 -95 247 -137 q 121 -32 143 -53 q 3 86 11 71 q 32 250 -4 99 q 48 329 36 269 q 64 404 60 389 m 774 50 q 779 157 781 54 q 738 532 778 378 l 732 556 l 614 556 q 439 550 519 556 q 353 539 358 544 q 338 485 347 533 q 324 417 329 439 q 299 260 313 361 q 283 99 286 158 q 286 50 281 54 q 530 46 292 46 q 774 50 768 46 z "},"":{"ha":1154,"x_min":-6,"x_max":1110,"o":"m 607 833 q 687 831 607 829 q 803 832 767 833 q 808 1018 811 967 l 808 1028 l 794 1028 q 604 1029 608 1031 q 607 833 600 1028 m 310 836 q 390 834 310 832 q 506 835 469 836 q 511 1021 514 969 l 511 1031 l 497 1031 q 307 1032 311 1033 q 310 836 303 1031 m 64 404 q 111 556 85 476 q 153 682 138 636 q 172 729 169 728 q 399 756 178 736 q 796 768 576 772 q 924 763 918 765 q 956 707 931 760 q 1100 183 1064 467 q 1110 100 1110 114 q 1099 65 1110 86 q 1019 -49 1072 14 q 918 -149 965 -112 l 903 -161 l 782 -167 q 489 -171 578 -178 q 376 -165 476 -169 q 294 -160 311 -162 q 268 -151 276 -158 q 195 -95 247 -137 q 121 -32 143 -53 q 3 86 11 71 q 32 250 -4 99 q 48 329 36 269 q 64 404 60 389 m 774 50 q 779 157 781 54 q 738 532 778 378 l 732 556 l 614 556 q 439 550 519 556 q 353 539 358 544 q 338 485 347 533 q 324 417 329 439 q 299 260 313 361 q 283 99 286 158 q 286 50 281 54 q 530 46 292 46 q 774 50 768 46 z "},"":{"ha":1119,"x_min":0,"x_max":1075,"o":"m 399 403 q 482 398 426 397 q 597 401 538 399 q 735 400 657 403 q 747 743 749 647 l 746 760 l 722 761 q 394 764 401 767 q 399 403 386 761 m 335 -258 q 418 -263 363 -264 q 533 -260 474 -262 q 671 -261 593 -258 q 683 82 685 -14 l 682 99 l 658 100 q 331 103 338 106 q 335 -258 322 100 m 36 349 q 510 358 306 351 q 1046 365 714 365 q 1055 345 1050 357 q 1067 303 1060 333 q 1072 251 1075 272 q 1063 201 1069 231 q 1051 151 1056 171 l 1046 132 q 422 150 713 133 q 188 167 293 158 q 42 179 82 175 l 1 185 q 17 275 7 232 q 28 318 22 300 q 36 349 33 336 z "},"":{"ha":1004,"x_min":-90,"x_max":1133,"o":"m 951 942 q 982 931 965 936 q 1014 920 999 926 q 1049 903 1029 914 q 1090 867 1068 892 q 1122 824 1111 843 q 1132 806 1133 806 q 1115 785 1132 806 q 1059 717 1097 764 q 988 629 1021 669 q 1100 183 1071 415 q 1110 100 1110 114 q 1099 65 1110 86 q 1019 -49 1072 14 q 918 -149 965 -112 l 903 -161 l 782 -167 q 489 -171 578 -178 q 376 -165 476 -169 q 294 -160 311 -162 q 268 -151 276 -158 q 263 -149 265 -150 q 90 -317 90 -317 q 0 -244 43 -283 q -42 -199 -19 -228 q -78 -150 -64 -171 l -90 -131 q 49 38 -39 -64 q 3 86 6 79 q 32 250 -4 99 q 48 329 36 269 q 64 404 60 389 q 111 556 85 476 q 153 682 138 636 q 172 729 169 728 q 399 756 178 736 q 768 768 556 771 l 951 942 m 774 50 q 779 157 781 54 q 767 367 778 268 q 676 267 715 307 q 460 46 606 192 q 774 50 765 46 m 308 317 q 324 333 315 325 q 547 554 417 428 q 353 539 364 550 q 338 485 347 533 q 324 417 329 439 q 308 317 317 381 z "},"":{"ha":1129,"x_min":6,"x_max":1074,"o":"m 501 813 q 585 828 524 807 q 632 851 611 838 q 660 872 653 864 l 665 881 q 575 1004 590 986 q 521 1069 521 1069 q 421 1047 451 1058 l 374 1025 q 444 892 397 958 q 469 855 460 868 q 482 838 479 842 q 490 828 485 835 q 501 813 494 822 m 707 89 l 713 113 q 750 356 733 188 q 772 700 767 525 q 774 711 772 704 q 776 724 776 718 q 782 743 778 742 q 789 743 783 743 l 1047 733 q 1057 721 1056 728 q 1073 551 1072 631 q 1067 371 1074 471 q 1067 176 1064 307 q 1067 -55 1071 44 q 1044 -217 1064 -154 l 1039 -222 q 1017 -225 1031 -224 q 963 -231 1003 -226 q 884 -237 922 -235 q 797 -239 846 -239 q 710 -235 747 -239 q 706 -233 707 -235 q 699 -205 704 -233 q 688 -143 694 -176 q 681 -104 682 -110 q 674 -115 681 -103 q 656 -144 667 -126 q 635 -178 646 -161 q 613 -209 624 -196 q 597 -224 603 -222 q 536 -225 590 -225 q 465 -224 492 -225 q 426 -222 438 -222 q 384 -217 415 -221 q 331 -211 353 -212 q 262 -201 293 -207 q 211 -188 231 -194 q 178 -176 192 -182 q 156 -163 164 -169 q 144 -153 149 -157 q 138 -144 140 -149 q 136 -140 136 -140 q 118 -109 132 -136 q 78 -18 104 -82 q 35 118 53 46 q 23 195 29 142 q 12 380 17 249 q 19 678 7 511 q 28 753 25 753 q 74 757 51 756 q 127 758 96 758 q 173 756 158 757 q 232 753 188 756 q 288 750 276 751 q 297 742 296 750 q 333 409 303 721 q 369 61 363 97 q 395 56 369 58 q 457 52 421 53 q 533 56 493 51 q 617 67 574 58 q 683 82 660 76 l 707 89 z "},"":{"ha":1129,"x_min":6,"x_max":1074,"o":"m 482 1061 q 565 1047 504 1068 q 613 1024 592 1038 q 640 1003 633 1011 l 646 994 q 556 871 571 889 q 501 806 501 806 q 401 828 432 817 l 354 850 q 425 983 378 915 q 450 1019 440 1006 q 463 1035 460 1032 q 470 1046 465 1039 q 482 1061 475 1053 m 707 89 l 713 113 q 750 356 733 188 q 772 700 767 525 q 774 711 772 704 q 776 724 776 718 q 782 743 778 742 q 789 743 783 743 l 1047 733 q 1057 721 1056 728 q 1073 551 1072 631 q 1067 371 1074 471 q 1067 176 1064 307 q 1067 -55 1071 44 q 1044 -217 1064 -154 l 1039 -222 q 1017 -225 1031 -224 q 963 -231 1003 -226 q 884 -237 922 -235 q 797 -239 846 -239 q 710 -235 747 -239 q 706 -233 707 -235 q 699 -205 704 -233 q 688 -143 694 -176 q 681 -104 682 -110 q 674 -115 681 -103 q 656 -144 667 -126 q 635 -178 646 -161 q 613 -209 624 -196 q 597 -224 603 -222 q 536 -225 590 -225 q 465 -224 492 -225 q 426 -222 438 -222 q 384 -217 415 -221 q 331 -211 353 -212 q 262 -201 293 -207 q 211 -188 231 -194 q 178 -176 192 -182 q 156 -163 164 -169 q 144 -153 149 -157 q 138 -144 140 -149 q 136 -140 136 -140 q 118 -109 132 -136 q 78 -18 104 -82 q 35 118 53 46 q 23 195 29 142 q 12 380 17 249 q 19 678 7 511 q 28 753 25 753 q 74 757 51 756 q 127 758 96 758 q 173 756 158 757 q 232 753 188 756 q 288 750 276 751 q 297 742 296 750 q 333 409 303 721 q 369 61 363 97 q 395 56 369 58 q 457 52 421 53 q 533 56 493 51 q 617 67 574 58 q 683 82 660 76 l 707 89 z "},"":{"ha":1129,"x_min":6,"x_max":1074,"o":"m 278 843 q 339 817 318 826 q 407 794 339 817 q 467 868 425 824 q 514 917 467 868 q 596 868 576 883 q 660 803 615 853 q 758 824 726 811 q 808 856 789 836 q 679 976 721 944 q 588 1049 588 1049 l 475 1054 q 447 1051 463 1054 q 422 1046 431 1049 l 413 1044 q 350 953 394 1017 q 278 843 346 946 m 707 89 l 713 113 q 750 356 733 188 q 772 700 767 525 q 774 711 772 704 q 776 724 776 718 q 782 743 778 742 q 789 743 783 743 l 1047 733 q 1057 721 1056 728 q 1073 551 1072 631 q 1067 371 1074 471 q 1067 176 1064 307 q 1067 -55 1071 44 q 1044 -217 1064 -154 l 1039 -222 q 1017 -225 1031 -224 q 963 -231 1003 -226 q 884 -237 922 -235 q 797 -239 846 -239 q 710 -235 747 -239 q 706 -233 707 -235 q 699 -205 704 -233 q 688 -143 694 -176 q 681 -104 682 -110 q 674 -115 681 -103 q 656 -144 667 -126 q 635 -178 646 -161 q 613 -209 624 -196 q 597 -224 603 -222 q 536 -225 590 -225 q 465 -224 492 -225 q 426 -222 438 -222 q 384 -217 415 -221 q 331 -211 353 -212 q 262 -201 293 -207 q 211 -188 231 -194 q 178 -176 192 -182 q 156 -163 164 -169 q 144 -153 149 -157 q 138 -144 140 -149 q 136 -140 136 -140 q 118 -109 132 -136 q 78 -18 104 -82 q 35 118 53 46 q 23 195 29 142 q 12 380 17 249 q 19 678 7 511 q 28 753 25 753 q 74 757 51 756 q 127 758 96 758 q 173 756 158 757 q 232 753 188 756 q 288 750 276 751 q 297 742 296 750 q 333 409 303 721 q 369 61 363 97 q 395 56 369 58 q 457 52 421 53 q 533 56 493 51 q 617 67 574 58 q 683 82 660 76 l 707 89 z "},"":{"ha":1129,"x_min":6,"x_max":1074,"o":"m 607 833 q 687 831 607 829 q 803 832 767 833 q 808 1018 811 967 l 808 1028 l 794 1028 q 604 1029 608 1031 q 607 833 600 1028 m 310 836 q 390 834 310 832 q 506 835 469 836 q 511 1021 514 969 l 511 1031 l 497 1031 q 307 1032 311 1033 q 310 836 303 1031 m 707 89 l 713 113 q 750 356 733 188 q 772 700 767 525 q 774 711 772 704 q 776 724 776 718 q 782 743 778 742 q 789 743 783 743 l 1047 733 q 1057 721 1056 728 q 1073 551 1072 631 q 1067 371 1074 471 q 1067 176 1064 307 q 1067 -55 1071 44 q 1044 -217 1064 -154 l 1039 -222 q 1017 -225 1031 -224 q 963 -231 1003 -226 q 884 -237 922 -235 q 797 -239 846 -239 q 710 -235 747 -239 q 706 -233 707 -235 q 699 -205 704 -233 q 688 -143 694 -176 q 681 -104 682 -110 q 674 -115 681 -103 q 656 -144 667 -126 q 635 -178 646 -161 q 613 -209 624 -196 q 597 -224 603 -222 q 536 -225 590 -225 q 465 -224 492 -225 q 426 -222 438 -222 q 384 -217 415 -221 q 331 -211 353 -212 q 262 -201 293 -207 q 211 -188 231 -194 q 178 -176 192 -182 q 156 -163 164 -169 q 144 -153 149 -157 q 138 -144 140 -149 q 136 -140 136 -140 q 118 -109 132 -136 q 78 -18 104 -82 q 35 118 53 46 q 23 195 29 142 q 12 380 17 249 q 19 678 7 511 q 28 753 25 753 q 74 757 51 756 q 127 758 96 758 q 173 756 158 757 q 232 753 188 756 q 288 750 276 751 q 297 742 296 750 q 333 409 303 721 q 369 61 363 97 q 395 56 369 58 q 457 52 421 53 q 533 56 493 51 q 617 67 574 58 q 683 82 660 76 l 707 89 z "},"":{"ha":1528,"x_min":-4,"x_max":1565,"o":"m 728 942 q 811 928 750 949 q 858 905 838 918 q 885 883 878 892 l 892 875 q 800 751 815 769 l 747 686 q 647 708 676 697 q 600 731 600 731 q 669 864 624 796 q 695 899 686 886 q 708 916 704 913 q 716 926 711 919 q 728 942 721 933 m 1006 -39 q 1136 127 1079 61 q 1301 306 1193 193 q 1342 349 1325 331 q 1372 378 1360 367 q 1401 404 1383 389 q 1428 427 1419 419 q 1467 458 1438 435 q 1515 496 1497 481 q 1565 542 1565 536 q 1553 551 1565 547 q 1522 564 1540 556 q 1360 628 1467 592 q 1225 665 1253 664 q 1158 625 1211 665 q 1015 499 1106 585 q 829 307 925 413 l 688 150 l 544 335 q 392 568 458 457 l 368 606 l 343 600 q 76 540 157 561 q -3 506 -4 519 q 90 376 -1 494 q 218 219 119 340 q 340 71 317 97 q 508 -126 508 -122 q 464 -192 508 -135 q 203 -544 338 -356 q 149 -622 161 -601 q 142 -649 138 -643 q 207 -700 147 -656 q 303 -767 267 -744 q 369 -814 332 -786 q 428 -857 407 -842 q 458 -872 450 -872 q 469 -862 464 -872 q 496 -811 475 -853 q 691 -494 542 -719 q 1006 -39 840 -268 z "},"":{"ha":1154,"x_min":-24,"x_max":1110,"o":"m 283 99 q 286 50 281 54 q 530 46 292 46 q 774 50 768 46 q 779 157 781 54 q 738 532 778 378 l 732 556 l 614 556 q 439 550 519 556 q 353 539 358 544 q 338 485 347 533 q 324 417 332 454 q 283 99 297 282 m 254 -432 q 215 -439 250 -432 q 140 -451 196 -442 q 74 -464 93 -460 q 31 -472 56 -469 l 6 -475 l 4 -456 l 0 -390 q -7 -234 -1 -376 q -17 72 -12 -92 q -24 251 -22 235 q -23 341 -24 256 q -22 531 -22 426 q -19 672 -21 635 q -6 1111 -15 1108 q 147 1103 6 1117 q 343 1079 289 1090 l 371 1074 l 368 1057 q 338 750 363 1028 q 399 756 363 753 q 796 768 576 772 q 924 763 918 765 q 956 707 931 760 q 1100 183 1064 467 q 1110 100 1110 114 q 1099 65 1110 86 q 1019 -49 1072 14 q 918 -149 965 -112 l 903 -161 l 782 -167 q 489 -171 578 -178 q 376 -165 476 -169 q 294 -160 311 -162 q 268 -151 276 -158 q 265 -150 267 -150 q 264 -185 264 -174 l 254 -432 z "},"":{"ha":1528,"x_min":-4,"x_max":1565,"o":"m 779 693 q 860 691 781 689 q 975 692 939 693 q 982 878 983 826 l 982 888 l 968 888 q 778 890 782 892 q 779 693 772 888 m 482 696 q 563 694 483 692 q 678 694 642 696 q 685 881 686 829 l 685 890 l 671 890 q 481 893 485 894 q 482 696 475 890 m 1006 -39 q 1136 127 1079 61 q 1301 306 1193 193 q 1342 349 1325 331 q 1372 378 1360 367 q 1401 404 1383 389 q 1428 427 1419 419 q 1467 458 1438 435 q 1515 496 1497 481 q 1565 542 1565 536 q 1553 551 1565 547 q 1522 564 1540 556 q 1360 628 1467 592 q 1225 665 1253 664 q 1158 625 1211 665 q 1015 499 1106 585 q 829 307 925 413 l 688 150 l 544 335 q 392 568 458 457 l 368 606 l 343 600 q 76 540 157 561 q -3 506 -4 519 q 90 376 -1 494 q 218 219 119 340 q 340 71 317 97 q 508 -126 508 -122 q 464 -192 508 -135 q 203 -544 338 -356 q 149 -622 161 -601 q 142 -649 138 -643 q 207 -700 147 -656 q 303 -767 267 -744 q 369 -814 332 -786 q 428 -857 407 -842 q 458 -872 450 -872 q 469 -862 464 -872 q 496 -811 475 -853 q 691 -494 542 -719 q 1006 -39 840 -268 z "},"":{"ha":1154,"x_min":-6,"x_max":1110,"o":"m 256 958 q 238 1007 251 963 q 225 1060 225 1051 q 281 1075 225 1067 q 590 1099 422 1092 q 759 1099 661 1101 q 861 1093 857 1097 q 856 1041 864 1090 q 844 988 847 992 q 707 982 840 983 q 458 973 603 982 q 271 954 314 964 q 256 958 260 953 m 64 404 q 111 556 85 476 q 153 682 138 636 q 172 729 169 728 q 399 756 178 736 q 796 768 576 772 q 924 763 918 765 q 956 707 931 760 q 1100 183 1064 467 q 1110 100 1110 114 q 1099 65 1110 86 q 1019 -49 1072 14 q 918 -149 965 -112 l 903 -161 l 782 -167 q 489 -171 578 -178 q 376 -165 476 -169 q 294 -160 311 -162 q 268 -151 276 -158 q 195 -95 247 -137 q 121 -32 143 -53 q 3 86 11 71 q 32 250 -4 99 q 48 329 36 269 q 64 404 60 389 m 774 50 q 779 157 781 54 q 738 532 778 378 l 732 556 l 614 556 q 439 550 519 556 q 353 539 358 544 q 338 485 347 533 q 324 417 329 439 q 299 260 313 361 q 283 99 286 158 q 286 50 281 54 q 530 46 292 46 q 774 50 768 46 z "},"":{"ha":1004,"x_min":1,"x_max":954,"o":"m 158 956 q 142 1006 156 961 q 128 1058 128 1050 q 185 1072 128 1065 q 494 1097 325 1090 q 663 1098 565 1100 q 764 1092 760 1096 q 759 1040 767 1089 q 749 986 751 990 q 610 981 744 981 q 362 972 506 981 q 175 953 218 963 q 158 956 164 950 m 954 453 l 951 367 q 921 96 947 222 q 864 -108 910 46 q 847 -147 861 -121 l 836 -171 l 747 -174 q 476 -176 668 -176 q 233 -174 285 -176 q 145 -163 203 -172 q 89 -150 88 -154 l 38 97 q 11 297 25 153 q 4 503 7 344 l 1 660 l 15 700 q 56 797 26 733 q 96 872 86 860 q 140 886 104 882 q 491 901 290 903 q 815 882 692 900 q 865 840 838 879 q 913 743 892 800 q 924 708 924 711 q 924 703 924 708 q 927 688 925 699 q 931 662 929 676 q 936 626 933 647 q 942 579 939 604 q 948 522 944 554 q 954 453 951 489 m 476 46 q 570 46 476 46 q 672 51 665 46 q 688 143 679 57 q 697 403 697 229 q 689 626 697 578 l 682 676 l 658 679 q 476 682 635 682 q 288 679 318 682 l 257 676 l 253 644 q 247 418 243 588 q 264 156 251 249 q 282 51 278 57 q 476 46 286 46 z "},"":{"ha":1154,"x_min":-6,"x_max":1110,"o":"m 818 -267 q 829 -372 818 -267 q 758 -464 783 -443 l 753 -468 l 706 -471 q 592 -472 626 -475 q 547 -469 586 -472 q 506 -464 511 -468 q 449 -412 478 -444 q 403 -362 406 -369 q 417 -281 400 -360 q 440 -170 417 -274 q 464 -61 463 -67 q 500 -22 472 -31 q 551 -21 528 -14 q 572 -36 574 -28 l 565 -164 q 558 -294 558 -293 q 558 -312 558 -297 q 556 -344 557 -328 q 554 -361 554 -360 q 555 -376 553 -375 q 617 -378 557 -378 q 680 -378 678 -379 q 682 -337 682 -376 q 742 -300 682 -337 q 787 -275 768 -283 q 813 -267 806 -267 l 818 -267 m 758 424 l 756 449 q 738 532 747 496 l 732 556 l 614 556 q 439 550 519 556 q 353 539 358 544 q 338 485 347 533 q 324 417 332 454 q 308 346 308 346 q 528 385 394 365 l 758 424 m 1067 365 q 1064 358 1067 363 q 1047 341 1061 354 q 1008 317 1032 328 q 931 292 983 306 q 811 271 879 279 q 573 233 703 257 q 367 193 443 210 l 292 176 l 290 172 q 283 99 285 115 q 286 50 281 54 q 530 46 292 46 q 774 50 768 46 q 779 140 781 54 q 940 162 779 143 q 1100 183 1100 181 q 1110 100 1110 114 q 1099 65 1110 86 q 1019 -49 1072 14 q 918 -149 965 -112 l 903 -161 l 782 -167 q 489 -171 578 -178 q 376 -165 476 -169 q 294 -160 311 -162 q 268 -151 276 -158 q 195 -95 247 -137 q 121 -32 143 -53 q 3 86 11 71 q 32 250 -4 99 q 48 329 36 269 q 64 404 60 389 q 111 556 85 476 q 153 682 138 636 q 172 729 169 728 q 399 756 178 736 q 796 768 576 772 q 924 763 918 765 q 956 707 931 760 q 1067 365 1003 601 z "},"":{"ha":1154,"x_min":-6,"x_max":1365,"o":"m 530 46 q 649 46 530 46 q 774 50 768 46 q 779 157 781 54 q 771 325 778 263 q 743 465 764 388 l 738 489 l 579 556 q 353 539 368 556 q 338 485 347 533 q 324 417 329 439 q 299 260 313 361 q 283 99 286 158 q 286 50 281 54 q 530 46 292 46 m 1119 -161 q 1110 -174 1118 -168 l 1097 -174 q 1094 -233 1094 -232 q 1092 -251 1093 -236 q 1091 -283 1092 -267 q 1090 -299 1090 -299 q 1091 -315 1089 -314 q 1153 -317 1093 -317 q 1216 -317 1214 -318 q 1218 -276 1218 -315 q 1278 -239 1218 -275 q 1354 -204 1335 -203 l 1364 -310 q 1294 -401 1318 -381 l 1288 -407 l 1240 -410 q 1126 -411 1161 -414 q 1083 -408 1122 -411 q 1040 -403 1046 -407 q 983 -351 1014 -382 q 938 -301 940 -308 q 951 -219 936 -299 q 963 -171 953 -215 l 782 -167 q 781 -168 781 -167 q 775 -167 781 -168 q 769 -147 771 -167 l 769 -128 q 717 -157 747 -143 q 690 -166 703 -162 q 671 -169 678 -169 l 664 -171 q 585 -173 657 -174 q 489 -171 513 -172 q 376 -165 476 -169 q 294 -160 311 -162 q 268 -151 276 -158 q 195 -95 247 -137 q 121 -32 143 -53 q 3 86 11 71 q 32 250 -4 99 q 48 329 36 269 q 64 404 60 389 q 111 556 85 476 q 153 682 138 636 q 172 729 169 728 q 174 733 172 729 q 181 742 176 738 q 192 752 185 746 q 215 765 200 758 q 249 776 229 771 q 299 788 268 782 q 368 796 329 793 q 424 801 390 797 q 462 806 457 806 q 504 807 467 806 q 574 806 542 808 q 635 803 628 804 q 645 794 639 801 q 658 776 651 788 q 674 752 665 765 q 689 726 682 739 q 702 703 696 714 q 711 688 708 693 l 715 682 q 717 709 717 689 q 719 746 718 729 q 719 763 719 763 q 724 764 722 764 q 1097 733 860 781 q 1103 728 1103 729 q 1124 606 1117 678 q 1133 482 1132 535 q 1135 329 1135 429 q 1136 189 1135 229 q 1139 8 1140 88 q 1119 -161 1138 -72 z "},"":{"ha":1181,"x_min":-22,"x_max":1303,"o":"m 679 335 q 569 579 611 475 q 439 325 507 457 q 567 331 514 328 q 679 335 610 333 m -22 -26 q 203 519 57 174 q 419 978 349 865 q 538 990 507 986 q 675 997 538 990 q 711 908 688 964 q 804 711 735 851 q 942 468 874 571 q 1074 264 1010 365 q 1167 113 1138 163 l 1197 63 q 1042 -43 1140 17 q 1032 -233 1032 -232 q 1030 -251 1031 -236 q 1028 -283 1029 -267 q 1028 -299 1028 -299 q 1028 -315 1026 -314 q 1091 -317 1031 -317 q 1153 -317 1151 -318 q 1156 -276 1156 -315 q 1215 -239 1156 -275 q 1292 -204 1272 -203 l 1301 -310 q 1232 -401 1256 -381 l 1225 -407 l 1178 -410 q 1064 -411 1099 -414 q 1021 -408 1060 -411 q 978 -403 983 -407 q 921 -351 951 -382 q 875 -301 878 -308 q 889 -219 874 -299 q 913 -111 890 -212 q 900 -115 900 -115 q 774 144 847 -6 q 529 160 635 149 q 365 183 431 171 q 286 36 313 82 q 197 -124 197 -124 q 72 -76 96 -87 q -22 -26 -22 -26 z "},"":{"ha":1154,"x_min":-6,"x_max":1110,"o":"m 482 1061 q 565 1047 504 1068 q 613 1024 592 1038 q 640 1003 633 1011 l 646 994 q 556 871 571 889 q 501 806 501 806 q 401 828 432 817 l 354 850 q 425 983 378 915 q 450 1019 440 1006 q 463 1035 460 1032 q 470 1046 465 1039 q 482 1061 475 1053 m 1093 235 q 1100 183 1099 199 q 1110 100 1110 114 q 1099 65 1110 86 q 1019 -49 1072 14 q 918 -149 965 -112 l 903 -161 l 782 -167 q 489 -171 578 -178 q 376 -165 476 -169 q 294 -160 311 -162 q 268 -151 276 -158 q 195 -95 247 -137 q 121 -32 143 -53 q 3 86 11 71 q 32 250 -4 99 q 48 329 36 269 q 64 404 60 389 q 111 556 85 476 q 153 682 138 636 q 172 729 169 728 q 399 756 178 736 q 796 768 576 772 q 924 763 918 765 q 956 707 931 760 q 988 623 968 678 q 1022 529 1008 568 l 1036 489 q 888 464 967 471 q 754 456 754 456 q 738 532 744 508 l 732 556 l 614 556 q 439 550 519 556 q 353 539 358 544 q 338 485 347 533 q 324 417 329 439 q 299 260 313 361 q 283 99 286 158 q 286 50 281 54 q 530 46 292 46 q 774 50 768 46 q 779 157 781 54 q 776 231 776 231 q 892 243 794 233 q 987 245 942 247 q 1063 239 1032 243 l 1093 235 z "},"":{"ha":1246,"x_min":7,"x_max":1222,"o":"m 600 1257 q 683 1243 624 1264 q 731 1220 711 1233 q 758 1199 751 1207 l 765 1190 q 674 1067 689 1085 q 619 1001 619 1001 q 521 1024 550 1013 l 472 1046 q 543 1179 496 1113 q 568 1215 558 1203 q 581 1232 578 1228 q 589 1242 583 1236 q 600 1257 594 1249 m 901 181 q 899 126 900 149 q 882 22 897 82 l 588 21 q 321 26 375 26 q 317 29 318 26 q 317 35 317 32 l 317 38 q 346 349 331 240 q 366 477 351 397 q 393 611 381 557 l 404 667 q 638 686 511 681 q 829 681 764 692 q 833 619 829 656 q 847 550 836 583 q 978 549 867 553 q 1083 549 1028 547 q 1167 553 1138 551 l 1196 556 q 1106 825 1164 690 q 1038 957 1047 958 q 551 957 724 963 q 414 945 475 954 q 313 926 353 936 q 261 914 272 915 q 226 903 224 908 q 100 518 169 750 q 46 307 69 414 q 15 146 22 200 q 7 78 7 92 q 69 2 7 67 q 200 -124 131 -62 q 372 -254 292 -203 q 610 -264 383 -256 q 829 -263 711 -268 q 1015 -251 947 -258 l 1083 -244 q 1200 28 1158 -121 q 1214 121 1207 54 q 1221 192 1221 188 q 901 181 1160 206 z "},"":{"ha":782,"x_min":1,"x_max":829,"o":"m 3 1108 q 1 1044 1 1079 q 4 899 1 1008 q 7 738 7 789 q 10 620 7 707 q 17 461 14 533 q 19 386 19 389 q 33 236 21 372 q 55 -19 44 100 q 67 -150 65 -139 l 74 -206 l 76 -222 l 100 -218 q 142 -212 124 -215 q 206 -201 160 -208 q 279 -190 260 -193 q 350 -179 310 -186 q 442 -165 418 -169 q 417 -281 417 -274 q 403 -362 400 -360 q 449 -412 406 -369 q 506 -464 478 -444 q 547 -469 511 -468 q 592 -472 586 -472 q 706 -471 626 -475 l 753 -468 l 758 -464 q 787 -431 769 -454 q 817 -390 804 -408 l 829 -372 l 818 -267 q 742 -300 800 -264 q 682 -337 682 -337 q 680 -378 682 -376 q 617 -378 678 -379 q 555 -376 557 -378 q 554 -361 553 -375 q 556 -344 554 -360 q 558 -312 557 -328 q 558 -294 558 -297 q 567 -144 558 -294 q 660 -125 657 -128 q 672 -43 667 -118 l 676 -6 l 496 -6 l 350 0 l 350 26 q 363 350 350 75 q 436 347 407 347 q 518 349 472 347 q 592 354 564 351 l 619 357 q 626 369 622 361 q 636 464 636 388 q 629 531 636 501 q 604 530 629 531 q 513 527 579 529 q 369 526 446 525 q 378 694 375 633 q 382 764 379 721 q 548 764 438 764 q 722 763 658 764 q 750 865 739 796 l 769 1054 q 730 1058 756 1056 q 631 1065 704 1060 q 489 1076 557 1071 q 335 1088 421 1082 q 185 1099 250 1094 q 69 1106 121 1103 q 3 1108 18 1108 z "},"":{"ha":800,"x_min":-17,"x_max":776,"o":"m -14 314 q -6 261 -15 307 q 7 208 3 215 q 61 231 11 201 q 129 269 103 254 q 167 -150 164 -131 l 174 -206 l 176 -222 l 200 -218 q 242 -212 224 -215 q 306 -201 260 -208 q 379 -190 360 -193 q 450 -179 410 -186 q 600 -156 547 -165 q 760 -125 756 -129 q 772 -43 767 -118 l 776 -6 l 596 -6 l 415 -6 l 415 21 q 433 472 415 101 q 558 572 557 564 q 530 613 560 576 q 496 651 500 650 q 440 617 492 653 q 440 633 440 625 q 469 1060 463 1019 l 471 1074 l 444 1078 q 252 1099 390 1088 q 103 1106 114 1110 q 107 738 94 1103 q 119 397 108 650 q -3 326 29 340 q -14 314 -12 321 z "},"":{"ha":622,"x_min":28,"x_max":604,"o":"m 461 -185 q 424 -190 457 -185 q 350 -201 404 -193 q 286 -212 304 -208 q 244 -218 268 -215 l 221 -222 l 218 -206 l 211 -150 q 174 269 208 -131 q 106 231 147 254 q 51 208 56 201 q 38 261 47 215 q 31 314 29 307 q 42 326 32 321 q 164 397 74 340 q 151 738 153 650 q 147 1106 139 1103 q 297 1099 158 1110 q 489 1078 435 1088 l 515 1074 l 514 1060 q 485 633 507 1019 q 485 617 485 625 q 540 651 536 653 q 574 613 544 650 q 603 572 604 576 q 478 472 601 564 q 460 21 460 90 l 461 -185 z "},"":{"ha":1249,"x_min":1,"x_max":1193,"o":"m 600 1257 q 683 1243 624 1264 q 731 1220 711 1233 q 758 1199 751 1207 l 765 1190 q 674 1067 689 1085 q 619 1001 619 1001 q 521 1024 550 1013 l 472 1046 q 543 1179 496 1113 q 568 1215 558 1203 q 581 1232 578 1228 q 589 1242 583 1236 q 600 1257 594 1249 m 776 696 l 607 688 q 404 674 419 679 q 403 655 404 668 q 402 635 403 642 q 403 628 401 629 q 470 592 428 613 q 583 537 513 571 q 704 478 654 503 q 985 331 835 413 q 1185 221 1135 250 q 1183 89 1192 108 q 1080 -56 1157 29 q 933 -203 1003 -140 l 917 -217 l 785 -225 q 551 -233 699 -231 q 358 -235 403 -236 q 269 -228 288 -231 q 240 -217 250 -225 q 129 -114 183 -171 q 7 94 81 -60 q 18 197 3 106 q 252 196 121 199 q 385 186 383 193 q 385 181 385 185 q 381 121 382 146 q 379 82 379 93 q 378 67 378 67 q 381 67 379 67 q 385 60 382 61 q 599 53 392 54 q 813 57 806 51 q 815 56 814 57 l 815 57 q 814 136 814 81 q 667 205 792 149 q 468 299 542 261 q 75 503 272 394 q 126 692 97 593 q 172 849 154 792 q 190 908 189 906 q 438 943 197 918 q 868 957 629 963 q 1008 950 1001 953 q 1042 881 1015 947 q 1142 551 1108 707 q 1121 547 1132 550 q 794 544 1083 539 q 794 547 794 546 q 796 593 796 578 l 776 696 z "},"":{"ha":1054,"x_min":26,"x_max":1017,"o":"m 482 1061 q 565 1047 504 1068 q 613 1024 592 1038 q 640 1003 633 1011 l 646 994 q 556 871 571 889 q 501 806 501 806 q 401 828 432 817 l 354 850 q 425 983 378 915 q 450 1019 440 1006 q 463 1035 460 1032 q 470 1046 465 1039 q 482 1061 475 1053 m 38 219 q 29 68 32 101 q 33 -106 26 35 q 78 -118 49 -111 q 209 -139 107 -125 q 426 -156 311 -153 q 664 -157 560 -158 q 831 -153 768 -156 l 894 -150 q 997 88 981 -6 q 1010 184 1006 131 q 1015 271 1014 238 l 1015 304 q 607 401 713 381 q 506 430 560 411 q 419 464 451 449 l 389 478 q 400 524 396 511 l 413 576 q 536 600 436 600 l 699 597 q 696 525 699 542 l 696 442 q 724 439 707 440 q 785 435 742 438 q 861 435 829 433 q 972 449 929 438 q 926 660 950 592 q 856 804 901 729 q 540 814 647 814 q 410 804 493 814 q 269 785 328 794 l 211 775 q 130 552 163 644 q 64 308 97 460 q 475 206 346 231 l 697 160 q 690 99 693 107 l 683 68 q 486 63 560 64 q 328 64 328 64 l 328 131 l 326 200 q 207 213 244 208 q 38 219 169 215 z "},"":{"ha":1200,"x_min":17,"x_max":1125,"o":"m 536 1322 q 619 1308 558 1329 q 666 1285 646 1299 q 693 1264 686 1272 l 700 1256 q 608 1132 624 1150 l 556 1067 q 456 1089 485 1078 q 408 1111 408 1111 q 478 1244 432 1176 q 503 1280 494 1267 q 516 1297 513 1293 q 524 1307 519 1300 q 536 1322 529 1314 m 1125 -50 q 567 -68 922 -65 q 33 -65 210 -71 q 17 111 18 44 l 22 264 q 547 568 378 458 l 771 707 q 774 739 774 722 l 772 768 q 549 769 667 768 q 386 771 386 771 q 389 707 389 738 l 389 656 q 211 650 279 650 l 85 650 q 65 869 71 782 q 61 1003 61 1003 q 531 1019 200 1017 q 812 1018 678 1021 q 1007 1013 946 1015 l 1068 1010 q 1061 728 1064 797 l 1056 625 q 721 444 858 524 q 392 258 392 258 q 389 221 389 228 l 389 200 q 568 190 433 192 l 776 192 q 778 250 778 228 l 775 300 q 944 307 850 307 q 1114 301 944 307 q 1125 97 1121 186 q 1125 -50 1125 97 z "},"":{"ha":989,"x_min":13,"x_max":929,"o":"m 482 1061 q 565 1047 504 1068 q 613 1024 592 1038 q 640 1003 633 1011 l 646 994 q 556 871 571 889 q 501 806 501 806 q 401 828 432 817 l 354 850 q 425 983 378 915 q 450 1019 440 1006 q 463 1035 460 1032 q 470 1046 465 1039 q 482 1061 475 1053 m 925 -114 q 801 -119 864 -115 q 667 -125 738 -122 q 467 -128 597 -128 q 183 -128 294 -129 q 28 -126 71 -126 q 20 -62 26 -111 q 13 19 14 -12 q 15 91 13 51 q 18 144 18 131 q 187 253 49 165 q 396 392 325 340 q 475 449 450 432 q 517 478 500 467 q 557 506 535 490 q 560 531 560 524 q 559 545 560 539 q 558 554 558 551 q 488 556 532 556 q 397 556 443 556 q 281 557 322 557 q 281 535 281 550 q 282 506 282 519 l 282 464 q 154 458 179 458 l 63 458 q 53 643 57 578 q 51 692 51 675 q 50 723 50 708 q 50 753 50 738 q 149 758 100 754 q 256 763 197 761 q 436 767 314 765 q 625 766 557 767 q 756 763 693 765 q 879 758 818 760 q 877 674 878 725 q 875 588 876 624 q 874 526 874 551 q 868 442 871 478 q 644 294 675 317 q 526 214 593 260 q 424 143 460 168 q 423 126 424 138 q 422 113 422 115 l 422 96 q 460 92 431 96 q 542 88 489 89 q 630 88 594 88 q 682 89 665 89 q 682 136 682 124 q 681 178 682 156 q 723 181 689 178 q 794 183 757 183 q 866 180 831 183 q 917 175 901 176 q 921 94 918 143 q 925 7 924 44 q 926 -62 928 -25 q 925 -114 925 -100 z "},"":{"ha":989,"x_min":13,"x_max":929,"o":"m 247 829 q 330 824 275 824 q 444 826 385 824 q 583 826 504 829 q 594 1168 597 1072 l 594 1186 l 571 1186 q 243 1190 250 1192 q 247 829 235 1186 m 925 -114 q 801 -119 864 -115 q 667 -125 738 -122 q 467 -128 597 -128 q 183 -128 294 -129 q 28 -126 71 -126 q 20 -62 26 -111 q 13 19 14 -12 q 15 91 13 51 q 18 144 18 131 q 187 253 49 165 q 396 392 325 340 q 475 449 450 432 q 517 478 500 467 q 557 506 535 490 q 560 531 560 524 q 559 545 560 539 q 558 554 558 551 q 488 556 532 556 q 397 556 443 556 q 281 557 322 557 q 281 535 281 550 q 282 506 282 519 l 282 464 q 154 458 179 458 l 63 458 q 53 643 57 578 q 51 692 51 675 q 50 723 50 708 q 50 753 50 738 q 149 758 100 754 q 256 763 197 761 q 436 767 314 765 q 625 766 557 767 q 756 763 693 765 q 879 758 818 760 q 877 674 878 725 q 875 588 876 624 q 874 526 874 551 q 868 442 871 478 q 644 294 675 317 q 526 214 593 260 q 424 143 460 168 q 423 126 424 138 q 422 113 422 115 l 422 96 q 460 92 431 96 q 542 88 489 89 q 630 88 594 88 q 682 89 665 89 q 682 136 682 124 q 681 178 682 156 q 723 181 689 178 q 794 183 757 183 q 866 180 831 183 q 917 175 901 176 q 921 94 918 143 q 925 7 924 44 q 926 -62 928 -25 q 925 -114 925 -100 z "},"":{"ha":1200,"x_min":17,"x_max":1125,"o":"m 392 1056 q 474 1050 419 1050 q 589 1053 529 1050 q 728 1053 649 1056 q 739 1394 742 1299 l 739 1413 l 715 1413 q 388 1417 394 1418 q 392 1056 379 1413 m 1125 -50 q 567 -68 922 -65 q 33 -65 210 -71 q 17 111 18 44 l 22 264 q 547 568 378 458 l 771 707 q 774 739 774 722 q 772 768 774 739 q 549 769 667 768 q 386 771 386 771 q 389 707 389 738 l 389 656 q 211 650 279 650 l 85 650 q 65 869 71 782 q 61 1003 61 1003 q 531 1019 200 1017 q 812 1018 678 1021 q 1007 1013 946 1015 l 1068 1010 q 1061 728 1064 797 l 1056 625 q 721 444 858 524 q 392 258 392 258 q 389 221 389 228 l 389 200 q 568 190 433 192 l 776 192 q 778 250 778 228 q 775 300 778 250 q 944 307 850 307 q 1114 301 944 307 q 1125 97 1121 186 q 1125 -50 1125 97 z "},"":{"ha":1181,"x_min":-22,"x_max":1197,"o":"m 269 1019 q 252 1069 265 1025 q 239 1122 239 1114 q 294 1136 239 1129 q 604 1161 436 1154 q 773 1162 675 1164 q 875 1156 871 1160 q 869 1103 878 1153 q 858 1050 861 1054 q 721 1044 854 1044 q 472 1035 617 1044 q 285 1017 328 1026 q 269 1019 274 1014 m -22 -26 q 203 519 57 174 q 419 978 349 865 q 538 990 507 986 l 675 997 q 711 908 688 964 q 804 711 735 851 q 942 468 874 571 q 1074 264 1010 365 q 1167 113 1138 163 l 1197 63 q 1036 -46 1139 15 q 956 -91 990 -74 q 911 -111 922 -108 l 900 -115 q 774 144 847 -6 q 529 160 635 149 q 365 183 431 171 q 286 36 313 82 q 197 -124 197 -124 q 72 -76 96 -87 q -22 -26 -22 -26 m 679 335 q 569 579 611 475 q 439 325 507 457 q 567 331 514 328 q 679 335 610 333 z "},"":{"ha":1154,"x_min":-6,"x_max":1140,"o":"m 256 958 q 238 1007 251 963 q 225 1060 225 1051 q 281 1075 225 1067 q 590 1099 422 1092 q 759 1099 661 1101 q 861 1093 857 1097 q 856 1041 864 1090 q 844 988 847 992 q 707 982 840 983 q 458 973 603 982 q 271 954 314 964 q 256 958 260 953 m 1119 -161 q 1110 -174 1118 -168 l 782 -167 q 781 -168 781 -167 q 775 -167 781 -168 q 769 -147 771 -167 l 769 -128 q 717 -157 747 -143 q 690 -166 703 -162 q 671 -169 678 -169 l 664 -171 q 585 -173 657 -174 q 489 -171 513 -172 q 376 -165 476 -169 q 294 -160 311 -162 q 268 -151 276 -158 q 195 -95 247 -137 q 121 -32 143 -53 q 3 86 11 71 q 32 250 -4 99 q 48 329 36 269 q 64 404 60 389 q 111 556 85 476 q 153 682 138 636 q 172 729 169 728 q 174 733 172 729 q 181 742 176 738 q 192 752 185 746 q 215 765 200 758 q 249 776 229 771 q 299 788 268 782 q 368 796 329 793 q 424 801 390 797 q 462 806 457 806 q 504 807 467 806 q 574 806 542 808 q 635 803 628 804 q 645 794 639 801 q 658 776 651 788 q 674 752 665 765 q 689 726 682 739 q 702 703 696 714 q 711 688 708 693 l 715 682 q 717 709 717 689 q 719 746 718 729 q 719 763 719 763 q 724 764 722 764 q 1097 733 860 781 q 1103 728 1103 729 q 1124 606 1117 678 q 1133 482 1132 535 q 1135 329 1135 429 q 1136 189 1135 229 q 1139 8 1140 88 q 1119 -161 1138 -72 m 530 46 q 649 46 530 46 q 774 50 768 46 q 779 157 781 54 q 771 325 778 263 q 743 465 764 388 l 738 489 l 579 556 q 353 539 368 556 q 338 485 347 533 q 324 417 329 439 q 299 260 313 361 q 283 99 286 158 q 286 50 281 54 q 530 46 292 46 z "},"":{"ha":1154,"x_min":-6,"x_max":1110,"o":"m 256 958 q 238 1007 251 963 q 225 1060 225 1051 q 281 1075 225 1067 q 590 1099 422 1092 q 759 1099 661 1101 q 861 1093 857 1097 q 856 1041 864 1090 q 844 988 847 992 q 707 982 840 983 q 458 973 603 982 q 271 954 314 964 q 256 958 260 953 m 758 424 l 756 449 q 738 532 747 496 l 732 556 l 614 556 q 439 550 519 556 q 353 539 358 544 q 338 485 347 533 q 324 417 332 454 q 308 346 308 346 q 528 385 394 365 l 758 424 m 1067 365 q 1064 358 1067 363 q 1047 341 1061 354 q 1008 317 1032 328 q 931 292 983 306 q 811 271 879 279 q 573 233 703 257 q 367 193 443 210 l 292 176 l 290 172 q 283 99 285 115 q 286 50 281 54 q 530 46 292 46 q 774 50 768 46 q 779 140 781 54 q 940 162 779 143 q 1100 183 1100 181 q 1110 100 1110 114 q 1099 65 1110 86 q 1019 -49 1072 14 q 918 -149 965 -112 l 903 -161 l 782 -167 q 489 -171 578 -178 q 376 -165 476 -169 q 294 -160 311 -162 q 268 -151 276 -158 q 195 -95 247 -137 q 121 -32 143 -53 q 3 86 11 71 q 32 250 -4 99 q 48 329 36 269 q 64 404 60 389 q 111 556 85 476 q 153 682 138 636 q 172 729 169 728 q 399 756 178 736 q 796 768 576 772 q 924 763 918 765 q 956 707 931 760 q 1067 365 1003 601 z "},"":{"ha":782,"x_min":1,"x_max":769,"o":"m 3 1108 q 1 1044 1 1079 q 4 899 1 1008 q 7 738 7 789 q 10 620 7 707 q 17 461 14 533 q 19 386 19 389 q 33 236 21 372 q 55 -19 44 100 q 67 -150 65 -139 l 74 -206 l 76 -222 l 100 -218 q 142 -212 124 -215 q 206 -201 160 -208 q 279 -190 260 -193 q 350 -179 310 -186 q 500 -156 447 -165 q 660 -125 656 -129 q 672 -43 667 -118 l 676 -6 l 496 -6 l 350 0 l 350 26 q 363 350 350 75 q 436 347 407 347 q 518 349 472 347 q 592 354 564 351 l 619 357 q 626 369 622 361 q 636 464 636 388 q 629 531 636 501 q 604 530 629 531 q 513 527 579 529 q 369 526 446 525 q 378 694 375 633 q 382 764 379 721 q 548 764 438 764 q 722 763 658 764 q 750 865 739 796 l 769 1054 q 730 1058 756 1056 q 631 1065 704 1060 q 489 1076 557 1071 q 335 1088 421 1082 q 185 1099 250 1094 q 69 1106 121 1103 q 3 1108 18 1108 z "},"":{"ha":1129,"x_min":6,"x_max":1074,"o":"m 256 958 q 238 1007 251 963 q 225 1060 225 1051 q 281 1075 225 1067 q 590 1099 422 1092 q 759 1099 661 1101 q 861 1093 857 1097 q 856 1041 864 1090 q 844 988 847 992 q 707 982 840 983 q 458 973 603 982 q 271 954 314 964 q 256 958 260 953 m 707 89 l 713 113 q 750 356 733 188 q 772 700 767 525 q 774 711 772 704 q 776 724 776 718 q 782 743 778 742 q 789 743 783 743 l 1047 733 q 1057 721 1056 728 q 1073 551 1072 631 q 1067 371 1074 471 q 1067 176 1064 307 q 1067 -55 1071 44 q 1044 -217 1064 -154 l 1039 -222 q 1017 -225 1031 -224 q 963 -231 1003 -226 q 884 -237 922 -235 q 797 -239 846 -239 q 710 -235 747 -239 q 706 -233 707 -235 q 699 -205 704 -233 q 688 -143 694 -176 q 681 -104 682 -110 q 674 -115 681 -103 q 656 -144 667 -126 q 635 -178 646 -161 q 613 -209 624 -196 q 597 -224 603 -222 q 536 -225 590 -225 q 465 -224 492 -225 q 426 -222 438 -222 q 384 -217 415 -221 q 331 -211 353 -212 q 262 -201 293 -207 q 211 -188 231 -194 q 178 -176 192 -182 q 156 -163 164 -169 q 144 -153 149 -157 q 138 -144 140 -149 q 136 -140 136 -140 q 118 -109 132 -136 q 78 -18 104 -82 q 35 118 53 46 q 23 195 29 142 q 12 380 17 249 q 19 678 7 511 q 28 753 25 753 q 74 757 51 756 q 127 758 96 758 q 173 756 158 757 q 232 753 188 756 q 288 750 276 751 q 297 742 296 750 q 333 409 303 721 q 369 61 363 97 q 395 56 369 58 q 457 52 421 53 q 533 56 493 51 q 617 67 574 58 q 683 82 660 76 l 707 89 z "},"":{"ha":1004,"x_min":4,"x_max":964,"o":"m 158 956 q 142 1006 156 961 q 128 1058 128 1050 q 185 1072 128 1065 q 494 1097 325 1090 q 663 1098 565 1100 q 764 1092 760 1096 q 759 1040 767 1089 q 749 986 751 990 q 610 981 744 981 q 362 972 506 981 q 175 953 218 963 q 158 956 164 950 m 633 78 q 651 286 646 82 q 647 653 656 490 q 642 787 643 751 q 641 822 640 822 q 642 865 642 822 q 675 869 656 867 q 705 872 694 871 q 749 868 715 872 q 816 863 767 865 q 922 849 865 861 q 937 688 925 774 q 956 547 949 603 q 964 406 964 492 q 950 224 964 319 q 931 113 942 167 q 911 19 921 60 q 891 -58 901 -22 q 873 -119 881 -94 q 858 -162 865 -144 q 847 -189 851 -181 l 844 -199 l 428 -199 q 237 -190 343 -199 q 103 -179 131 -181 q 71 -51 90 -115 q 38 86 51 14 q 14 290 24 158 q 7 472 4 386 q 16 599 10 558 q 31 711 22 640 q 44 849 40 782 q 148 861 107 857 q 215 867 189 865 q 244 868 242 868 q 281 869 247 869 q 321 868 314 868 q 310 766 318 829 q 299 659 303 703 q 294 585 294 615 q 298 479 296 565 q 302 322 300 393 q 306 228 304 250 q 322 75 315 124 q 387 72 335 75 q 469 71 439 69 q 528 72 488 71 q 597 74 569 74 q 633 78 625 75 z "},"":{"ha":428,"x_min":-136,"x_max":504,"o":"m -104 826 q -122 876 -108 832 q -135 929 -135 921 q -78 943 -135 936 q 231 968 63 961 q 399 969 301 971 q 501 963 497 967 q 496 910 504 960 q 485 857 488 861 q 347 851 481 851 q 99 842 243 851 q -89 824 -46 833 q -104 826 -100 821 m 1 754 q 192 775 106 769 q 396 763 258 779 q 372 142 381 310 q 360 -57 367 33 q 351 -187 354 -147 q 347 -228 347 -228 q 329 -233 347 -232 q 265 -232 311 -233 q 194 -231 219 -231 q 122 -229 160 -231 q 64 -225 85 -228 l 44 -224 q 15 369 32 -25 q 1 754 4 606 z "},"":{"ha":394,"x_min":-162,"x_max":478,"o":"m -131 986 q -148 1036 -135 992 q -161 1089 -161 1081 q -104 1103 -161 1096 q 204 1128 36 1121 q 373 1128 275 1131 q 475 1122 471 1126 q 469 1070 478 1119 q 458 1017 461 1021 q 321 1011 454 1011 q 72 1002 217 1011 q -115 983 -72 993 q -131 986 -126 981 m -6 969 q 29 972 7 971 q 105 974 51 972 q 194 974 158 975 q 353 963 275 972 q 324 157 335 374 q 314 -20 319 61 q 306 -137 308 -101 q 303 -172 303 -172 q 287 -177 303 -176 q 231 -176 271 -178 q 168 -175 190 -175 q 103 -174 136 -175 q 53 -169 71 -172 l 36 -168 q 10 360 25 8 q 0 610 3 518 q -3 796 -3 701 q -6 969 -4 890 z "},"":{"ha":1154,"x_min":-6,"x_max":1110,"o":"m 256 958 q 238 1007 251 963 q 225 1060 225 1051 q 281 1075 225 1067 q 590 1099 422 1092 q 759 1099 661 1101 q 861 1093 857 1097 q 856 1041 864 1090 q 844 988 847 992 q 707 982 840 983 q 458 973 603 982 q 271 954 314 964 q 256 958 260 953 m 64 404 q 111 556 85 476 q 153 682 138 636 q 172 729 169 728 q 399 756 178 736 q 796 768 576 772 q 924 763 918 765 q 956 707 931 760 q 1100 183 1064 467 q 1110 100 1110 114 q 1099 65 1110 86 q 1019 -49 1072 14 q 918 -149 965 -112 l 903 -161 l 782 -167 q 489 -171 578 -178 q 376 -165 476 -169 q 294 -160 311 -162 q 268 -151 276 -158 q 195 -95 247 -137 q 121 -32 143 -53 q 3 86 11 71 q 32 250 -4 99 q 48 329 36 269 q 64 404 60 389 m 774 50 q 779 157 781 54 q 738 532 778 378 l 732 556 l 614 556 q 439 550 519 556 q 353 539 358 544 q 338 485 347 533 q 324 417 329 439 q 299 260 313 361 q 283 99 286 158 q 286 50 281 54 q 530 46 292 46 q 774 50 768 46 z "},"":{"ha":1865,"x_min":-6,"x_max":1864,"o":"m 774 50 q 530 46 768 46 q 286 50 292 46 q 283 99 281 54 q 299 260 286 158 q 324 417 313 361 q 338 485 329 439 q 353 539 347 533 q 439 550 358 544 q 614 556 519 556 l 732 556 l 738 532 q 779 157 778 378 q 774 50 781 54 m 1086 -168 q 1199 -174 1182 -172 q 1492 -169 1289 -181 l 1613 -164 l 1628 -151 q 1753 -32 1679 -112 q 1851 99 1826 49 q 1863 133 1863 119 q 1854 217 1863 147 q 1693 195 1854 214 q 1532 174 1532 176 q 1526 83 1533 88 q 1363 80 1522 81 q 1106 81 1204 79 q 1109 111 1110 97 q 1100 183 1108 125 q 1096 221 1099 203 q 1564 304 1360 279 q 1685 326 1633 313 q 1760 351 1736 339 q 1800 374 1785 363 q 1817 392 1815 385 l 1819 399 q 1708 740 1756 635 q 1678 796 1685 793 q 1549 801 1671 799 q 1151 789 1329 806 q 925 763 932 769 q 796 768 918 765 q 399 756 576 772 q 172 729 178 736 q 153 682 169 728 q 111 556 138 636 q 64 404 85 476 q 48 329 60 389 q 32 250 36 269 q 3 86 -4 99 q 121 -32 11 71 q 195 -95 143 -53 q 268 -151 247 -137 q 294 -160 276 -158 q 376 -165 311 -162 q 489 -171 476 -169 q 624 -169 514 -172 q 782 -167 735 -167 l 1086 -168 m 1511 457 q 1281 418 1414 438 q 1065 379 1156 400 q 1063 386 1064 383 q 1078 450 1074 429 q 1090 518 1085 488 q 1106 572 1100 567 q 1192 583 1113 578 q 1368 589 1272 589 l 1485 589 l 1492 565 l 1510 482 l 1511 457 z "},"":{"ha":1415,"x_min":1,"x_max":1392,"o":"m 476 46 q 570 46 476 46 q 672 51 665 46 q 688 143 679 57 q 697 403 697 229 q 689 626 697 578 l 682 676 l 658 679 q 476 682 635 682 q 288 679 318 682 l 257 676 l 253 644 q 247 418 243 588 q 264 156 251 249 q 282 51 278 57 q 476 46 286 46 m 776 888 q 956 878 803 889 q 1250 856 1110 867 l 1392 844 q 1376 694 1385 750 q 1367 649 1372 669 q 1357 621 1361 629 l 1354 613 q 1213 613 1301 613 q 1081 614 1125 613 q 1078 558 1079 579 q 1071 424 1075 510 q 1185 425 1132 424 q 1259 427 1239 426 q 1279 428 1279 428 q 1285 375 1285 404 q 1276 300 1285 314 l 1271 289 q 1124 282 1188 282 q 1065 285 1101 282 q 1056 26 1056 65 l 1056 6 l 1172 1 l 1317 1 l 1314 -29 q 1304 -94 1310 -89 q 1175 -119 1300 -99 q 1054 -137 1133 -126 q 997 -146 1022 -143 q 939 -156 982 -149 q 888 -163 903 -160 q 854 -169 874 -167 l 836 -171 l 747 -174 q 476 -176 668 -176 q 233 -174 285 -176 q 145 -163 203 -172 q 89 -150 88 -154 l 38 97 q 11 297 25 153 q 4 503 7 344 l 1 660 l 15 700 q 56 797 26 733 q 96 872 86 860 q 140 886 104 882 q 463 901 278 901 q 776 888 649 901 z "},"":{"ha":1290,"x_min":-6,"x_max":1257,"o":"m 938 181 q 935 125 935 149 q 918 22 932 82 l 693 21 q 426 26 481 26 q 423 29 424 26 q 422 35 422 32 l 422 38 q 431 150 425 86 q 610 150 514 147 q 711 158 707 153 q 705 235 714 163 q 693 314 696 307 q 538 321 688 321 q 447 324 499 321 q 451 349 449 338 q 454 375 453 361 q 630 376 538 372 q 726 385 722 379 q 720 460 729 388 q 708 539 711 533 q 553 547 703 547 q 486 549 522 547 l 510 667 q 743 686 617 681 q 864 681 869 692 q 868 619 864 656 q 882 550 872 583 q 1014 549 901 553 q 1232 556 1126 544 q 1140 825 1200 690 q 1074 957 1082 958 q 1003 958 1046 957 q 842 959 961 958 q 657 957 722 960 q 519 945 581 954 q 418 926 458 936 q 367 914 378 915 q 332 903 329 908 q 221 565 283 771 q 63 589 101 578 q 44 583 50 592 q 25 511 40 576 q 10 433 10 446 q 22 423 10 426 q 74 413 33 419 q 172 397 133 403 q 160 344 165 371 q 47 363 76 354 q 29 358 35 367 q 10 285 25 351 q -6 208 -6 219 q 6 197 -6 201 q 58 186 18 193 q 126 175 97 181 q 113 78 113 97 q 174 2 113 67 q 306 -124 236 -62 q 389 -191 346 -158 q 454 -239 432 -224 l 478 -254 q 715 -264 489 -256 q 917 -263 817 -268 q 1069 -251 1018 -258 l 1119 -244 q 1236 28 1194 -121 q 1249 121 1243 54 q 1257 192 1256 188 q 938 181 1194 206 z "},"":{"ha":406,"x_min":-1,"x_max":363,"o":"m 11 267 q 94 260 39 260 q 210 264 150 261 q 349 264 269 267 q 360 606 363 510 l 360 624 l 335 624 q 7 626 15 629 q 11 267 -1 624 z "},"":{"ha":1082,"x_min":29,"x_max":1081,"o":"m 317 76 q 499 63 386 65 q 690 68 611 60 q 611 367 657 196 q 558 523 592 443 q 501 646 525 603 l 478 688 q 371 364 404 504 q 352 277 360 313 q 341 226 344 242 q 330 160 338 210 q 317 76 322 110 m 29 -154 q 167 500 122 260 q 301 967 213 740 q 490 997 417 997 l 636 997 q 867 492 703 819 q 1079 -39 1025 175 q 1081 -42 1081 -42 q 1019 -147 1050 -100 q 994 -183 1006 -168 q 976 -201 982 -197 l 971 -206 q 432 -192 778 -208 q 244 -181 311 -186 q 160 -172 178 -175 q 109 -164 142 -169 q 29 -154 76 -158 z "},"":{"ha":1356,"x_min":-1,"x_max":1321,"o":"m 793 178 q 891 290 849 246 q 1014 408 933 333 q 1282 628 1135 521 q 1319 658 1319 654 q 1310 664 1319 661 q 1288 672 1300 667 q 1119 728 1247 690 q 971 765 992 765 q 854 676 956 765 q 638 474 753 588 l 532 368 l 494 404 q 360 546 419 476 l 339 568 l 321 563 q 103 485 207 528 q 1 432 -1 442 q 82 354 4 424 q 192 260 107 332 q 297 172 278 188 q 343 131 300 169 q 449 40 386 93 q 563 -54 511 -14 q 628 -15 578 -67 q 793 178 679 38 z "},"":{"ha":900,"x_min":17,"x_max":864,"o":"m 594 874 l 636 799 q 649 816 639 801 q 668 844 658 831 q 678 862 672 851 q 689 881 683 872 q 703 899 694 889 q 715 785 706 840 l 733 674 q 813 678 790 675 l 863 689 q 840 882 847 838 q 818 1058 826 972 q 758 1058 769 1058 q 720 1058 751 1057 q 672 1058 689 1058 q 661 1041 668 1051 q 653 1029 654 1031 q 640 1010 651 1028 q 621 983 628 993 q 615 994 619 988 q 604 1010 610 1001 q 576 1051 599 1019 q 549 1052 567 1051 q 524 1053 532 1053 q 497 1052 517 1053 q 464 1051 476 1051 q 457 1006 461 1026 q 449 958 453 986 q 436 863 444 931 q 425 747 428 796 q 422 681 422 697 l 424 665 q 478 658 424 665 l 558 660 q 575 781 574 769 l 594 874 m 275 649 q 258 647 274 649 q 237 645 254 647 q 214 643 219 643 q 185 639 193 640 q 167 638 176 638 l 156 636 l 154 642 l 153 661 q 148 706 151 665 q 141 792 144 746 q 136 843 138 839 q 131 949 131 904 q 129 979 131 963 q 106 979 114 979 l 19 979 q 17 1081 17 1057 l 17 1103 q 264 1100 157 1101 l 421 1096 q 419 1054 421 1072 l 411 992 q 292 986 356 989 q 290 964 290 975 q 288 938 289 953 q 286 910 288 922 q 275 715 274 756 l 275 649 z "}}}
